Archivo Narrow Devanagari-Bold.ufo
<glyph name="quotesingle" format="1">
  <advance width="172"/>
  <unicode hex="0027"/>
  <outline>
    <contour>
      <point x="122" y="360" type="line"/>
      <point x="141" y="476" type="line"/>
      <point x="141" y="606" type="line"/>
      <point x="33" y="606" type="line"/>
      <point x="33" y="476" type="line"/>
      <point x="52" y="360" type="line"/>
    </contour>
  </outline>
</glyph>
<glyph name="parenleft" format="1">
  <advance width="241"/>
  <unicode hex="0028"/>
  <outline>
    <contour>
      <point x="158" y="650" type="line"/>
      <point x="73" y="541"/>
      <point x="27" y="400"/>
      <point x="27" y="255" type="curve" smooth="yes"/>
      <point x="27" y="110"/>
      <point x="73" y="-30"/>
      <point x="158" y="-139" type="curve"/>
      <point x="228" y="-139" type="line"/>
      <point x="170" y="-31"/>
      <point x="124" y="118"/>
      <point x="124" y="256" type="curve" smooth="yes"/>
      <point x="124" y="394"/>
      <point x="170" y="542"/>
      <point x="228" y="650" type="curve"/>
    </contour>
  </outline>
</glyph>
<glyph name="asterisk" format="1">
  <advance width="282"/>
  <unicode hex="002A"/>
  <outline>
    <contour>
      <point x="276" y="510" type="line"/>
      <point x="241" y="568" type="line"/>
      <point x="167" y="517" type="line"/>
      <point x="176" y="606" type="line"/>
      <point x="107" y="606" type="line"/>
      <point x="116" y="516" type="line"/>
      <point x="42" y="568" type="line"/>
      <point x="7" y="510" type="line"/>
      <point x="89" y="471" type="line"/>
      <point x="7" y="434" type="line"/>
      <point x="42" y="374" type="line"/>
      <point x="116" y="427" type="line"/>
      <point x="107" y="337" type="line"/>
      <point x="176" y="337" type="line"/>
      <point x="167" y="427" type="line"/>
      <point x="241" y="374" type="line"/>
      <point x="276" y="434" type="line"/>
      <point x="194" y="471" type="line"/>
    </contour>
  </outline>
</glyph>
<glyph name="plus" format="1">
  <advance width="423"/>
  <unicode hex="002B"/>
  <outline>
    <contour>
      <point x="393" y="179" type="line"/>
      <point x="393" y="271" type="line"/>
      <point x="256" y="271" type="line"/>
      <point x="256" y="452" type="line"/>
      <point x="165" y="452" type="line"/>
      <point x="165" y="271" type="line"/>
      <point x="29" y="271" type="line"/>
      <point x="29" y="179" type="line"/>
      <point x="165" y="179" type="line"/>
      <point x="165" y="0" type="line"/>
      <point x="256" y="0" type="line"/>
      <point x="256" y="179" type="line"/>
    </contour>
  </outline>
</glyph>
<glyph name="comma" format="1">
  <advance width="202"/>
  <unicode hex="002C"/>
  <outline>
    <contour>
      <point x="103" y="-138" type="line"/>
      <point x="162" y="11" type="line"/>
      <point x="162" y="121" type="line"/>
      <point x="40" y="121" type="line"/>
      <point x="40" y="0" type="line"/>
      <point x="88" y="0" type="line"/>
      <point x="40" y="-138" type="line"/>
    </contour>
  </outline>
</glyph>
<glyph name="period" format="1">
  <advance width="202"/>
  <unicode hex="002E"/>
  <outline>
    <contour>
      <point x="40" y="121" type="line"/>
      <point x="40" y="0" type="line"/>
      <point x="162" y="0" type="line"/>
      <point x="162" y="121" type="line"/>
    </contour>
  </outline>
</glyph>
<glyph name="three" format="1">
  <advance width="403"/>
  <unicode hex="0033"/>
  <outline>
    <contour>
      <point x="33" y="426" type="line"/>
      <point x="143" y="426" type="line"/>
      <point x="143" y="443" type="line" smooth="yes"/>
      <point x="143" y="499"/>
      <point x="164" y="528"/>
      <point x="200" y="528" type="curve" smooth="yes"/>
      <point x="234" y="528"/>
      <point x="255" y="503"/>
      <point x="255" y="446" type="curve" smooth="yes"/>
      <point x="255" y="384"/>
      <point x="229" y="353"/>
      <point x="195" y="353" type="curve" smooth="yes"/>
      <point x="164" y="353" type="line"/>
      <point x="164" y="263" type="line"/>
      <point x="194" y="263" type="line" smooth="yes"/>
      <point x="232" y="263"/>
      <point x="266" y="244"/>
      <point x="266" y="168" type="curve" smooth="yes"/>
      <point x="266" y="107"/>
      <point x="240" y="79"/>
      <point x="200" y="79" type="curve" smooth="yes"/>
      <point x="156" y="79"/>
      <point x="133" y="111"/>
      <point x="133" y="169" type="curve" smooth="yes"/>
      <point x="133" y="187" type="line"/>
      <point x="22" y="187" type="line"/>
      <point x="22" y="171" type="line" smooth="yes"/>
      <point x="22" y="61"/>
      <point x="86" y="-11"/>
      <point x="202" y="-11" type="curve" smooth="yes"/>
      <point x="304" y="-11"/>
      <point x="377" y="55"/>
      <point x="377" y="163" type="curve" smooth="yes"/>
      <point x="377" y="243"/>
      <point x="339" y="292"/>
      <point x="287" y="311" type="curve"/>
      <point x="287" y="315" type="line"/>
      <point x="332" y="340"/>
      <point x="366" y="379"/>
      <point x="366" y="451" type="curve" smooth="yes"/>
      <point x="366" y="559"/>
      <point x="299" y="617"/>
      <point x="199" y="617" type="curve" smooth="yes"/>
      <point x="102" y="617"/>
      <point x="33" y="552"/>
      <point x="33" y="451" type="curve" smooth="yes"/>
    </contour>
  </outline>
</glyph>
<glyph name="six" format="1">
  <advance width="403"/>
  <unicode hex="0036"/>
  <outline>
    <contour>
      <point x="92" y="617"/>
      <point x="27" y="538"/>
      <point x="27" y="286" type="curve" smooth="yes"/>
      <point x="27" y="61"/>
      <point x="95" y="-11"/>
      <point x="210" y="-11" type="curve" smooth="yes"/>
      <point x="306" y="-11"/>
      <point x="377" y="65"/>
      <point x="377" y="186" type="curve" smooth="yes"/>
      <point x="377" y="298"/>
      <point x="328" y="381"/>
      <point x="230" y="381" type="curve" smooth="yes"/>
      <point x="191" y="381"/>
      <point x="156" y="363"/>
      <point x="136" y="333" type="curve"/>
      <point x="138" y="452"/>
      <point x="143" y="528"/>
      <point x="198" y="528" type="curve" smooth="yes"/>
      <point x="239" y="528"/>
      <point x="252" y="488"/>
      <point x="252" y="420" type="curve"/>
      <point x="361" y="420" type="line"/>
      <point x="361" y="532"/>
      <point x="314" y="617"/>
      <point x="202" y="617" type="curve" smooth="yes"/>
    </contour>
    <contour>
      <point x="248" y="294"/>
      <point x="267" y="250"/>
      <point x="267" y="186" type="curve" smooth="yes"/>
      <point x="267" y="125"/>
      <point x="248" y="79"/>
      <point x="205" y="79" type="curve" smooth="yes"/>
      <point x="163" y="79"/>
      <point x="142" y="125"/>
      <point x="142" y="186" type="curve" smooth="yes"/>
      <point x="142" y="250"/>
      <point x="163" y="294"/>
      <point x="205" y="294" type="curve" smooth="yes"/>
    </contour>
  </outline>
</glyph>
<glyph name="eight" format="1">
  <advance width="403"/>
  <unicode hex="0038"/>
  <outline>
    <contour>
      <point x="94" y="617"/>
      <point x="39" y="541"/>
      <point x="39" y="448" type="curve" smooth="yes"/>
      <point x="39" y="391"/>
      <point x="60" y="340"/>
      <point x="104" y="311" type="curve"/>
      <point x="50" y="284"/>
      <point x="27" y="232"/>
      <point x="27" y="166" type="curve" smooth="yes"/>
      <point x="27" y="69"/>
      <point x="78" y="-11"/>
      <point x="202" y="-11" type="curve" smooth="yes"/>
      <point x="325" y="-11"/>
      <point x="377" y="69"/>
      <point x="377" y="166" type="curve" smooth="yes"/>
      <point x="377" y="232"/>
      <point x="354" y="284"/>
      <point x="298" y="311" type="curve"/>
      <point x="342" y="340"/>
      <point x="364" y="391"/>
      <point x="364" y="448" type="curve" smooth="yes"/>
      <point x="364" y="541"/>
      <point x="309" y="617"/>
      <point x="202" y="617" type="curve" smooth="yes"/>
    </contour>
    <contour>
      <point x="244" y="266"/>
      <point x="267" y="232"/>
      <point x="267" y="171" type="curve" smooth="yes"/>
      <point x="267" y="110"/>
      <point x="244" y="78"/>
      <point x="202" y="78" type="curve" smooth="yes"/>
      <point x="159" y="78"/>
      <point x="136" y="110"/>
      <point x="136" y="171" type="curve" smooth="yes"/>
      <point x="136" y="232"/>
      <point x="159" y="266"/>
      <point x="202" y="266" type="curve" smooth="yes"/>
    </contour>
    <contour>
      <point x="237" y="529"/>
      <point x="257" y="499"/>
      <point x="257" y="441" type="curve" smooth="yes"/>
      <point x="257" y="384"/>
      <point x="237" y="354"/>
      <point x="202" y="354" type="curve" smooth="yes"/>
      <point x="166" y="354"/>
      <point x="147" y="384"/>
      <point x="147" y="441" type="curve" smooth="yes"/>
      <point x="147" y="499"/>
      <point x="166" y="529"/>
      <point x="202" y="529" type="curve" smooth="yes"/>
    </contour>
  </outline>
</glyph>
<glyph name="nine" format="1">
  <advance width="403"/>
  <unicode hex="0039"/>
  <outline>
    <contour>
      <point x="42" y="187" type="line"/>
      <point x="42" y="74"/>
      <point x="89" y="-11"/>
      <point x="202" y="-11" type="curve" smooth="yes"/>
      <point x="311" y="-11"/>
      <point x="377" y="68"/>
      <point x="377" y="321" type="curve" smooth="yes"/>
      <point x="377" y="545"/>
      <point x="308" y="617"/>
      <point x="194" y="617" type="curve" smooth="yes"/>
      <point x="97" y="617"/>
      <point x="27" y="542"/>
      <point x="27" y="421" type="curve" smooth="yes"/>
      <point x="27" y="309"/>
      <point x="75" y="225"/>
      <point x="173" y="225" type="curve" smooth="yes"/>
      <point x="212" y="225"/>
      <point x="247" y="243"/>
      <point x="267" y="273" type="curve"/>
      <point x="265" y="155"/>
      <point x="260" y="79"/>
      <point x="205" y="79" type="curve" smooth="yes"/>
      <point x="164" y="79"/>
      <point x="151" y="118"/>
      <point x="151" y="187" type="curve"/>
    </contour>
    <contour>
      <point x="198" y="528" type="curve" smooth="yes"/>
      <point x="240" y="528"/>
      <point x="261" y="482"/>
      <point x="261" y="421" type="curve" smooth="yes"/>
      <point x="261" y="356"/>
      <point x="240" y="312"/>
      <point x="198" y="312" type="curve" smooth="yes"/>
      <point x="156" y="312"/>
      <point x="136" y="356"/>
      <point x="136" y="421" type="curve" smooth="yes"/>
      <point x="136" y="482"/>
      <point x="156" y="528"/>
    </contour>
  </outline>
</glyph>
<glyph name="colon" format="1">
  <advance width="241"/>
  <unicode hex="003A"/>
  <outline>
    <contour>
      <point x="49" y="465" type="line"/>
      <point x="49" y="344" type="line"/>
      <point x="171" y="344" type="line"/>
      <point x="171" y="465" type="line"/>
    </contour>
    <contour>
      <point x="49" y="121" type="line"/>
      <point x="49" y="0" type="line"/>
      <point x="171" y="0" type="line"/>
      <point x="171" y="121" type="line"/>
    </contour>
  </outline>
</glyph>
<glyph name="less" format="1">
  <advance width="423"/>
  <unicode hex="003C"/>
  <outline>
    <contour>
      <point x="394" y="96" type="line"/>
      <point x="119" y="231" type="line"/>
      <point x="394" y="365" type="line"/>
      <point x="394" y="469" type="line"/>
      <point x="30" y="286" type="line"/>
      <point x="30" y="174" type="line"/>
      <point x="394" y="-8" type="line"/>
    </contour>
  </outline>
</glyph>
<glyph name="equal" format="1">
  <advance width="423"/>
  <unicode hex="003D"/>
  <outline>
    <contour>
      <point x="393" y="272" type="line"/>
      <point x="393" y="364" type="line"/>
      <point x="29" y="364" type="line"/>
      <point x="29" y="272" type="line"/>
    </contour>
    <contour>
      <point x="393" y="85" type="line"/>
      <point x="393" y="176" type="line"/>
      <point x="29" y="176" type="line"/>
      <point x="29" y="85" type="line"/>
    </contour>
  </outline>
</glyph>
<glyph name="greater" format="1">
  <advance width="423"/>
  <unicode hex="003E"/>
  <outline>
    <contour>
      <point x="30" y="-8" type="line"/>
      <point x="394" y="174" type="line"/>
      <point x="394" y="286" type="line"/>
      <point x="30" y="469" type="line"/>
      <point x="30" y="365" type="line"/>
      <point x="305" y="231" type="line"/>
      <point x="30" y="96" type="line"/>
    </contour>
  </outline>
</glyph>
<glyph name="at" format="1">
  <advance width="707"/>
  <unicode hex="0040"/>
  <outline>
    <contour>
      <point x="477" y="-46" type="line"/>
      <point x="446" y="-62"/>
      <point x="376" y="-74"/>
      <point x="336" y="-74" type="curve" smooth="yes"/>
      <point x="165" y="-74"/>
      <point x="87" y="28"/>
      <point x="87" y="231" type="curve" smooth="yes"/>
      <point x="87" y="450"/>
      <point x="193" y="556"/>
      <point x="363" y="556" type="curve" smooth="yes"/>
      <point x="515" y="556"/>
      <point x="621" y="476"/>
      <point x="621" y="285" type="curve" smooth="yes"/>
      <point x="621" y="146"/>
      <point x="575" y="101"/>
      <point x="535" y="101" type="curve" smooth="yes"/>
      <point x="518" y="101"/>
      <point x="508" y="110"/>
      <point x="508" y="134" type="curve" smooth="yes"/>
      <point x="508" y="336" type="line" smooth="yes"/>
      <point x="508" y="415"/>
      <point x="462" y="461"/>
      <point x="364" y="461" type="curve" smooth="yes"/>
      <point x="278" y="461"/>
      <point x="222" y="414"/>
      <point x="222" y="344" type="curve" smooth="yes"/>
      <point x="222" y="336"/>
      <point x="222" y="331"/>
      <point x="223" y="326" type="curve"/>
      <point x="316" y="326" type="line"/>
      <point x="316" y="338" type="line" smooth="yes"/>
      <point x="316" y="358"/>
      <point x="327" y="382"/>
      <point x="367" y="382" type="curve" smooth="yes"/>
      <point x="404" y="382"/>
      <point x="411" y="359"/>
      <point x="411" y="330" type="curve" smooth="yes"/>
      <point x="411" y="286" type="line"/>
      <point x="288" y="286"/>
      <point x="202" y="252"/>
      <point x="202" y="138" type="curve" smooth="yes"/>
      <point x="202" y="41"/>
      <point x="268" y="19"/>
      <point x="308" y="19" type="curve" smooth="yes"/>
      <point x="363" y="19"/>
      <point x="390" y="41"/>
      <point x="414" y="75" type="curve"/>
      <point x="418" y="75" type="line"/>
      <point x="431" y="42"/>
      <point x="452" y="19"/>
      <point x="510" y="19" type="curve" smooth="yes"/>
      <point x="583" y="19"/>
      <point x="686" y="83"/>
      <point x="686" y="284" type="curve" smooth="yes"/>
      <point x="686" y="521"/>
      <point x="549" y="617"/>
      <point x="364" y="617" type="curve" smooth="yes"/>
      <point x="179" y="617"/>
      <point x="22" y="514"/>
      <point x="22" y="232" type="curve" smooth="yes"/>
      <point x="22" y="-24"/>
      <point x="142" y="-135"/>
      <point x="336" y="-135" type="curve" smooth="yes"/>
      <point x="373" y="-135"/>
      <point x="441" y="-126"/>
      <point x="477" y="-111" type="curve"/>
    </contour>
    <contour>
      <point x="411" y="192" type="line" smooth="yes"/>
      <point x="411" y="142"/>
      <point x="393" y="100"/>
      <point x="347" y="100" type="curve" smooth="yes"/>
      <point x="315" y="100"/>
      <point x="301" y="118"/>
      <point x="301" y="147" type="curve" smooth="yes"/>
      <point x="301" y="202"/>
      <point x="354" y="216"/>
      <point x="411" y="216" type="curve"/>
    </contour>
  </outline>
</glyph>
<glyph name="D" format="1">
  <advance width="523"/>
  <unicode hex="0044"/>
  <outline>
    <contour>
      <point x="262" y="303" type="move" name="center"/>
    </contour>
    <contour>
      <point x="262" y="606" type="move" name="top"/>
    </contour>
    <contour>
      <point x="53" y="606" type="line"/>
      <point x="53" y="0" type="line"/>
      <point x="250" y="0" type="line" smooth="yes"/>
      <point x="401" y="0"/>
      <point x="493" y="104"/>
      <point x="493" y="312" type="curve" smooth="yes"/>
      <point x="493" y="507"/>
      <point x="401" y="606"/>
      <point x="250" y="606" type="curve" smooth="yes"/>
    </contour>
    <contour>
      <point x="166" y="101" type="line"/>
      <point x="166" y="506" type="line"/>
      <point x="240" y="506" type="line" smooth="yes"/>
      <point x="324" y="506"/>
      <point x="377" y="448"/>
      <point x="377" y="334" type="curve" smooth="yes"/>
      <point x="377" y="290" type="line" smooth="yes"/>
      <point x="377" y="164"/>
      <point x="324" y="101"/>
      <point x="240" y="101" type="curve" smooth="yes"/>
    </contour>
  </outline>
</glyph>
<glyph name="E" format="1">
  <advance width="484"/>
  <unicode hex="0045"/>
  <outline>
    <contour>
      <point x="242" y="0" type="move" name="bottom"/>
    </contour>
    <contour>
      <point x="435" y="9" type="move" name="ogonek"/>
    </contour>
    <contour>
      <point x="242" y="606" type="move" name="top"/>
    </contour>
    <contour>
      <point x="53" y="606" type="line"/>
      <point x="53" y="0" type="line"/>
      <point x="445" y="0" type="line"/>
      <point x="445" y="101" type="line"/>
      <point x="166" y="101" type="line"/>
      <point x="166" y="260" type="line"/>
      <point x="400" y="260" type="line"/>
      <point x="400" y="361" type="line"/>
      <point x="166" y="361" type="line"/>
      <point x="166" y="506" type="line"/>
      <point x="439" y="506" type="line"/>
      <point x="439" y="606" type="line"/>
    </contour>
  </outline>
</glyph>
<glyph name="F" format="1">
  <advance width="443"/>
  <unicode hex="0046"/>
  <outline>
    <contour>
      <point x="53" y="0" type="line"/>
      <point x="166" y="0" type="line"/>
      <point x="166" y="252" type="line"/>
      <point x="374" y="252" type="line"/>
      <point x="374" y="353" type="line"/>
      <point x="166" y="353" type="line"/>
      <point x="166" y="506" type="line"/>
      <point x="409" y="506" type="line"/>
      <point x="409" y="606" type="line"/>
      <point x="53" y="606" type="line"/>
    </contour>
  </outline>
</glyph>
<glyph name="H" format="1">
  <advance width="523"/>
  <unicode hex="0048"/>
  <outline>
    <contour>
      <point x="262" y="303" type="move" name="center"/>
    </contour>
    <contour>
      <point x="262" y="606" type="move" name="top"/>
    </contour>
    <contour>
      <point x="470" y="0" type="line"/>
      <point x="470" y="606" type="line"/>
      <point x="357" y="606" type="line"/>
      <point x="357" y="361" type="line"/>
      <point x="166" y="361" type="line"/>
      <point x="166" y="606" type="line"/>
      <point x="53" y="606" type="line"/>
      <point x="53" y="0" type="line"/>
      <point x="166" y="0" type="line"/>
      <point x="166" y="260" type="line"/>
      <point x="357" y="260" type="line"/>
      <point x="357" y="0" type="line"/>
    </contour>
  </outline>
</glyph>
<glyph name="I" format="1">
  <advance width="202"/>
  <unicode hex="0049"/>
  <outline>
    <contour>
      <point x="181" y="9" type="move" name="ogonek"/>
    </contour>
    <contour>
      <point x="101" y="606" type="move" name="top"/>
    </contour>
    <contour>
      <point x="44" y="606" type="line"/>
      <point x="44" y="0" type="line"/>
      <point x="157" y="0" type="line"/>
      <point x="157" y="606" type="line"/>
    </contour>
  </outline>
</glyph>
<glyph name="J" format="1">
  <advance width="403"/>
  <unicode hex="004A"/>
  <outline>
    <contour>
      <point x="350" y="606" type="line"/>
      <point x="237" y="606" type="line"/>
      <point x="237" y="153" type="line" smooth="yes"/>
      <point x="237" y="110"/>
      <point x="217" y="87"/>
      <point x="179" y="87" type="curve" smooth="yes"/>
      <point x="141" y="87"/>
      <point x="120" y="110"/>
      <point x="120" y="153" type="curve" smooth="yes"/>
      <point x="120" y="191" type="line"/>
      <point x="8" y="191" type="line"/>
      <point x="8" y="144" type="line" smooth="yes"/>
      <point x="8" y="43"/>
      <point x="70" y="-11"/>
      <point x="179" y="-11" type="curve" smooth="yes"/>
      <point x="289" y="-11"/>
      <point x="350" y="43"/>
      <point x="350" y="144" type="curve" smooth="yes"/>
    </contour>
    <contour>
      <point x="202" y="606" type="move" name="top"/>
    </contour>
  </outline>
</glyph>
<glyph name="K" format="1">
  <advance width="523"/>
  <unicode hex="004B"/>
  <outline>
    <contour>
      <point x="262" y="0" type="move" name="bottom"/>
    </contour>
    <contour>
      <point x="262" y="606" type="move" name="top"/>
    </contour>
    <contour>
      <point x="389" y="606" type="line"/>
      <point x="167" y="296" type="line"/>
      <point x="167" y="606" type="line"/>
      <point x="53" y="606" type="line"/>
      <point x="53" y="0" type="line"/>
      <point x="167" y="0" type="line"/>
      <point x="167" y="155" type="line"/>
      <point x="262" y="271" type="line"/>
      <point x="393" y="0" type="line"/>
      <point x="521" y="0" type="line"/>
      <point x="336" y="360" type="line"/>
      <point x="515" y="606" type="line"/>
    </contour>
  </outline>
</glyph>
<glyph name="P" format="1">
  <advance width="484"/>
  <unicode hex="0050"/>
  <outline>
    <contour>
      <point x="166" y="235" type="line"/>
      <point x="270" y="235" type="line" smooth="yes"/>
      <point x="384" y="235"/>
      <point x="460" y="310"/>
      <point x="460" y="424" type="curve" smooth="yes"/>
      <point x="460" y="530"/>
      <point x="395" y="606"/>
      <point x="270" y="606" type="curve" smooth="yes"/>
      <point x="53" y="606" type="line"/>
      <point x="53" y="0" type="line"/>
      <point x="166" y="0" type="line"/>
    </contour>
    <contour>
      <point x="166" y="506" type="line"/>
      <point x="258" y="506" type="line" smooth="yes"/>
      <point x="312" y="506"/>
      <point x="343" y="474"/>
      <point x="343" y="424" type="curve" smooth="yes"/>
      <point x="343" y="369"/>
      <point x="313" y="335"/>
      <point x="258" y="335" type="curve" smooth="yes"/>
      <point x="166" y="335" type="line"/>
    </contour>
  </outline>
</glyph>
<glyph name="Q" format="1">
  <advance width="564"/>
  <unicode hex="0051"/>
  <outline>
    <contour>
      <point x="293" y="-11" type="line"/>
      <point x="380" y="-110" type="line"/>
      <point x="519" y="-110" type="line"/>
      <point x="402" y="15" type="line"/>
      <point x="485" y="57"/>
      <point x="534" y="151"/>
      <point x="534" y="303" type="curve" smooth="yes"/>
      <point x="534" y="517"/>
      <point x="438" y="617"/>
      <point x="282" y="617" type="curve" smooth="yes"/>
      <point x="126" y="617"/>
      <point x="30" y="517"/>
      <point x="30" y="303" type="curve" smooth="yes"/>
      <point x="30" y="89"/>
      <point x="126" y="-11"/>
      <point x="282" y="-11" type="curve" smooth="yes"/>
    </contour>
    <contour>
      <point x="147" y="325" type="line" smooth="yes"/>
      <point x="147" y="446"/>
      <point x="192" y="520"/>
      <point x="282" y="520" type="curve" smooth="yes"/>
      <point x="372" y="520"/>
      <point x="417" y="446"/>
      <point x="417" y="325" type="curve" smooth="yes"/>
      <point x="417" y="281" type="line" smooth="yes"/>
      <point x="417" y="160"/>
      <point x="372" y="87"/>
      <point x="282" y="87" type="curve" smooth="yes"/>
      <point x="192" y="87"/>
      <point x="147" y="160"/>
      <point x="147" y="281" type="curve" smooth="yes"/>
    </contour>
  </outline>
</glyph>
<glyph name="R" format="1">
  <advance width="523"/>
  <unicode hex="0052"/>
  <outline>
    <contour>
      <point x="262" y="0" type="move" name="bottom"/>
    </contour>
    <contour>
      <point x="262" y="606" type="move" name="top"/>
    </contour>
    <contour>
      <point x="53" y="606" type="line"/>
      <point x="53" y="0" type="line"/>
      <point x="166" y="0" type="line"/>
      <point x="166" y="253" type="line"/>
      <point x="284" y="253" type="line"/>
      <point x="385" y="0" type="line"/>
      <point x="507" y="0" type="line"/>
      <point x="391" y="278" type="line"/>
      <point x="453" y="303"/>
      <point x="492" y="360"/>
      <point x="492" y="433" type="curve" smooth="yes"/>
      <point x="492" y="533"/>
      <point x="430" y="606"/>
      <point x="307" y="606" type="curve" smooth="yes"/>
    </contour>
    <contour>
      <point x="166" y="506" type="line"/>
      <point x="295" y="506" type="line"/>
      <point x="347" y="506"/>
      <point x="370" y="477"/>
      <point x="370" y="433" type="curve" smooth="yes"/>
      <point x="370" y="383"/>
      <point x="346" y="353"/>
      <point x="291" y="353" type="curve" smooth="yes"/>
      <point x="166" y="353" type="line"/>
    </contour>
  </outline>
</glyph>
<glyph name="T" format="1">
  <advance width="443"/>
  <unicode hex="0054"/>
  <outline>
    <contour>
      <point x="222" y="0" type="move" name="bottom"/>
    </contour>
    <contour>
      <point x="222" y="303" type="move" name="center"/>
    </contour>
    <contour>
      <point x="222" y="606" type="move" name="top"/>
    </contour>
    <contour>
      <point x="429" y="506" type="line"/>
      <point x="429" y="606" type="line"/>
      <point x="15" y="606" type="line"/>
      <point x="15" y="506" type="line"/>
      <point x="165" y="506" type="line"/>
      <point x="165" y="0" type="line"/>
      <point x="278" y="0" type="line"/>
      <point x="278" y="506" type="line"/>
    </contour>
  </outline>
</glyph>
<glyph name="V" format="1">
  <advance width="484"/>
  <unicode hex="0056"/>
  <outline>
    <contour>
      <point x="299" y="0" type="line"/>
      <point x="484" y="606" type="line"/>
      <point x="373" y="606" type="line"/>
      <point x="248" y="172" type="line"/>
      <point x="244" y="172" type="line"/>
      <point x="117" y="606" type="line"/>
      <point x="0" y="606" type="line"/>
      <point x="185" y="0" type="line"/>
    </contour>
  </outline>
</glyph>
<glyph name="X" format="1">
  <advance width="484"/>
  <unicode hex="0058"/>
  <outline>
    <contour>
      <point x="467" y="606" type="line"/>
      <point x="349" y="606" type="line"/>
      <point x="248" y="408" type="line"/>
      <point x="244" y="408" type="line"/>
      <point x="142" y="606" type="line"/>
      <point x="16" y="606" type="line"/>
      <point x="171" y="318" type="line"/>
      <point x="0" y="0" type="line"/>
      <point x="118" y="0" type="line"/>
      <point x="235" y="229" type="line"/>
      <point x="239" y="229" type="line"/>
      <point x="357" y="0" type="line"/>
      <point x="483" y="0" type="line"/>
      <point x="310" y="320" type="line"/>
    </contour>
  </outline>
</glyph>
<glyph name="Y" format="1">
  <advance width="484"/>
  <unicode hex="0059"/>
  <outline>
    <contour>
      <point x="242" y="606" type="move" name="top"/>
    </contour>
    <contour>
      <point x="299" y="0" type="line"/>
      <point x="299" y="229" type="line"/>
      <point x="484" y="606" type="line"/>
      <point x="370" y="606" type="line"/>
      <point x="247" y="340" type="line"/>
      <point x="243" y="340" type="line"/>
      <point x="119" y="606" type="line"/>
      <point x="0" y="606" type="line"/>
      <point x="186" y="229" type="line"/>
      <point x="186" y="0" type="line"/>
    </contour>
  </outline>
</glyph>
<glyph name="Z" format="1">
  <advance width="443"/>
  <unicode hex="005A"/>
  <outline>
    <contour>
      <point x="222" y="606" type="move" name="top"/>
    </contour>
    <contour>
      <point x="169" y="101" type="line"/>
      <point x="418" y="562" type="line"/>
      <point x="418" y="606" type="line"/>
      <point x="33" y="606" type="line"/>
      <point x="33" y="506" type="line"/>
      <point x="263" y="506" type="line"/>
      <point x="14" y="43" type="line"/>
      <point x="14" y="0" type="line"/>
      <point x="424" y="0" type="line"/>
      <point x="424" y="101" type="line"/>
    </contour>
  </outline>
</glyph>
<glyph name="bracketleft" format="1">
  <advance width="241"/>
  <unicode hex="005B"/>
  <outline>
    <contour>
      <point x="219" y="566" type="line"/>
      <point x="219" y="650" type="line"/>
      <point x="43" y="650" type="line"/>
      <point x="43" y="-142" type="line"/>
      <point x="219" y="-142" type="line"/>
      <point x="219" y="-58" type="line"/>
      <point x="146" y="-58" type="line"/>
      <point x="146" y="566" type="line"/>
    </contour>
  </outline>
</glyph>
<glyph name="asciicircum" format="1">
  <advance width="423"/>
  <unicode hex="005E"/>
  <outline>
    <contour>
      <point x="213" y="499" type="line"/>
      <point x="302" y="260" type="line"/>
      <point x="400" y="260" type="line"/>
      <point x="261" y="606" type="line"/>
      <point x="166" y="606" type="line"/>
      <point x="28" y="260" type="line"/>
      <point x="126" y="260" type="line"/>
    </contour>
  </outline>
</glyph>
<glyph name="grave" format="1">
  <advance width="241"/>
  <unicode hex="0060"/>
  <outline>
    <contour>
      <point x="110" y="465" type="move" name="_top"/>
    </contour>
    <contour>
      <point x="114" y="522" type="line"/>
      <point x="202" y="522" type="line"/>
      <point x="126" y="639" type="line"/>
      <point x="19" y="639" type="line"/>
      <point x="19" y="636" type="line"/>
    </contour>
  </outline>
</glyph>
<glyph name="b" format="1">
  <advance width="443"/>
  <unicode hex="0062"/>
  <outline>
    <contour>
      <point x="155" y="417" type="line"/>
      <point x="155" y="639" type="line"/>
      <point x="49" y="639" type="line"/>
      <point x="49" y="0" type="line"/>
      <point x="137" y="0" type="line"/>
      <point x="148" y="57" type="line"/>
      <point x="152" y="57" type="line"/>
      <point x="175" y="12"/>
      <point x="213" y="-11"/>
      <point x="257" y="-11" type="curve" smooth="yes"/>
      <point x="349" y="-11"/>
      <point x="407" y="65"/>
      <point x="407" y="233" type="curve" smooth="yes"/>
      <point x="407" y="402"/>
      <point x="345" y="476"/>
      <point x="263" y="476" type="curve" smooth="yes"/>
      <point x="216" y="476"/>
      <point x="176" y="454"/>
      <point x="159" y="417" type="curve"/>
    </contour>
    <contour>
      <point x="225" y="379" type="curve" smooth="yes"/>
      <point x="277" y="379"/>
      <point x="296" y="333"/>
      <point x="296" y="249" type="curve" smooth="yes"/>
      <point x="296" y="216" type="line" smooth="yes"/>
      <point x="296" y="132"/>
      <point x="277" y="86"/>
      <point x="225" y="86" type="curve" smooth="yes"/>
      <point x="174" y="86"/>
      <point x="155" y="132"/>
      <point x="155" y="216" type="curve" smooth="yes"/>
      <point x="155" y="248" type="line" smooth="yes"/>
      <point x="155" y="331"/>
      <point x="174" y="379"/>
    </contour>
  </outline>
</glyph>
<glyph name="c" format="1">
  <advance width="403"/>
  <unicode hex="0063"/>
  <outline>
    <contour>
      <point x="94" y="476"/>
      <point x="36" y="400"/>
      <point x="36" y="232" type="curve" smooth="yes"/>
      <point x="36" y="65"/>
      <point x="91" y="-11"/>
      <point x="212" y="-11" type="curve" smooth="yes"/>
      <point x="309" y="-11"/>
      <point x="371" y="45"/>
      <point x="371" y="175" type="curve"/>
      <point x="266" y="175" type="line"/>
      <point x="266" y="111"/>
      <point x="250" y="79"/>
      <point x="212" y="79" type="curve" smooth="yes"/>
      <point x="164" y="79"/>
      <point x="147" y="126"/>
      <point x="147" y="216" type="curve" smooth="yes"/>
      <point x="147" y="249" type="line" smooth="yes"/>
      <point x="147" y="339"/>
      <point x="164" y="386"/>
      <point x="209" y="386" type="curve" smooth="yes"/>
      <point x="245" y="386"/>
      <point x="263" y="355"/>
      <point x="263" y="290" type="curve"/>
      <point x="371" y="290" type="line"/>
      <point x="371" y="420"/>
      <point x="308" y="476"/>
      <point x="209" y="476" type="curve" smooth="yes"/>
    </contour>
    <contour>
      <point x="202" y="465" type="move" name="top"/>
    </contour>
    <contour>
      <point x="202" y="0" type="move" name="bottom"/>
    </contour>
  </outline>
</glyph>
<glyph name="j" format="1">
  <advance width="202"/>
  <unicode hex="006A"/>
  <outline>
    <contour>
      <point x="48" y="639" type="line"/>
      <point x="48" y="543" type="line"/>
      <point x="154" y="543" type="line"/>
      <point x="154" y="639" type="line"/>
    </contour>
    <contour>
      <point x="154" y="465" type="line"/>
      <point x="48" y="465" type="line"/>
      <point x="48" y="-29" type="line" smooth="yes"/>
      <point x="48" y="-57"/>
      <point x="34" y="-72"/>
      <point x="6" y="-72" type="curve" smooth="yes"/>
      <point x="-33" y="-72" type="line"/>
      <point x="-33" y="-150" type="line"/>
      <point x="-14" y="-156"/>
      <point x="19" y="-161"/>
      <point x="46" y="-161" type="curve" smooth="yes"/>
      <point x="131" y="-161"/>
      <point x="154" y="-98"/>
      <point x="154" y="-36" type="curve" smooth="yes"/>
    </contour>
  </outline>
</glyph>
<glyph name="k" format="1">
  <advance width="403"/>
  <unicode hex="006B"/>
  <outline>
    <contour>
      <point x="202" y="0" type="move" name="bottom"/>
    </contour>
    <contour>
      <point x="284" y="465" type="line"/>
      <point x="154" y="280" type="line"/>
      <point x="154" y="639" type="line"/>
      <point x="48" y="639" type="line"/>
      <point x="48" y="0" type="line"/>
      <point x="154" y="0" type="line"/>
      <point x="154" y="145" type="line"/>
      <point x="193" y="193" type="line"/>
      <point x="286" y="0" type="line"/>
      <point x="404" y="0" type="line"/>
      <point x="259" y="276" type="line"/>
      <point x="397" y="465" type="line"/>
    </contour>
  </outline>
</glyph>
<glyph name="l" format="1">
  <advance width="202"/>
  <unicode hex="006C"/>
  <outline>
    <contour>
      <point x="154" y="0" type="line"/>
      <point x="154" y="639" type="line"/>
      <point x="48" y="639" type="line"/>
      <point x="48" y="0" type="line"/>
    </contour>
    <contour>
      <point x="101" y="465" type="move" name="top"/>
    </contour>
    <contour>
      <point x="101" y="0" type="move" name="bottom"/>
    </contour>
    <contour>
      <point x="184" y="465" type="move" name="topright"/>
    </contour>
  </outline>
</glyph>
<glyph name="p" format="1">
  <advance width="443"/>
  <unicode hex="0070"/>
  <outline>
    <contour>
      <point x="257" y="476" type="curve" smooth="yes"/>
      <point x="213" y="476"/>
      <point x="175" y="453"/>
      <point x="152" y="408" type="curve"/>
      <point x="148" y="408" type="line"/>
      <point x="137" y="465" type="line"/>
      <point x="49" y="465" type="line"/>
      <point x="49" y="-153" type="line"/>
      <point x="155" y="-153" type="line"/>
      <point x="155" y="48" type="line"/>
      <point x="159" y="48" type="line"/>
      <point x="176" y="11"/>
      <point x="216" y="-11"/>
      <point x="263" y="-11" type="curve" smooth="yes"/>
      <point x="345" y="-11"/>
      <point x="407" y="63"/>
      <point x="407" y="232" type="curve" smooth="yes"/>
      <point x="407" y="400"/>
      <point x="349" y="476"/>
    </contour>
    <contour>
      <point x="225" y="379" type="curve" smooth="yes"/>
      <point x="277" y="379"/>
      <point x="296" y="333"/>
      <point x="296" y="249" type="curve" smooth="yes"/>
      <point x="296" y="216" type="line" smooth="yes"/>
      <point x="296" y="132"/>
      <point x="277" y="86"/>
      <point x="225" y="86" type="curve" smooth="yes"/>
      <point x="174" y="86"/>
      <point x="155" y="133"/>
      <point x="155" y="217" type="curve" smooth="yes"/>
      <point x="155" y="249" type="line" smooth="yes"/>
      <point x="155" y="333"/>
      <point x="174" y="379"/>
    </contour>
  </outline>
</glyph>
<glyph name="s" format="1">
  <advance width="403"/>
  <unicode hex="0073"/>
  <outline>
    <contour>
      <point x="202" y="0" type="move" name="bottom"/>
    </contour>
    <contour>
      <point x="202" y="465" type="move" name="top"/>
    </contour>
    <contour>
      <point x="138" y="148" type="line"/>
      <point x="30" y="148" type="line"/>
      <point x="30" y="148"/>
      <point x="29" y="141"/>
      <point x="29" y="137" type="curve" smooth="yes"/>
      <point x="29" y="49"/>
      <point x="91" y="-11"/>
      <point x="198" y="-11" type="curve" smooth="yes"/>
      <point x="297" y="-11"/>
      <point x="371" y="27"/>
      <point x="371" y="140" type="curve" smooth="yes"/>
      <point x="371" y="324"/>
      <point x="144" y="253"/>
      <point x="144" y="343" type="curve" smooth="yes"/>
      <point x="144" y="371"/>
      <point x="166" y="389"/>
      <point x="199" y="389" type="curve" smooth="yes"/>
      <point x="231" y="389"/>
      <point x="250" y="370"/>
      <point x="251" y="331" type="curve" smooth="yes"/>
      <point x="251" y="329" type="line"/>
      <point x="359" y="329" type="line"/>
      <point x="359" y="330"/>
      <point x="360" y="339"/>
      <point x="360" y="349" type="curve" smooth="yes"/>
      <point x="360" y="429"/>
      <point x="291" y="476"/>
      <point x="202" y="476" type="curve" smooth="yes"/>
      <point x="110" y="476"/>
      <point x="36" y="429"/>
      <point x="36" y="334" type="curve" smooth="yes"/>
      <point x="36" y="155"/>
      <point x="263" y="225"/>
      <point x="263" y="126" type="curve" smooth="yes"/>
      <point x="263" y="88"/>
      <point x="230" y="76"/>
      <point x="202" y="76" type="curve" smooth="yes"/>
      <point x="171" y="76"/>
      <point x="139" y="92"/>
      <point x="138" y="141" type="curve" smooth="yes"/>
    </contour>
  </outline>
</glyph>
<glyph name="v" format="1">
  <advance width="403"/>
  <unicode hex="0076"/>
  <outline>
    <contour>
      <point x="255" y="0" type="line"/>
      <point x="400" y="465" type="line"/>
      <point x="293" y="465" type="line"/>
      <point x="234" y="265" type="line" smooth="yes"/>
      <point x="221" y="219"/>
      <point x="217" y="172"/>
      <point x="208" y="126" type="curve"/>
      <point x="204" y="126" type="line"/>
      <point x="194" y="172"/>
      <point x="189" y="219"/>
      <point x="175" y="265" type="curve" smooth="yes"/>
      <point x="115" y="465" type="line"/>
      <point x="4" y="465" type="line"/>
      <point x="148" y="0" type="line"/>
    </contour>
  </outline>
</glyph>
<glyph name="bar" format="1">
  <advance width="203"/>
  <unicode hex="007C"/>
  <outline>
    <contour>
      <point x="62" y="639" type="line"/>
      <point x="62" y="-153" type="line"/>
      <point x="141" y="-153" type="line"/>
      <point x="141" y="639" type="line"/>
    </contour>
  </outline>
</glyph>
<glyph name="asciitilde" format="1">
  <advance width="423"/>
  <unicode hex="007E"/>
  <outline>
    <contour>
      <point x="400" y="355" type="line"/>
      <point x="400" y="355"/>
      <point x="354" y="291"/>
      <point x="291" y="291" type="curve" smooth="yes"/>
      <point x="232" y="291"/>
      <point x="189" y="345"/>
      <point x="133" y="345" type="curve" smooth="yes"/>
      <point x="60" y="345"/>
      <point x="24" y="280"/>
      <point x="24" y="280" type="curve"/>
      <point x="24" y="174" type="line"/>
      <point x="24" y="174"/>
      <point x="69" y="239"/>
      <point x="133" y="239" type="curve" smooth="yes"/>
      <point x="191" y="239"/>
      <point x="234" y="185"/>
      <point x="291" y="185" type="curve" smooth="yes"/>
      <point x="363" y="185"/>
      <point x="400" y="249"/>
      <point x="400" y="249" type="curve"/>
    </contour>
  </outline>
</glyph>
<glyph name="exclamdown" format="1">
  <advance width="241"/>
  <unicode hex="00A1"/>
  <outline>
    <contour>
      <point x="60" y="344" type="line"/>
      <point x="182" y="344" type="line"/>
      <point x="182" y="465" type="line"/>
      <point x="60" y="465" type="line"/>
    </contour>
    <contour>
      <point x="84" y="291" type="line"/>
      <point x="73" y="147"/>
      <point x="64" y="3"/>
      <point x="53" y="-141" type="curve"/>
      <point x="188" y="-141" type="line"/>
      <point x="178" y="3"/>
      <point x="167" y="147"/>
      <point x="156" y="291" type="curve"/>
    </contour>
  </outline>
</glyph>
<glyph name="section" format="1">
  <advance width="403"/>
  <unicode hex="00A7"/>
  <outline>
    <contour>
      <point x="154" y="-14" type="line"/>
      <point x="46" y="-14" type="line"/>
      <point x="46" y="-15"/>
      <point x="45" y="-25"/>
      <point x="45" y="-34" type="curve" smooth="yes"/>
      <point x="45" y="-114"/>
      <point x="114" y="-161"/>
      <point x="202" y="-161" type="curve" smooth="yes"/>
      <point x="297" y="-161"/>
      <point x="369" y="-114"/>
      <point x="369" y="-19" type="curve" smooth="yes"/>
      <point x="369" y="32"/>
      <point x="350" y="66"/>
      <point x="324" y="93" type="curve"/>
      <point x="361" y="125"/>
      <point x="381" y="171"/>
      <point x="381" y="219" type="curve" smooth="yes"/>
      <point x="381" y="397"/>
      <point x="153" y="366"/>
      <point x="153" y="484" type="curve" smooth="yes"/>
      <point x="153" y="513"/>
      <point x="175" y="530"/>
      <point x="208" y="530" type="curve" smooth="yes"/>
      <point x="239" y="530"/>
      <point x="259" y="513"/>
      <point x="260" y="472" type="curve" smooth="yes"/>
      <point x="260" y="470" type="line"/>
      <point x="368" y="470" type="line"/>
      <point x="368" y="471"/>
      <point x="369" y="481"/>
      <point x="369" y="491" type="curve" smooth="yes"/>
      <point x="369" y="570"/>
      <point x="300" y="617"/>
      <point x="211" y="617" type="curve" smooth="yes"/>
      <point x="117" y="617"/>
      <point x="45" y="570"/>
      <point x="45" y="476" type="curve" smooth="yes"/>
      <point x="45" y="423"/>
      <point x="64" y="389"/>
      <point x="90" y="363" type="curve"/>
      <point x="53" y="331"/>
      <point x="33" y="284"/>
      <point x="33" y="237" type="curve" smooth="yes"/>
      <point x="33" y="59"/>
      <point x="261" y="90"/>
      <point x="261" y="-28" type="curve" smooth="yes"/>
      <point x="261" y="-57"/>
      <point x="239" y="-74"/>
      <point x="206" y="-74" type="curve" smooth="yes"/>
      <point x="174" y="-74"/>
      <point x="155" y="-57"/>
      <point x="154" y="-16" type="curve" smooth="yes"/>
    </contour>
    <contour>
      <point x="156" y="317" type="curve"/>
      <point x="215" y="284"/>
      <point x="277" y="259"/>
      <point x="277" y="188" type="curve" smooth="yes"/>
      <point x="277" y="170"/>
      <point x="269" y="152"/>
      <point x="257" y="138" type="curve"/>
      <point x="198" y="171"/>
      <point x="137" y="197"/>
      <point x="137" y="268" type="curve" smooth="yes"/>
      <point x="137" y="286"/>
      <point x="145" y="303"/>
    </contour>
  </outline>
</glyph>
<glyph name="copyright" format="1">
  <advance width="534"/>
  <unicode hex="00A9"/>
  <outline>
    <contour>
      <point x="267" y="617" type="curve" smooth="yes"/>
      <point x="110" y="617"/>
      <point x="14" y="494"/>
      <point x="14" y="303" type="curve" smooth="yes"/>
      <point x="14" y="112"/>
      <point x="110" y="-11"/>
      <point x="267" y="-11" type="curve" smooth="yes"/>
      <point x="424" y="-11"/>
      <point x="520" y="112"/>
      <point x="520" y="303" type="curve" smooth="yes"/>
      <point x="520" y="494"/>
      <point x="424" y="617"/>
    </contour>
    <contour>
      <point x="267" y="568" type="curve" smooth="yes"/>
      <point x="393" y="568"/>
      <point x="470" y="465"/>
      <point x="470" y="303" type="curve" smooth="yes"/>
      <point x="470" y="141"/>
      <point x="393" y="38"/>
      <point x="267" y="38" type="curve" smooth="yes"/>
      <point x="141" y="38"/>
      <point x="64" y="141"/>
      <point x="64" y="303" type="curve" smooth="yes"/>
      <point x="64" y="465"/>
      <point x="141" y="568"/>
    </contour>
    <contour>
      <point x="326" y="257" type="line"/>
      <point x="326" y="208"/>
      <point x="304" y="185"/>
      <point x="271" y="185" type="curve" smooth="yes"/>
      <point x="226" y="185"/>
      <point x="204" y="225"/>
      <point x="204" y="291" type="curve" smooth="yes"/>
      <point x="204" y="316" type="line" smooth="yes"/>
      <point x="204" y="383"/>
      <point x="225" y="423"/>
      <point x="269" y="423" type="curve" smooth="yes"/>
      <point x="301" y="423"/>
      <point x="324" y="399"/>
      <point x="324" y="349" type="curve"/>
      <point x="400" y="349" type="line"/>
      <point x="400" y="446"/>
      <point x="344" y="489"/>
      <point x="269" y="489" type="curve" smooth="yes"/>
      <point x="179" y="489"/>
      <point x="126" y="430"/>
      <point x="126" y="303" type="curve" smooth="yes"/>
      <point x="126" y="177"/>
      <point x="179" y="118"/>
      <point x="269" y="118" type="curve" smooth="yes"/>
      <point x="345" y="118"/>
      <point x="400" y="164"/>
      <point x="400" y="257" type="curve"/>
    </contour>
  </outline>
</glyph>
<glyph name="ordfeminine" format="1">
  <advance width="268"/>
  <unicode hex="00AA"/>
  <outline>
    <contour>
      <point x="69" y="649"/>
      <point x="27" y="614"/>
      <point x="27" y="561" type="curve" smooth="yes"/>
      <point x="27" y="556"/>
      <point x="27" y="552"/>
      <point x="28" y="549" type="curve"/>
      <point x="102" y="549" type="line"/>
      <point x="102" y="558" type="line" smooth="yes"/>
      <point x="102" y="571"/>
      <point x="109" y="587"/>
      <point x="135" y="587" type="curve" smooth="yes"/>
      <point x="160" y="587"/>
      <point x="164" y="571"/>
      <point x="164" y="552" type="curve" smooth="yes"/>
      <point x="164" y="519" type="line"/>
      <point x="75" y="519"/>
      <point x="12" y="493"/>
      <point x="12" y="409" type="curve" smooth="yes"/>
      <point x="12" y="336"/>
      <point x="62" y="321"/>
      <point x="91" y="321" type="curve" smooth="yes"/>
      <point x="133" y="321"/>
      <point x="153" y="337"/>
      <point x="171" y="362" type="curve"/>
      <point x="174" y="362" type="line"/>
      <point x="181" y="338"/>
      <point x="201" y="321"/>
      <point x="229" y="321" type="curve" smooth="yes"/>
      <point x="250" y="321"/>
      <point x="263" y="326"/>
      <point x="271" y="330" type="curve"/>
      <point x="271" y="385" type="line"/>
      <point x="257" y="385" type="line" smooth="yes"/>
      <point x="248" y="385"/>
      <point x="240" y="391"/>
      <point x="240" y="406" type="curve" smooth="yes"/>
      <point x="240" y="556" type="line" smooth="yes"/>
      <point x="240" y="615"/>
      <point x="206" y="649"/>
      <point x="133" y="649" type="curve" smooth="yes"/>
    </contour>
    <contour>
      <point x="164" y="449" type="line"/>
      <point x="164" y="414"/>
      <point x="152" y="384"/>
      <point x="121" y="384" type="curve" smooth="yes"/>
      <point x="99" y="384"/>
      <point x="89" y="396"/>
      <point x="89" y="415" type="curve" smooth="yes"/>
      <point x="89" y="456"/>
      <point x="126" y="467"/>
      <point x="164" y="467" type="curve"/>
    </contour>
  </outline>
</glyph>
<glyph name="logicalnot" format="1">
  <advance width="423"/>
  <unicode hex="00AC"/>
  <outline>
    <contour>
      <point x="301" y="165" type="line"/>
      <point x="393" y="165" type="line"/>
      <point x="393" y="409" type="line"/>
      <point x="26" y="409" type="line"/>
      <point x="26" y="309" type="line"/>
      <point x="301" y="309" type="line"/>
    </contour>
  </outline>
</glyph>
<glyph name="registered" format="1">
  <advance width="534"/>
  <unicode hex="00AE"/>
  <outline>
    <contour>
      <point x="110" y="617"/>
      <point x="14" y="494"/>
      <point x="14" y="303" type="curve" smooth="yes"/>
      <point x="14" y="112"/>
      <point x="110" y="-11"/>
      <point x="267" y="-11" type="curve" smooth="yes"/>
      <point x="424" y="-11"/>
      <point x="520" y="112"/>
      <point x="520" y="303" type="curve" smooth="yes"/>
      <point x="520" y="494"/>
      <point x="424" y="617"/>
      <point x="267" y="617" type="curve" smooth="yes"/>
    </contour>
    <contour>
      <point x="393" y="568"/>
      <point x="470" y="465"/>
      <point x="470" y="303" type="curve" smooth="yes"/>
      <point x="470" y="141"/>
      <point x="393" y="38"/>
      <point x="267" y="38" type="curve" smooth="yes"/>
      <point x="141" y="38"/>
      <point x="64" y="141"/>
      <point x="64" y="303" type="curve" smooth="yes"/>
      <point x="64" y="465"/>
      <point x="141" y="568"/>
      <point x="267" y="568" type="curve" smooth="yes"/>
    </contour>
    <contour>
      <point x="154" y="483" type="line"/>
      <point x="154" y="124" type="line"/>
      <point x="230" y="124" type="line"/>
      <point x="230" y="270" type="line"/>
      <point x="262" y="270" type="line" smooth="yes"/>
      <point x="287" y="270"/>
      <point x="314" y="254"/>
      <point x="314" y="189" type="curve" smooth="yes"/>
      <point x="314" y="134"/>
      <point x="347" y="121"/>
      <point x="381" y="121" type="curve" smooth="yes"/>
      <point x="392" y="121"/>
      <point x="410" y="125"/>
      <point x="415" y="128" type="curve"/>
      <point x="415" y="146" type="line"/>
      <point x="400" y="151"/>
      <point x="390" y="165"/>
      <point x="390" y="210" type="curve" smooth="yes"/>
      <point x="390" y="278"/>
      <point x="355" y="299"/>
      <point x="338" y="305" type="curve"/>
      <point x="338" y="309" type="line"/>
      <point x="369" y="320"/>
      <point x="393" y="346"/>
      <point x="393" y="392" type="curve" smooth="yes"/>
      <point x="393" y="446"/>
      <point x="351" y="483"/>
      <point x="293" y="483" type="curve" smooth="yes"/>
    </contour>
    <contour>
      <point x="230" y="414" type="line"/>
      <point x="269" y="414" type="line" smooth="yes"/>
      <point x="297" y="414"/>
      <point x="316" y="400"/>
      <point x="316" y="378" type="curve" smooth="yes"/>
      <point x="316" y="354"/>
      <point x="295" y="338"/>
      <point x="266" y="338" type="curve" smooth="yes"/>
      <point x="230" y="338" type="line"/>
    </contour>
  </outline>
</glyph>
<glyph name="macron" format="1">
  <advance width="241"/>
  <unicode hex="00AF"/>
  <outline>
    <contour>
      <point x="121" y="465" type="move" name="_top"/>
    </contour>
    <contour>
      <point x="8" y="530" type="line"/>
      <point x="233" y="530" type="line"/>
      <point x="233" y="606" type="line"/>
      <point x="8" y="606" type="line"/>
    </contour>
  </outline>
</glyph>
<glyph name="degree" format="1">
  <advance width="354"/>
  <unicode hex="00B0"/>
  <outline>
    <contour>
      <point x="105" y="617"/>
      <point x="50" y="561"/>
      <point x="50" y="492" type="curve" smooth="yes"/>
      <point x="50" y="422"/>
      <point x="105" y="366"/>
      <point x="175" y="366" type="curve" smooth="yes"/>
      <point x="245" y="366"/>
      <point x="301" y="422"/>
      <point x="301" y="492" type="curve" smooth="yes"/>
      <point x="301" y="561"/>
      <point x="245" y="617"/>
      <point x="175" y="617" type="curve" smooth="yes"/>
    </contour>
    <contour>
      <point x="211" y="556"/>
      <point x="240" y="528"/>
      <point x="240" y="492" type="curve" smooth="yes"/>
      <point x="240" y="455"/>
      <point x="211" y="426"/>
      <point x="175" y="426" type="curve" smooth="yes"/>
      <point x="139" y="426"/>
      <point x="110" y="455"/>
      <point x="110" y="492" type="curve" smooth="yes"/>
      <point x="110" y="528"/>
      <point x="139" y="556"/>
      <point x="175" y="556" type="curve" smooth="yes"/>
    </contour>
  </outline>
</glyph>
<glyph name="plusminus" format="1">
  <advance width="485"/>
  <unicode hex="00B1"/>
  <outline>
    <contour>
      <point x="287" y="372" type="line"/>
      <point x="287" y="526" type="line"/>
      <point x="196" y="526" type="line"/>
      <point x="196" y="372" type="line"/>
      <point x="60" y="372" type="line"/>
      <point x="60" y="280" type="line"/>
      <point x="196" y="280" type="line"/>
      <point x="196" y="127" type="line"/>
      <point x="287" y="127" type="line"/>
      <point x="287" y="280" type="line"/>
      <point x="424" y="280" type="line"/>
      <point x="424" y="372" type="line"/>
    </contour>
    <contour>
      <point x="424" y="0" type="line"/>
      <point x="424" y="91" type="line"/>
      <point x="60" y="91" type="line"/>
      <point x="60" y="0" type="line"/>
    </contour>
  </outline>
</glyph>
<glyph name="twosuperior" format="1">
  <advance width="241"/>
  <unicode hex="00B2"/>
  <outline>
    <contour>
      <point x="123" y="649" type="curve" smooth="yes"/>
      <point x="66" y="649"/>
      <point x="17" y="617"/>
      <point x="17" y="537" type="curve" smooth="yes"/>
      <point x="17" y="525"/>
      <point x="19" y="514"/>
      <point x="19" y="514" type="curve"/>
      <point x="89" y="514" type="line"/>
      <point x="89" y="538" type="line" smooth="yes"/>
      <point x="89" y="565"/>
      <point x="99" y="587"/>
      <point x="120" y="587" type="curve" smooth="yes"/>
      <point x="142" y="587"/>
      <point x="149" y="569"/>
      <point x="149" y="554" type="curve" smooth="yes"/>
      <point x="149" y="509"/>
      <point x="118" y="474"/>
      <point x="80" y="432" type="curve" smooth="yes"/>
      <point x="48" y="394"/>
      <point x="13" y="355"/>
      <point x="13" y="299" type="curve" smooth="yes"/>
      <point x="13" y="283" type="line"/>
      <point x="224" y="283" type="line"/>
      <point x="224" y="348" type="line"/>
      <point x="102" y="348" type="line"/>
      <point x="110" y="361"/>
      <point x="119" y="372"/>
      <point x="128" y="385" type="curve" smooth="yes"/>
      <point x="171" y="436"/>
      <point x="222" y="484"/>
      <point x="222" y="553" type="curve" smooth="yes"/>
      <point x="222" y="621"/>
      <point x="178" y="649"/>
    </contour>
  </outline>
</glyph>
<glyph name="threesuperior" format="1">
  <advance width="241"/>
  <unicode hex="00B3"/>
  <outline>
    <contour>
      <point x="119" y="649" type="curve" smooth="yes"/>
      <point x="60" y="649"/>
      <point x="19" y="609"/>
      <point x="19" y="548" type="curve" smooth="yes"/>
      <point x="19" y="530" type="line"/>
      <point x="91" y="530" type="line"/>
      <point x="91" y="544" type="line" smooth="yes"/>
      <point x="91" y="574"/>
      <point x="102" y="588"/>
      <point x="120" y="588" type="curve" smooth="yes"/>
      <point x="137" y="588"/>
      <point x="148" y="575"/>
      <point x="148" y="545" type="curve" smooth="yes"/>
      <point x="148" y="512"/>
      <point x="133" y="495"/>
      <point x="118" y="495" type="curve" smooth="yes"/>
      <point x="95" y="495" type="line"/>
      <point x="95" y="436" type="line"/>
      <point x="117" y="436" type="line" smooth="yes"/>
      <point x="135" y="436"/>
      <point x="154" y="425"/>
      <point x="154" y="385" type="curve" smooth="yes"/>
      <point x="154" y="351"/>
      <point x="140" y="337"/>
      <point x="120" y="337" type="curve" smooth="yes"/>
      <point x="96" y="337"/>
      <point x="85" y="354"/>
      <point x="85" y="385" type="curve" smooth="yes"/>
      <point x="85" y="400" type="line"/>
      <point x="12" y="400" type="line"/>
      <point x="12" y="386" type="line" smooth="yes"/>
      <point x="12" y="319"/>
      <point x="51" y="276"/>
      <point x="121" y="276" type="curve" smooth="yes"/>
      <point x="183" y="276"/>
      <point x="226" y="316"/>
      <point x="226" y="381" type="curve" smooth="yes"/>
      <point x="226" y="425"/>
      <point x="204" y="454"/>
      <point x="176" y="469" type="curve"/>
      <point x="202" y="486"/>
      <point x="221" y="508"/>
      <point x="221" y="548" type="curve" smooth="yes"/>
      <point x="221" y="613"/>
      <point x="179" y="649"/>
    </contour>
  </outline>
</glyph>
<glyph name="acute" format="1">
  <advance width="241"/>
  <unicode hex="00B4"/>
  <outline>
    <contour>
      <point x="225" y="636" type="line"/>
      <point x="225" y="639" type="line"/>
      <point x="118" y="639" type="line"/>
      <point x="42" y="522" type="line"/>
      <point x="130" y="522" type="line"/>
    </contour>
    <contour>
      <point x="134" y="465" type="move" name="_top"/>
    </contour>
  </outline>
</glyph>
<glyph name="periodcentered" format="1">
  <advance width="202"/>
  <unicode hex="00B7"/>
  <outline>
    <contour>
      <point x="154" y="246" type="line"/>
      <point x="154" y="362" type="line"/>
      <point x="47" y="362" type="line"/>
      <point x="47" y="246" type="line"/>
    </contour>
  </outline>
</glyph>
<glyph name="cedilla" format="1">
  <advance width="241"/>
  <unicode hex="00B8"/>
  <outline>
    <contour>
      <point x="118" y="0" type="move" name="_bottom"/>
    </contour>
    <contour>
      <point x="137" y="10" type="line"/>
      <point x="77" y="10" type="line"/>
      <point x="67" y="-68" type="line"/>
      <point x="96" y="-68" type="line" smooth="yes"/>
      <point x="119" y="-68"/>
      <point x="126" y="-75"/>
      <point x="126" y="-89" type="curve" smooth="yes"/>
      <point x="126" y="-106"/>
      <point x="114" y="-111"/>
      <point x="95" y="-111" type="curve" smooth="yes"/>
      <point x="32" y="-111" type="line"/>
      <point x="32" y="-154" type="line"/>
      <point x="53" y="-158"/>
      <point x="81" y="-161"/>
      <point x="106" y="-161" type="curve" smooth="yes"/>
      <point x="144" y="-161"/>
      <point x="202" y="-149"/>
      <point x="202" y="-89" type="curve" smooth="yes"/>
      <point x="202" y="-49"/>
      <point x="171" y="-32"/>
      <point x="133" y="-29" type="curve"/>
    </contour>
  </outline>
</glyph>
<glyph name="onesuperior" format="1">
  <advance width="241"/>
  <unicode hex="00B9"/>
  <outline>
    <contour>
      <point x="165" y="344" type="line"/>
      <point x="165" y="639" type="line"/>
      <point x="130" y="639" type="line"/>
      <point x="101" y="620"/>
      <point x="55" y="603"/>
      <point x="28" y="599" type="curve"/>
      <point x="28" y="550" type="line"/>
      <point x="95" y="550" type="line"/>
      <point x="95" y="344" type="line"/>
      <point x="29" y="344" type="line"/>
      <point x="29" y="283" type="line"/>
      <point x="224" y="283" type="line"/>
      <point x="224" y="344" type="line"/>
    </contour>
  </outline>
</glyph>
<glyph name="ordmasculine" format="1">
  <advance width="264"/>
  <unicode hex="00BA"/>
  <outline>
    <contour>
      <point x="134" y="649" type="curve" smooth="yes"/>
      <point x="50" y="649"/>
      <point x="9" y="598"/>
      <point x="9" y="484" type="curve" smooth="yes"/>
      <point x="9" y="371"/>
      <point x="50" y="320"/>
      <point x="134" y="320" type="curve" smooth="yes"/>
      <point x="218" y="320"/>
      <point x="260" y="371"/>
      <point x="260" y="484" type="curve" smooth="yes"/>
      <point x="260" y="598"/>
      <point x="218" y="649"/>
    </contour>
    <contour>
      <point x="134" y="584" type="curve" smooth="yes"/>
      <point x="169" y="584"/>
      <point x="181" y="553"/>
      <point x="181" y="496" type="curve" smooth="yes"/>
      <point x="181" y="473" type="line" smooth="yes"/>
      <point x="181" y="415"/>
      <point x="169" y="385"/>
      <point x="134" y="385" type="curve" smooth="yes"/>
      <point x="100" y="385"/>
      <point x="88" y="415"/>
      <point x="88" y="473" type="curve" smooth="yes"/>
      <point x="88" y="496" type="line" smooth="yes"/>
      <point x="88" y="553"/>
      <point x="100" y="584"/>
    </contour>
  </outline>
</glyph>
<glyph name="onehalf" format="1">
  <advance width="605"/>
  <unicode hex="00BD"/>
  <outline>
    <contour>
      <point x="110" y="-11" type="line"/>
      <point x="170" y="-11" type="line"/>
      <point x="519" y="617" type="line"/>
      <point x="461" y="617" type="line"/>
    </contour>
    <contour>
      <point x="224" y="311" type="line"/>
      <point x="165" y="311" type="line"/>
      <point x="165" y="606" type="line"/>
      <point x="130" y="606" type="line"/>
      <point x="101" y="587"/>
      <point x="55" y="570"/>
      <point x="28" y="567" type="curve"/>
      <point x="28" y="517" type="line"/>
      <point x="95" y="517" type="line"/>
      <point x="95" y="311" type="line"/>
      <point x="29" y="311" type="line"/>
      <point x="29" y="250" type="line"/>
      <point x="224" y="250" type="line"/>
    </contour>
    <contour>
      <point x="485" y="366" type="curve" smooth="yes"/>
      <point x="429" y="366"/>
      <point x="379" y="334"/>
      <point x="379" y="255" type="curve" smooth="yes"/>
      <point x="379" y="242"/>
      <point x="382" y="231"/>
      <point x="382" y="231" type="curve"/>
      <point x="452" y="231" type="line"/>
      <point x="452" y="255" type="line" smooth="yes"/>
      <point x="452" y="282"/>
      <point x="461" y="304"/>
      <point x="483" y="304" type="curve" smooth="yes"/>
      <point x="505" y="304"/>
      <point x="511" y="286"/>
      <point x="511" y="271" type="curve" smooth="yes"/>
      <point x="511" y="226"/>
      <point x="480" y="191"/>
      <point x="443" y="149" type="curve" smooth="yes"/>
      <point x="410" y="111"/>
      <point x="376" y="72"/>
      <point x="376" y="16" type="curve" smooth="yes"/>
      <point x="376" y="0" type="line"/>
      <point x="586" y="0" type="line"/>
      <point x="586" y="65" type="line"/>
      <point x="464" y="65" type="line"/>
      <point x="472" y="77"/>
      <point x="480" y="88"/>
      <point x="489" y="99" type="curve" smooth="yes"/>
      <point x="532" y="151"/>
      <point x="584" y="200"/>
      <point x="584" y="271" type="curve" smooth="yes"/>
      <point x="584" y="339"/>
      <point x="540" y="366"/>
    </contour>
  </outline>
</glyph>
<glyph name="Agrave" format="1">
  <advance width="523"/>
  <unicode hex="00C0"/>
  <outline>
    <contour>
      <point x="235" y="664" type="line"/>
      <point x="323" y="664" type="line"/>
      <point x="247" y="781" type="line"/>
      <point x="141" y="781" type="line"/>
      <point x="140" y="778" type="line"/>
    </contour>
    <contour>
      <point x="407" y="0" type="line"/>
      <point x="522" y="0" type="line"/>
      <point x="327" y="606" type="line"/>
      <point x="195" y="606" type="line"/>
      <point x="0" y="0" type="line"/>
      <point x="110" y="0" type="line"/>
      <point x="146" y="119" type="line"/>
      <point x="370" y="119" type="line"/>
    </contour>
    <contour>
      <point x="260" y="505" type="line"/>
      <point x="260" y="505"/>
      <point x="268" y="454"/>
      <point x="278" y="423" type="curve" smooth="yes"/>
      <point x="339" y="220" type="line"/>
      <point x="177" y="220" type="line"/>
      <point x="239" y="423" type="line" smooth="yes"/>
      <point x="248" y="451"/>
      <point x="256" y="505"/>
      <point x="256" y="505" type="curve"/>
    </contour>
  </outline>
</glyph>
<glyph name="Acircumflex" format="1">
  <advance width="523"/>
  <unicode hex="00C2"/>
  <outline>
    <contour>
      <point x="522" y="0" type="line"/>
      <point x="327" y="606" type="line"/>
      <point x="195" y="606" type="line"/>
      <point x="0" y="0" type="line"/>
      <point x="110" y="0" type="line"/>
      <point x="146" y="119" type="line"/>
      <point x="370" y="119" type="line"/>
      <point x="407" y="0" type="line"/>
    </contour>
    <contour>
      <point x="260" y="505" type="line"/>
      <point x="260" y="505"/>
      <point x="268" y="454"/>
      <point x="278" y="423" type="curve" smooth="yes"/>
      <point x="339" y="220" type="line"/>
      <point x="177" y="220" type="line"/>
      <point x="239" y="423" type="line" smooth="yes"/>
      <point x="248" y="451"/>
      <point x="256" y="505"/>
      <point x="256" y="505" type="curve"/>
    </contour>
    <contour>
      <point x="381" y="661" type="line"/>
      <point x="306" y="781" type="line"/>
      <point x="219" y="781" type="line"/>
      <point x="143" y="661" type="line"/>
      <point x="222" y="661" type="line"/>
      <point x="262" y="722" type="line"/>
      <point x="301" y="661" type="line"/>
    </contour>
  </outline>
</glyph>
<glyph name="Aring" format="1">
  <advance width="523"/>
  <unicode hex="00C5"/>
  <outline>
    <contour>
      <point x="522" y="0" type="line"/>
      <point x="327" y="606" type="line"/>
      <point x="195" y="606" type="line"/>
      <point x="0" y="0" type="line"/>
      <point x="110" y="0" type="line"/>
      <point x="146" y="119" type="line"/>
      <point x="370" y="119" type="line"/>
      <point x="407" y="0" type="line"/>
    </contour>
    <contour>
      <point x="260" y="505" type="line"/>
      <point x="260" y="505"/>
      <point x="268" y="454"/>
      <point x="278" y="423" type="curve" smooth="yes"/>
      <point x="339" y="220" type="line"/>
      <point x="177" y="220" type="line"/>
      <point x="239" y="423" type="line" smooth="yes"/>
      <point x="248" y="451"/>
      <point x="256" y="505"/>
      <point x="256" y="505" type="curve"/>
    </contour>
    <contour>
      <point x="262" y="807" type="curve" smooth="yes"/>
      <point x="215" y="807"/>
      <point x="177" y="769"/>
      <point x="177" y="722" type="curve" smooth="yes"/>
      <point x="177" y="674"/>
      <point x="216" y="637"/>
      <point x="262" y="637" type="curve" smooth="yes"/>
      <point x="309" y="637"/>
      <point x="347" y="675"/>
      <point x="347" y="722" type="curve" smooth="yes"/>
      <point x="347" y="768"/>
      <point x="309" y="807"/>
    </contour>
    <contour>
      <point x="262" y="763" type="curve" smooth="yes"/>
      <point x="284" y="763"/>
      <point x="302" y="745"/>
      <point x="302" y="722" type="curve" smooth="yes"/>
      <point x="302" y="699"/>
      <point x="284" y="682"/>
      <point x="262" y="682" type="curve" smooth="yes"/>
      <point x="239" y="682"/>
      <point x="221" y="699"/>
      <point x="221" y="722" type="curve" smooth="yes"/>
      <point x="221" y="745"/>
      <point x="239" y="763"/>
    </contour>
  </outline>
</glyph>
<glyph name="AE" format="1">
  <advance width="725"/>
  <unicode hex="00C6"/>
  <outline>
    <contour>
      <point x="682" y="606" type="line"/>
      <point x="225" y="606" type="line"/>
      <point x="-7" y="0" type="line"/>
      <point x="98" y="0" type="line"/>
      <point x="142" y="119" type="line"/>
      <point x="366" y="119" type="line"/>
      <point x="395" y="0" type="line"/>
      <point x="687" y="0" type="line"/>
      <point x="687" y="101" type="line"/>
      <point x="486" y="101" type="line"/>
      <point x="447" y="260" type="line"/>
      <point x="643" y="260" type="line"/>
      <point x="643" y="361" type="line"/>
      <point x="423" y="361" type="line"/>
      <point x="387" y="506" type="line"/>
      <point x="682" y="506" type="line"/>
    </contour>
    <contour>
      <point x="280" y="483" type="line"/>
      <point x="283" y="472"/>
      <point x="286" y="461"/>
      <point x="288" y="450" type="curve" smooth="yes"/>
      <point x="342" y="220" type="line"/>
      <point x="179" y="220" type="line"/>
      <point x="264" y="450" type="line" smooth="yes"/>
      <point x="269" y="461"/>
      <point x="272" y="472"/>
      <point x="277" y="483" type="curve"/>
    </contour>
    <contour>
      <point x="362" y="606" type="move" name="top"/>
    </contour>
  </outline>
</glyph>
<glyph name="Ccedilla" format="1">
  <advance width="523"/>
  <unicode hex="00C7"/>
  <outline>
    <contour>
      <point x="271" y="617" type="curve" smooth="yes"/>
      <point x="119" y="617"/>
      <point x="30" y="517"/>
      <point x="30" y="303" type="curve" smooth="yes"/>
      <point x="30" y="108"/>
      <point x="103" y="8"/>
      <point x="232" y="-8" type="curve"/>
      <point x="225" y="-68" type="line"/>
      <point x="254" y="-68" type="line" smooth="yes"/>
      <point x="277" y="-68"/>
      <point x="284" y="-75"/>
      <point x="284" y="-89" type="curve" smooth="yes"/>
      <point x="284" y="-106"/>
      <point x="271" y="-111"/>
      <point x="252" y="-111" type="curve" smooth="yes"/>
      <point x="189" y="-111" type="line"/>
      <point x="189" y="-154" type="line"/>
      <point x="210" y="-158"/>
      <point x="239" y="-161"/>
      <point x="263" y="-161" type="curve" smooth="yes"/>
      <point x="301" y="-161"/>
      <point x="360" y="-149"/>
      <point x="360" y="-89" type="curve" smooth="yes"/>
      <point x="360" y="-49"/>
      <point x="328" y="-32"/>
      <point x="290" y="-29" type="curve"/>
      <point x="292" y="-10" type="line"/>
      <point x="409" y="-2"/>
      <point x="494" y="74"/>
      <point x="494" y="225" type="curve"/>
      <point x="384" y="225" type="line"/>
      <point x="384" y="131"/>
      <point x="340" y="87"/>
      <point x="275" y="87" type="curve" smooth="yes"/>
      <point x="188" y="87"/>
      <point x="147" y="160"/>
      <point x="147" y="281" type="curve" smooth="yes"/>
      <point x="147" y="325" type="line" smooth="yes"/>
      <point x="147" y="446"/>
      <point x="187" y="520"/>
      <point x="271" y="520" type="curve" smooth="yes"/>
      <point x="335" y="520"/>
      <point x="378" y="475"/>
      <point x="378" y="381" type="curve"/>
      <point x="494" y="381" type="line"/>
      <point x="494" y="545"/>
      <point x="398" y="617"/>
    </contour>
  </outline>
</glyph>
<glyph name="Egrave" format="1">
  <advance width="484"/>
  <unicode hex="00C8"/>
  <outline>
    <contour>
      <point x="215" y="664" type="line"/>
      <point x="302" y="664" type="line"/>
      <point x="226" y="781" type="line"/>
      <point x="120" y="781" type="line"/>
      <point x="119" y="778" type="line"/>
    </contour>
    <contour>
      <point x="166" y="506" type="line"/>
      <point x="439" y="506" type="line"/>
      <point x="439" y="606" type="line"/>
      <point x="53" y="606" type="line"/>
      <point x="53" y="0" type="line"/>
      <point x="445" y="0" type="line"/>
      <point x="445" y="101" type="line"/>
      <point x="166" y="101" type="line"/>
      <point x="166" y="260" type="line"/>
      <point x="400" y="260" type="line"/>
      <point x="400" y="361" type="line"/>
      <point x="166" y="361" type="line"/>
    </contour>
  </outline>
</glyph>
<glyph name="Eacute" format="1">
  <advance width="484"/>
  <unicode hex="00C9"/>
  <outline>
    <contour>
      <point x="269" y="664" type="line"/>
      <point x="364" y="778" type="line"/>
      <point x="363" y="781" type="line"/>
      <point x="257" y="781" type="line"/>
      <point x="181" y="664" type="line"/>
    </contour>
    <contour>
      <point x="166" y="506" type="line"/>
      <point x="439" y="506" type="line"/>
      <point x="439" y="606" type="line"/>
      <point x="53" y="606" type="line"/>
      <point x="53" y="0" type="line"/>
      <point x="445" y="0" type="line"/>
      <point x="445" y="101" type="line"/>
      <point x="166" y="101" type="line"/>
      <point x="166" y="260" type="line"/>
      <point x="400" y="260" type="line"/>
      <point x="400" y="361" type="line"/>
      <point x="166" y="361" type="line"/>
    </contour>
  </outline>
</glyph>
<glyph name="Ecircumflex" format="1">
  <advance width="484"/>
  <unicode hex="00CA"/>
  <outline>
    <contour>
      <point x="361" y="661" type="line"/>
      <point x="286" y="781" type="line"/>
      <point x="199" y="781" type="line"/>
      <point x="123" y="661" type="line"/>
      <point x="202" y="661" type="line"/>
      <point x="242" y="722" type="line"/>
      <point x="281" y="661" type="line"/>
    </contour>
    <contour>
      <point x="53" y="0" type="line"/>
      <point x="445" y="0" type="line"/>
      <point x="445" y="101" type="line"/>
      <point x="166" y="101" type="line"/>
      <point x="166" y="260" type="line"/>
      <point x="400" y="260" type="line"/>
      <point x="400" y="361" type="line"/>
      <point x="166" y="361" type="line"/>
      <point x="166" y="506" type="line"/>
      <point x="439" y="506" type="line"/>
      <point x="439" y="606" type="line"/>
      <point x="53" y="606" type="line"/>
    </contour>
  </outline>
</glyph>
<glyph name="Icircumflex" format="1">
  <advance width="202"/>
  <unicode hex="00CE"/>
  <outline>
    <contour>
      <point x="102" y="722" type="line"/>
      <point x="141" y="661" type="line"/>
      <point x="220" y="661" type="line"/>
      <point x="145" y="781" type="line"/>
      <point x="58" y="781" type="line"/>
      <point x="-19" y="661" type="line"/>
      <point x="62" y="661" type="line"/>
    </contour>
    <contour>
      <point x="44" y="606" type="line"/>
      <point x="44" y="0" type="line"/>
      <point x="157" y="0" type="line"/>
      <point x="157" y="606" type="line"/>
    </contour>
  </outline>
</glyph>
<glyph name="Idieresis" format="1">
  <advance width="202"/>
  <unicode hex="00CF"/>
  <outline>
    <contour>
      <point x="157" y="606" type="line"/>
      <point x="44" y="606" type="line"/>
      <point x="44" y="0" type="line"/>
      <point x="157" y="0" type="line"/>
    </contour>
    <contour>
      <point x="68" y="781" type="line"/>
      <point x="-20" y="781" type="line"/>
      <point x="-20" y="684" type="line"/>
      <point x="68" y="684" type="line"/>
    </contour>
    <contour>
      <point x="223" y="781" type="line"/>
      <point x="134" y="781" type="line"/>
      <point x="134" y="684" type="line"/>
      <point x="223" y="684" type="line"/>
    </contour>
  </outline>
</glyph>
<glyph name="Eth" format="1">
  <advance width="523"/>
  <unicode hex="00D0"/>
  <outline>
    <contour>
      <point x="53" y="351" type="line"/>
      <point x="9" y="351" type="line"/>
      <point x="9" y="276" type="line"/>
      <point x="53" y="276" type="line"/>
      <point x="53" y="0" type="line"/>
      <point x="250" y="0" type="line" smooth="yes"/>
      <point x="401" y="0"/>
      <point x="493" y="104"/>
      <point x="493" y="312" type="curve" smooth="yes"/>
      <point x="493" y="507"/>
      <point x="401" y="606"/>
      <point x="250" y="606" type="curve" smooth="yes"/>
      <point x="53" y="606" type="line"/>
    </contour>
    <contour>
      <point x="166" y="351" type="line"/>
      <point x="166" y="506" type="line"/>
      <point x="240" y="506" type="line" smooth="yes"/>
      <point x="324" y="506"/>
      <point x="377" y="448"/>
      <point x="377" y="334" type="curve" smooth="yes"/>
      <point x="377" y="290" type="line" smooth="yes"/>
      <point x="377" y="164"/>
      <point x="324" y="101"/>
      <point x="240" y="101" type="curve" smooth="yes"/>
      <point x="166" y="101" type="line"/>
      <point x="166" y="276" type="line"/>
      <point x="277" y="276" type="line"/>
      <point x="277" y="351" type="line"/>
    </contour>
  </outline>
</glyph>
<glyph name="Ntilde" format="1">
  <advance width="523"/>
  <unicode hex="00D1"/>
  <outline>
    <contour>
      <point x="470" y="606" type="line"/>
      <point x="370" y="606" type="line"/>
      <point x="370" y="269" type="line" smooth="yes"/>
      <point x="370" y="259"/>
      <point x="370" y="218"/>
      <point x="370" y="218" type="curve"/>
      <point x="368" y="216" type="line"/>
      <point x="368" y="216"/>
      <point x="350" y="257"/>
      <point x="340" y="272" type="curve" smooth="yes"/>
      <point x="153" y="606" type="line"/>
      <point x="53" y="606" type="line"/>
      <point x="53" y="0" type="line"/>
      <point x="153" y="0" type="line"/>
      <point x="153" y="338" type="line" smooth="yes"/>
      <point x="153" y="354"/>
      <point x="151" y="388"/>
      <point x="151" y="388" type="curve"/>
      <point x="155" y="391" type="line"/>
      <point x="155" y="391"/>
      <point x="175" y="347"/>
      <point x="182" y="334" type="curve" smooth="yes"/>
      <point x="370" y="0" type="line"/>
      <point x="470" y="0" type="line"/>
    </contour>
    <contour>
      <point x="352" y="781" type="line"/>
      <point x="348" y="756"/>
      <point x="336" y="748"/>
      <point x="317" y="748" type="curve" smooth="yes"/>
      <point x="278" y="748"/>
      <point x="243" y="781"/>
      <point x="200" y="781" type="curve" smooth="yes"/>
      <point x="138" y="781"/>
      <point x="113" y="721"/>
      <point x="113" y="673" type="curve"/>
      <point x="171" y="673" type="line"/>
      <point x="175" y="697"/>
      <point x="187" y="705"/>
      <point x="206" y="705" type="curve" smooth="yes"/>
      <point x="246" y="705"/>
      <point x="280" y="673"/>
      <point x="323" y="673" type="curve" smooth="yes"/>
      <point x="385" y="673"/>
      <point x="410" y="732"/>
      <point x="410" y="781" type="curve"/>
    </contour>
  </outline>
</glyph>
<glyph name="Otilde" format="1">
  <advance width="564"/>
  <unicode hex="00D5"/>
  <outline>
    <contour>
      <point x="372" y="781" type="line"/>
      <point x="369" y="756"/>
      <point x="357" y="748"/>
      <point x="339" y="748" type="curve" smooth="yes"/>
      <point x="298" y="748"/>
      <point x="264" y="781"/>
      <point x="221" y="781" type="curve" smooth="yes"/>
      <point x="159" y="781"/>
      <point x="133" y="721"/>
      <point x="133" y="673" type="curve"/>
      <point x="193" y="673" type="line"/>
      <point x="196" y="697"/>
      <point x="208" y="705"/>
      <point x="227" y="705" type="curve" smooth="yes"/>
      <point x="267" y="705"/>
      <point x="301" y="673"/>
      <point x="344" y="673" type="curve" smooth="yes"/>
      <point x="406" y="673"/>
      <point x="431" y="732"/>
      <point x="431" y="781" type="curve"/>
    </contour>
    <contour>
      <point x="282" y="617" type="curve" smooth="yes"/>
      <point x="126" y="617"/>
      <point x="30" y="517"/>
      <point x="30" y="303" type="curve" smooth="yes"/>
      <point x="30" y="89"/>
      <point x="126" y="-11"/>
      <point x="282" y="-11" type="curve" smooth="yes"/>
      <point x="438" y="-11"/>
      <point x="534" y="89"/>
      <point x="534" y="303" type="curve" smooth="yes"/>
      <point x="534" y="517"/>
      <point x="438" y="617"/>
    </contour>
    <contour>
      <point x="417" y="281" type="line" smooth="yes"/>
      <point x="417" y="160"/>
      <point x="372" y="87"/>
      <point x="282" y="87" type="curve" smooth="yes"/>
      <point x="192" y="87"/>
      <point x="147" y="160"/>
      <point x="147" y="281" type="curve" smooth="yes"/>
      <point x="147" y="325" type="line" smooth="yes"/>
      <point x="147" y="446"/>
      <point x="192" y="520"/>
      <point x="282" y="520" type="curve" smooth="yes"/>
      <point x="372" y="520"/>
      <point x="417" y="446"/>
      <point x="417" y="325" type="curve" smooth="yes"/>
    </contour>
  </outline>
</glyph>
<glyph name="multiply" format="1">
  <advance width="423"/>
  <unicode hex="00D7"/>
  <outline>
    <contour>
      <point x="410" y="355" type="line"/>
      <point x="347" y="419" type="line"/>
      <point x="217" y="290" type="line"/>
      <point x="89" y="419" type="line"/>
      <point x="26" y="355" type="line"/>
      <point x="155" y="226" type="line"/>
      <point x="26" y="98" type="line"/>
      <point x="89" y="34" type="line"/>
      <point x="217" y="164" type="line"/>
      <point x="347" y="34" type="line"/>
      <point x="410" y="98" type="line"/>
      <point x="281" y="226" type="line"/>
    </contour>
  </outline>
</glyph>
<glyph name="Uacute" format="1">
  <advance width="523"/>
  <unicode hex="00DA"/>
  <outline>
    <contour>
      <point x="470" y="606" type="line"/>
      <point x="357" y="606" type="line"/>
      <point x="357" y="194" type="line" smooth="yes"/>
      <point x="357" y="124"/>
      <point x="322" y="87"/>
      <point x="262" y="87" type="curve" smooth="yes"/>
      <point x="202" y="87"/>
      <point x="167" y="124"/>
      <point x="167" y="194" type="curve" smooth="yes"/>
      <point x="167" y="606" type="line"/>
      <point x="54" y="606" type="line"/>
      <point x="54" y="190" type="line" smooth="yes"/>
      <point x="54" y="58"/>
      <point x="132" y="-11"/>
      <point x="262" y="-11" type="curve" smooth="yes"/>
      <point x="392" y="-11"/>
      <point x="470" y="58"/>
      <point x="470" y="190" type="curve" smooth="yes"/>
    </contour>
    <contour>
      <point x="383" y="781" type="line"/>
      <point x="277" y="781" type="line"/>
      <point x="201" y="664" type="line"/>
      <point x="288" y="664" type="line"/>
      <point x="384" y="778" type="line"/>
    </contour>
  </outline>
</glyph>
<glyph name="Udieresis" format="1">
  <advance width="523"/>
  <unicode hex="00DC"/>
  <outline>
    <contour>
      <point x="141" y="684" type="line"/>
      <point x="229" y="684" type="line"/>
      <point x="229" y="781" type="line"/>
      <point x="141" y="781" type="line"/>
    </contour>
    <contour>
      <point x="294" y="684" type="line"/>
      <point x="384" y="684" type="line"/>
      <point x="384" y="781" type="line"/>
      <point x="294" y="781" type="line"/>
    </contour>
    <contour>
      <point x="470" y="606" type="line"/>
      <point x="357" y="606" type="line"/>
      <point x="357" y="194" type="line" smooth="yes"/>
      <point x="357" y="124"/>
      <point x="322" y="87"/>
      <point x="262" y="87" type="curve" smooth="yes"/>
      <point x="202" y="87"/>
      <point x="167" y="124"/>
      <point x="167" y="194" type="curve" smooth="yes"/>
      <point x="167" y="606" type="line"/>
      <point x="54" y="606" type="line"/>
      <point x="54" y="190" type="line" smooth="yes"/>
      <point x="54" y="58"/>
      <point x="132" y="-11"/>
      <point x="262" y="-11" type="curve" smooth="yes"/>
      <point x="392" y="-11"/>
      <point x="470" y="58"/>
      <point x="470" y="190" type="curve" smooth="yes"/>
    </contour>
  </outline>
</glyph>
<glyph name="Thorn" format="1">
  <advance width="484"/>
  <unicode hex="00DE"/>
  <outline>
    <contour>
      <point x="166" y="499" type="line"/>
      <point x="166" y="606" type="line"/>
      <point x="53" y="606" type="line"/>
      <point x="53" y="0" type="line"/>
      <point x="166" y="0" type="line"/>
      <point x="166" y="127" type="line"/>
      <point x="270" y="127" type="line" smooth="yes"/>
      <point x="384" y="127"/>
      <point x="460" y="202"/>
      <point x="460" y="316" type="curve" smooth="yes"/>
      <point x="460" y="422"/>
      <point x="395" y="499"/>
      <point x="270" y="499" type="curve" smooth="yes"/>
    </contour>
    <contour>
      <point x="166" y="398" type="line"/>
      <point x="258" y="398" type="line"/>
      <point x="312" y="398"/>
      <point x="343" y="366"/>
      <point x="343" y="316" type="curve" smooth="yes"/>
      <point x="343" y="261"/>
      <point x="313" y="227"/>
      <point x="258" y="227" type="curve" smooth="yes"/>
      <point x="166" y="227" type="line"/>
    </contour>
  </outline>
</glyph>
<glyph name="acircumflex" format="1">
  <advance width="403"/>
  <unicode hex="00E2"/>
  <outline>
    <contour>
      <point x="96" y="476"/>
      <point x="34" y="424"/>
      <point x="34" y="347" type="curve" smooth="yes"/>
      <point x="34" y="339"/>
      <point x="34" y="332"/>
      <point x="35" y="327" type="curve"/>
      <point x="139" y="327" type="line"/>
      <point x="139" y="340" type="line" smooth="yes"/>
      <point x="139" y="362"/>
      <point x="151" y="389"/>
      <point x="194" y="389" type="curve" smooth="yes"/>
      <point x="235" y="389"/>
      <point x="243" y="363"/>
      <point x="243" y="331" type="curve" smooth="yes"/>
      <point x="243" y="283" type="line"/>
      <point x="108" y="283"/>
      <point x="12" y="246"/>
      <point x="12" y="120" type="curve" smooth="yes"/>
      <point x="12" y="12"/>
      <point x="86" y="-11"/>
      <point x="129" y="-11" type="curve" smooth="yes"/>
      <point x="191" y="-11"/>
      <point x="220" y="13"/>
      <point x="247" y="50" type="curve"/>
      <point x="251" y="50" type="line"/>
      <point x="262" y="14"/>
      <point x="291" y="-11"/>
      <point x="333" y="-11" type="curve" smooth="yes"/>
      <point x="365" y="-11"/>
      <point x="385" y="-3"/>
      <point x="396" y="4" type="curve"/>
      <point x="396" y="79" type="line"/>
      <point x="375" y="79" type="line" smooth="yes"/>
      <point x="362" y="79"/>
      <point x="350" y="88"/>
      <point x="350" y="110" type="curve" smooth="yes"/>
      <point x="350" y="339" type="line" smooth="yes"/>
      <point x="350" y="425"/>
      <point x="300" y="476"/>
      <point x="192" y="476" type="curve" smooth="yes"/>
    </contour>
    <contour>
      <point x="243" y="179" type="line"/>
      <point x="243" y="125"/>
      <point x="224" y="78"/>
      <point x="173" y="78" type="curve" smooth="yes"/>
      <point x="137" y="78"/>
      <point x="121" y="98"/>
      <point x="121" y="130" type="curve" smooth="yes"/>
      <point x="121" y="190"/>
      <point x="181" y="206"/>
      <point x="243" y="206" type="curve"/>
    </contour>
    <contour>
      <point x="311" y="520" type="line"/>
      <point x="236" y="639" type="line"/>
      <point x="149" y="639" type="line"/>
      <point x="73" y="520" type="line"/>
      <point x="152" y="520" type="line"/>
      <point x="192" y="581" type="line"/>
      <point x="232" y="520" type="line"/>
    </contour>
  </outline>
</glyph>
<glyph name="atilde" format="1">
  <advance width="403"/>
  <unicode hex="00E3"/>
  <outline>
    <contour>
      <point x="192" y="476" type="curve" smooth="yes"/>
      <point x="96" y="476"/>
      <point x="34" y="424"/>
      <point x="34" y="347" type="curve" smooth="yes"/>
      <point x="34" y="339"/>
      <point x="34" y="332"/>
      <point x="35" y="327" type="curve"/>
      <point x="139" y="327" type="line"/>
      <point x="139" y="340" type="line" smooth="yes"/>
      <point x="139" y="362"/>
      <point x="151" y="389"/>
      <point x="194" y="389" type="curve" smooth="yes"/>
      <point x="235" y="389"/>
      <point x="243" y="363"/>
      <point x="243" y="331" type="curve" smooth="yes"/>
      <point x="243" y="283" type="line"/>
      <point x="108" y="283"/>
      <point x="12" y="246"/>
      <point x="12" y="120" type="curve" smooth="yes"/>
      <point x="12" y="12"/>
      <point x="86" y="-11"/>
      <point x="129" y="-11" type="curve" smooth="yes"/>
      <point x="191" y="-11"/>
      <point x="220" y="13"/>
      <point x="247" y="50" type="curve"/>
      <point x="251" y="50" type="line"/>
      <point x="262" y="14"/>
      <point x="291" y="-11"/>
      <point x="333" y="-11" type="curve" smooth="yes"/>
      <point x="365" y="-11"/>
      <point x="385" y="-3"/>
      <point x="396" y="4" type="curve"/>
      <point x="396" y="79" type="line"/>
      <point x="375" y="79" type="line" smooth="yes"/>
      <point x="362" y="79"/>
      <point x="350" y="88"/>
      <point x="350" y="110" type="curve" smooth="yes"/>
      <point x="350" y="339" type="line" smooth="yes"/>
      <point x="350" y="425"/>
      <point x="300" y="476"/>
    </contour>
    <contour>
      <point x="243" y="179" type="line"/>
      <point x="243" y="125"/>
      <point x="224" y="78"/>
      <point x="173" y="78" type="curve" smooth="yes"/>
      <point x="137" y="78"/>
      <point x="121" y="98"/>
      <point x="121" y="130" type="curve" smooth="yes"/>
      <point x="121" y="190"/>
      <point x="181" y="206"/>
      <point x="243" y="206" type="curve"/>
    </contour>
    <contour>
      <point x="282" y="639" type="line"/>
      <point x="278" y="614"/>
      <point x="266" y="606"/>
      <point x="248" y="606" type="curve" smooth="yes"/>
      <point x="208" y="606"/>
      <point x="173" y="639"/>
      <point x="130" y="639" type="curve" smooth="yes"/>
      <point x="68" y="639"/>
      <point x="43" y="580"/>
      <point x="43" y="531" type="curve"/>
      <point x="102" y="531" type="line"/>
      <point x="105" y="555"/>
      <point x="118" y="564"/>
      <point x="136" y="564" type="curve" smooth="yes"/>
      <point x="176" y="564"/>
      <point x="210" y="531"/>
      <point x="253" y="531" type="curve" smooth="yes"/>
      <point x="316" y="531"/>
      <point x="340" y="591"/>
      <point x="340" y="639" type="curve"/>
    </contour>
  </outline>
</glyph>
<glyph name="aring" format="1">
  <advance width="403"/>
  <unicode hex="00E5"/>
  <outline>
    <contour>
      <point x="192" y="666" type="curve" smooth="yes"/>
      <point x="145" y="666"/>
      <point x="107" y="628"/>
      <point x="107" y="581" type="curve" smooth="yes"/>
      <point x="107" y="533"/>
      <point x="146" y="496"/>
      <point x="192" y="496" type="curve" smooth="yes"/>
      <point x="239" y="496"/>
      <point x="277" y="534"/>
      <point x="277" y="581" type="curve" smooth="yes"/>
      <point x="277" y="627"/>
      <point x="240" y="666"/>
    </contour>
    <contour>
      <point x="192" y="621" type="curve" smooth="yes"/>
      <point x="214" y="621"/>
      <point x="232" y="604"/>
      <point x="232" y="581" type="curve" smooth="yes"/>
      <point x="232" y="558"/>
      <point x="214" y="540"/>
      <point x="192" y="540" type="curve" smooth="yes"/>
      <point x="169" y="540"/>
      <point x="151" y="558"/>
      <point x="151" y="581" type="curve" smooth="yes"/>
      <point x="151" y="604"/>
      <point x="169" y="621"/>
    </contour>
    <contour>
      <point x="139" y="327" type="line"/>
      <point x="139" y="340" type="line" smooth="yes"/>
      <point x="139" y="362"/>
      <point x="151" y="389"/>
      <point x="194" y="389" type="curve" smooth="yes"/>
      <point x="235" y="389"/>
      <point x="243" y="363"/>
      <point x="243" y="331" type="curve" smooth="yes"/>
      <point x="243" y="283" type="line"/>
      <point x="108" y="283"/>
      <point x="12" y="246"/>
      <point x="12" y="120" type="curve" smooth="yes"/>
      <point x="12" y="12"/>
      <point x="86" y="-11"/>
      <point x="129" y="-11" type="curve" smooth="yes"/>
      <point x="191" y="-11"/>
      <point x="220" y="13"/>
      <point x="247" y="50" type="curve"/>
      <point x="251" y="50" type="line"/>
      <point x="262" y="14"/>
      <point x="291" y="-11"/>
      <point x="333" y="-11" type="curve" smooth="yes"/>
      <point x="365" y="-11"/>
      <point x="385" y="-3"/>
      <point x="396" y="4" type="curve"/>
      <point x="396" y="79" type="line"/>
      <point x="375" y="79" type="line" smooth="yes"/>
      <point x="362" y="79"/>
      <point x="350" y="88"/>
      <point x="350" y="110" type="curve" smooth="yes"/>
      <point x="350" y="339" type="line" smooth="yes"/>
      <point x="350" y="425"/>
      <point x="300" y="476"/>
      <point x="192" y="476" type="curve" smooth="yes"/>
      <point x="96" y="476"/>
      <point x="34" y="424"/>
      <point x="34" y="347" type="curve" smooth="yes"/>
      <point x="34" y="339"/>
      <point x="34" y="332"/>
      <point x="35" y="327" type="curve"/>
    </contour>
    <contour>
      <point x="243" y="179" type="line" smooth="yes"/>
      <point x="243" y="125"/>
      <point x="224" y="78"/>
      <point x="173" y="78" type="curve" smooth="yes"/>
      <point x="137" y="78"/>
      <point x="121" y="98"/>
      <point x="121" y="130" type="curve" smooth="yes"/>
      <point x="121" y="190"/>
      <point x="181" y="206"/>
      <point x="243" y="206" type="curve"/>
    </contour>
  </outline>
</glyph>
<glyph name="ccedilla" format="1">
  <advance width="403"/>
  <unicode hex="00E7"/>
  <outline>
    <contour>
      <point x="165" y="-68" type="line"/>
      <point x="194" y="-68" type="line" smooth="yes"/>
      <point x="217" y="-68"/>
      <point x="224" y="-75"/>
      <point x="224" y="-89" type="curve" smooth="yes"/>
      <point x="224" y="-106"/>
      <point x="211" y="-111"/>
      <point x="192" y="-111" type="curve" smooth="yes"/>
      <point x="129" y="-111" type="line"/>
      <point x="129" y="-154" type="line"/>
      <point x="150" y="-158"/>
      <point x="179" y="-161"/>
      <point x="203" y="-161" type="curve" smooth="yes"/>
      <point x="241" y="-161"/>
      <point x="300" y="-149"/>
      <point x="300" y="-89" type="curve" smooth="yes"/>
      <point x="300" y="-49"/>
      <point x="268" y="-32"/>
      <point x="230" y="-29" type="curve"/>
      <point x="232" y="-10" type="line"/>
      <point x="317" y="-2"/>
      <point x="371" y="54"/>
      <point x="371" y="175" type="curve"/>
      <point x="266" y="175" type="line"/>
      <point x="266" y="111"/>
      <point x="250" y="79"/>
      <point x="212" y="79" type="curve" smooth="yes"/>
      <point x="164" y="79"/>
      <point x="147" y="126"/>
      <point x="147" y="216" type="curve" smooth="yes"/>
      <point x="147" y="249" type="line" smooth="yes"/>
      <point x="147" y="339"/>
      <point x="164" y="386"/>
      <point x="209" y="386" type="curve" smooth="yes"/>
      <point x="245" y="386"/>
      <point x="263" y="355"/>
      <point x="263" y="290" type="curve"/>
      <point x="371" y="290" type="line"/>
      <point x="371" y="420"/>
      <point x="308" y="476"/>
      <point x="209" y="476" type="curve" smooth="yes"/>
      <point x="94" y="476"/>
      <point x="36" y="400"/>
      <point x="36" y="232" type="curve" smooth="yes"/>
      <point x="36" y="85"/>
      <point x="79" y="8"/>
      <point x="172" y="-7" type="curve"/>
    </contour>
  </outline>
</glyph>
<glyph name="ecircumflex" format="1">
  <advance width="403"/>
  <unicode hex="00EA"/>
  <outline>
    <contour>
      <point x="202" y="581" type="line"/>
      <point x="241" y="520" type="line"/>
      <point x="321" y="520" type="line"/>
      <point x="246" y="639" type="line"/>
      <point x="159" y="639" type="line"/>
      <point x="83" y="520" type="line"/>
      <point x="163" y="520" type="line"/>
    </contour>
    <contour>
      <point x="269" y="164" type="line"/>
      <point x="269" y="109"/>
      <point x="246" y="76"/>
      <point x="210" y="76" type="curve" smooth="yes"/>
      <point x="157" y="76"/>
      <point x="139" y="123"/>
      <point x="138" y="206" type="curve"/>
      <point x="374" y="206" type="line"/>
      <point x="374" y="232" type="line" smooth="yes"/>
      <point x="374" y="400"/>
      <point x="318" y="476"/>
      <point x="206" y="476" type="curve" smooth="yes"/>
      <point x="91" y="476"/>
      <point x="27" y="400"/>
      <point x="27" y="232" type="curve" smooth="yes"/>
      <point x="27" y="65"/>
      <point x="90" y="-11"/>
      <point x="210" y="-11" type="curve" smooth="yes"/>
      <point x="304" y="-11"/>
      <point x="374" y="45"/>
      <point x="374" y="164" type="curve"/>
    </contour>
    <contour>
      <point x="139" y="283" type="line"/>
      <point x="142" y="350"/>
      <point x="161" y="389"/>
      <point x="206" y="389" type="curve" smooth="yes"/>
      <point x="245" y="389"/>
      <point x="263" y="350"/>
      <point x="263" y="283" type="curve"/>
    </contour>
  </outline>
</glyph>
<glyph name="igrave" format="1">
  <advance width="202"/>
  <unicode hex="00EC"/>
  <outline>
    <contour>
      <point x="154" y="0" type="line"/>
      <point x="154" y="465" type="line"/>
      <point x="48" y="465" type="line"/>
      <point x="48" y="0" type="line"/>
    </contour>
    <contour>
      <point x="162" y="522" type="line"/>
      <point x="86" y="639" type="line"/>
      <point x="-20" y="639" type="line"/>
      <point x="-21" y="636" type="line"/>
      <point x="74" y="522" type="line"/>
    </contour>
  </outline>
</glyph>
<glyph name="iacute" format="1">
  <advance width="202"/>
  <unicode hex="00ED"/>
  <outline>
    <contour>
      <point x="154" y="465" type="line"/>
      <point x="48" y="465" type="line"/>
      <point x="48" y="0" type="line"/>
      <point x="154" y="0" type="line"/>
    </contour>
    <contour>
      <point x="222" y="639" type="line"/>
      <point x="116" y="639" type="line"/>
      <point x="40" y="522" type="line"/>
      <point x="128" y="522" type="line"/>
      <point x="223" y="636" type="line"/>
    </contour>
  </outline>
</glyph>
<glyph name="idieresis" format="1">
  <advance width="202"/>
  <unicode hex="00EF"/>
  <outline>
    <contour>
      <point x="-20" y="543" type="line"/>
      <point x="68" y="543" type="line"/>
      <point x="68" y="639" type="line"/>
      <point x="-20" y="639" type="line"/>
    </contour>
    <contour>
      <point x="134" y="543" type="line"/>
      <point x="223" y="543" type="line"/>
      <point x="223" y="639" type="line"/>
      <point x="134" y="639" type="line"/>
    </contour>
    <contour>
      <point x="48" y="0" type="line"/>
      <point x="154" y="0" type="line"/>
      <point x="154" y="465" type="line"/>
      <point x="48" y="465" type="line"/>
    </contour>
  </outline>
</glyph>
<glyph name="oacute" format="1">
  <advance width="443"/>
  <unicode hex="00F3"/>
  <outline>
    <contour>
      <point x="248" y="522" type="line"/>
      <point x="344" y="636" type="line"/>
      <point x="343" y="639" type="line"/>
      <point x="237" y="639" type="line"/>
      <point x="161" y="522" type="line"/>
    </contour>
    <contour>
      <point x="222" y="476" type="curve" smooth="yes"/>
      <point x="98" y="476"/>
      <point x="36" y="400"/>
      <point x="36" y="232" type="curve" smooth="yes"/>
      <point x="36" y="65"/>
      <point x="98" y="-11"/>
      <point x="222" y="-11" type="curve" smooth="yes"/>
      <point x="346" y="-11"/>
      <point x="408" y="65"/>
      <point x="408" y="232" type="curve" smooth="yes"/>
      <point x="408" y="400"/>
      <point x="346" y="476"/>
    </contour>
    <contour>
      <point x="297" y="216" type="line" smooth="yes"/>
      <point x="297" y="126"/>
      <point x="277" y="79"/>
      <point x="222" y="79" type="curve" smooth="yes"/>
      <point x="167" y="79"/>
      <point x="147" y="126"/>
      <point x="147" y="216" type="curve" smooth="yes"/>
      <point x="147" y="249" type="line" smooth="yes"/>
      <point x="147" y="339"/>
      <point x="167" y="386"/>
      <point x="222" y="386" type="curve" smooth="yes"/>
      <point x="277" y="386"/>
      <point x="297" y="339"/>
      <point x="297" y="249" type="curve" smooth="yes"/>
    </contour>
  </outline>
</glyph>
<glyph name="ocircumflex" format="1">
  <advance width="443"/>
  <unicode hex="00F4"/>
  <outline>
    <contour>
      <point x="222" y="581" type="line"/>
      <point x="261" y="520" type="line"/>
      <point x="340" y="520" type="line"/>
      <point x="265" y="639" type="line"/>
      <point x="179" y="639" type="line"/>
      <point x="103" y="520" type="line"/>
      <point x="182" y="520" type="line"/>
    </contour>
    <contour>
      <point x="222" y="476" type="curve" smooth="yes"/>
      <point x="98" y="476"/>
      <point x="36" y="400"/>
      <point x="36" y="232" type="curve" smooth="yes"/>
      <point x="36" y="65"/>
      <point x="98" y="-11"/>
      <point x="222" y="-11" type="curve" smooth="yes"/>
      <point x="346" y="-11"/>
      <point x="408" y="65"/>
      <point x="408" y="232" type="curve" smooth="yes"/>
      <point x="408" y="400"/>
      <point x="346" y="476"/>
    </contour>
    <contour>
      <point x="297" y="216" type="line" smooth="yes"/>
      <point x="297" y="126"/>
      <point x="277" y="79"/>
      <point x="222" y="79" type="curve" smooth="yes"/>
      <point x="167" y="79"/>
      <point x="147" y="126"/>
      <point x="147" y="216" type="curve" smooth="yes"/>
      <point x="147" y="249" type="line" smooth="yes"/>
      <point x="147" y="339"/>
      <point x="167" y="386"/>
      <point x="222" y="386" type="curve" smooth="yes"/>
      <point x="277" y="386"/>
      <point x="297" y="339"/>
      <point x="297" y="249" type="curve" smooth="yes"/>
    </contour>
  </outline>
</glyph>
<glyph name="otilde" format="1">
  <advance width="443"/>
  <unicode hex="00F5"/>
  <outline>
    <contour>
      <point x="98" y="476"/>
      <point x="36" y="400"/>
      <point x="36" y="232" type="curve" smooth="yes"/>
      <point x="36" y="65"/>
      <point x="98" y="-11"/>
      <point x="222" y="-11" type="curve" smooth="yes"/>
      <point x="346" y="-11"/>
      <point x="408" y="65"/>
      <point x="408" y="232" type="curve" smooth="yes"/>
      <point x="408" y="400"/>
      <point x="346" y="476"/>
      <point x="222" y="476" type="curve" smooth="yes"/>
    </contour>
    <contour>
      <point x="277" y="386"/>
      <point x="297" y="339"/>
      <point x="297" y="249" type="curve" smooth="yes"/>
      <point x="297" y="216" type="line" smooth="yes"/>
      <point x="297" y="126"/>
      <point x="277" y="79"/>
      <point x="222" y="79" type="curve" smooth="yes"/>
      <point x="167" y="79"/>
      <point x="147" y="126"/>
      <point x="147" y="216" type="curve" smooth="yes"/>
      <point x="147" y="249" type="line" smooth="yes"/>
      <point x="147" y="339"/>
      <point x="167" y="386"/>
      <point x="222" y="386" type="curve" smooth="yes"/>
    </contour>
    <contour>
      <point x="312" y="639" type="line"/>
      <point x="309" y="614"/>
      <point x="296" y="606"/>
      <point x="278" y="606" type="curve" smooth="yes"/>
      <point x="238" y="606"/>
      <point x="203" y="639"/>
      <point x="160" y="639" type="curve" smooth="yes"/>
      <point x="98" y="639"/>
      <point x="73" y="580"/>
      <point x="73" y="531" type="curve"/>
      <point x="132" y="531" type="line"/>
      <point x="135" y="555"/>
      <point x="148" y="564"/>
      <point x="166" y="564" type="curve" smooth="yes"/>
      <point x="206" y="564"/>
      <point x="240" y="531"/>
      <point x="283" y="531" type="curve" smooth="yes"/>
      <point x="346" y="531"/>
      <point x="370" y="591"/>
      <point x="370" y="639" type="curve"/>
    </contour>
  </outline>
</glyph>
<glyph name="oslash" format="1">
  <advance width="443"/>
  <unicode hex="00F8"/>
  <outline>
    <contour>
      <point x="222" y="465" type="move" name="top"/>
    </contour>
    <contour>
      <point x="396" y="493" type="line"/>
      <point x="330" y="493" type="line"/>
      <point x="310" y="457" type="line"/>
      <point x="286" y="469"/>
      <point x="256" y="476"/>
      <point x="222" y="476" type="curve" smooth="yes"/>
      <point x="98" y="476"/>
      <point x="36" y="400"/>
      <point x="36" y="232" type="curve" smooth="yes"/>
      <point x="36" y="146"/>
      <point x="53" y="84"/>
      <point x="86" y="44" type="curve"/>
      <point x="46" y="-28" type="line"/>
      <point x="112" y="-28" type="line"/>
      <point x="132" y="8" type="line"/>
      <point x="157" y="-4"/>
      <point x="187" y="-11"/>
      <point x="222" y="-11" type="curve" smooth="yes"/>
      <point x="346" y="-11"/>
      <point x="408" y="65"/>
      <point x="408" y="232" type="curve" smooth="yes"/>
      <point x="408" y="319"/>
      <point x="391" y="382"/>
      <point x="357" y="422" type="curve"/>
    </contour>
    <contour>
      <point x="293" y="305" type="line"/>
      <point x="295" y="288"/>
      <point x="297" y="270"/>
      <point x="297" y="249" type="curve" smooth="yes"/>
      <point x="297" y="216" type="line" smooth="yes"/>
      <point x="297" y="126"/>
      <point x="277" y="79"/>
      <point x="222" y="79" type="curve" smooth="yes"/>
      <point x="204" y="79"/>
      <point x="190" y="84"/>
      <point x="179" y="94" type="curve"/>
    </contour>
    <contour>
      <point x="222" y="386" type="curve" smooth="yes"/>
      <point x="239" y="386"/>
      <point x="253" y="381"/>
      <point x="263" y="372" type="curve"/>
      <point x="149" y="162" type="line"/>
      <point x="148" y="178"/>
      <point x="147" y="195"/>
      <point x="147" y="216" type="curve" smooth="yes"/>
      <point x="147" y="249" type="line" smooth="yes"/>
      <point x="147" y="339"/>
      <point x="167" y="386"/>
    </contour>
  </outline>
</glyph>
<glyph name="ugrave" format="1">
  <advance width="443"/>
  <unicode hex="00F9"/>
  <outline>
    <contour>
      <point x="394" y="0" type="line"/>
      <point x="394" y="465" type="line"/>
      <point x="288" y="465" type="line"/>
      <point x="288" y="177" type="line" smooth="yes"/>
      <point x="288" y="125"/>
      <point x="257" y="86"/>
      <point x="216" y="86" type="curve" smooth="yes"/>
      <point x="176" y="86"/>
      <point x="155" y="108"/>
      <point x="155" y="168" type="curve" smooth="yes"/>
      <point x="155" y="465" type="line"/>
      <point x="49" y="465" type="line"/>
      <point x="49" y="139" type="line" smooth="yes"/>
      <point x="49" y="29"/>
      <point x="101" y="-11"/>
      <point x="172" y="-11" type="curve" smooth="yes"/>
      <point x="228" y="-11"/>
      <point x="266" y="21"/>
      <point x="290" y="57" type="curve"/>
      <point x="295" y="57" type="line"/>
      <point x="306" y="0" type="line"/>
    </contour>
    <contour>
      <point x="282" y="522" type="line"/>
      <point x="206" y="639" type="line"/>
      <point x="100" y="639" type="line"/>
      <point x="99" y="636" type="line"/>
      <point x="194" y="522" type="line"/>
    </contour>
  </outline>
</glyph>
<glyph name="yacute" format="1">
  <advance width="403"/>
  <unicode hex="00FD"/>
  <outline>
    <contour>
      <point x="400" y="465" type="line"/>
      <point x="293" y="465" type="line"/>
      <point x="236" y="246" type="line"/>
      <point x="225" y="207"/>
      <point x="221" y="165"/>
      <point x="214" y="126" type="curve"/>
      <point x="210" y="126" type="line"/>
      <point x="202" y="166"/>
      <point x="198" y="207"/>
      <point x="186" y="247" type="curve"/>
      <point x="116" y="465" type="line"/>
      <point x="4" y="465" type="line"/>
      <point x="158" y="0" type="line"/>
      <point x="146" y="-51"/>
      <point x="117" y="-72"/>
      <point x="87" y="-72" type="curve" smooth="yes"/>
      <point x="39" y="-72" type="line"/>
      <point x="39" y="-153" type="line"/>
      <point x="39" y="-154"/>
      <point x="65" y="-161"/>
      <point x="108" y="-161" type="curve" smooth="yes"/>
      <point x="197" y="-161"/>
      <point x="243" y="-77"/>
      <point x="272" y="24" type="curve" smooth="yes"/>
    </contour>
    <contour>
      <point x="323" y="639" type="line"/>
      <point x="217" y="639" type="line"/>
      <point x="141" y="522" type="line"/>
      <point x="228" y="522" type="line"/>
      <point x="324" y="636" type="line"/>
    </contour>
  </outline>
</glyph>
<glyph name="Abreve" format="1">
  <advance width="523"/>
  <unicode hex="0102"/>
  <outline>
    <contour>
      <point x="327" y="606" type="line"/>
      <point x="195" y="606" type="line"/>
      <point x="0" y="0" type="line"/>
      <point x="110" y="0" type="line"/>
      <point x="146" y="119" type="line"/>
      <point x="370" y="119" type="line"/>
      <point x="407" y="0" type="line"/>
      <point x="522" y="0" type="line"/>
    </contour>
    <contour>
      <point x="260" y="505" type="line"/>
      <point x="260" y="505"/>
      <point x="268" y="454"/>
      <point x="278" y="423" type="curve" smooth="yes"/>
      <point x="339" y="220" type="line"/>
      <point x="177" y="220" type="line"/>
      <point x="239" y="423" type="line" smooth="yes"/>
      <point x="248" y="451"/>
      <point x="256" y="505"/>
      <point x="256" y="505" type="curve"/>
    </contour>
    <contour>
      <point x="314" y="781" type="line"/>
      <point x="313" y="768"/>
      <point x="292" y="751"/>
      <point x="261" y="751" type="curve" smooth="yes"/>
      <point x="232" y="751"/>
      <point x="212" y="768"/>
      <point x="210" y="781" type="curve"/>
      <point x="144" y="781" type="line"/>
      <point x="144" y="736"/>
      <point x="188" y="686"/>
      <point x="261" y="686" type="curve" smooth="yes"/>
      <point x="334" y="686"/>
      <point x="380" y="736"/>
      <point x="380" y="781" type="curve"/>
    </contour>
  </outline>
</glyph>
<glyph name="aogonek" format="1">
  <advance width="403"/>
  <unicode hex="0105"/>
  <outline>
    <contour>
      <point x="429" y="-103" type="line"/>
      <point x="409" y="-103" type="line" smooth="yes"/>
      <point x="380" y="-103"/>
      <point x="370" y="-81"/>
      <point x="370" y="-58" type="curve" smooth="yes"/>
      <point x="370" y="-34"/>
      <point x="386" y="-9"/>
      <point x="396" y="4" type="curve"/>
      <point x="396" y="79" type="line"/>
      <point x="375" y="79" type="line" smooth="yes"/>
      <point x="362" y="79"/>
      <point x="350" y="88"/>
      <point x="350" y="110" type="curve" smooth="yes"/>
      <point x="350" y="339" type="line" smooth="yes"/>
      <point x="350" y="425"/>
      <point x="300" y="476"/>
      <point x="192" y="476" type="curve" smooth="yes"/>
      <point x="96" y="476"/>
      <point x="34" y="424"/>
      <point x="34" y="347" type="curve" smooth="yes"/>
      <point x="34" y="339"/>
      <point x="34" y="332"/>
      <point x="35" y="327" type="curve"/>
      <point x="139" y="327" type="line"/>
      <point x="139" y="340" type="line" smooth="yes"/>
      <point x="139" y="362"/>
      <point x="151" y="389"/>
      <point x="194" y="389" type="curve" smooth="yes"/>
      <point x="235" y="389"/>
      <point x="243" y="363"/>
      <point x="243" y="331" type="curve" smooth="yes"/>
      <point x="243" y="283" type="line"/>
      <point x="108" y="283"/>
      <point x="12" y="246"/>
      <point x="12" y="120" type="curve" smooth="yes"/>
      <point x="12" y="12"/>
      <point x="86" y="-11"/>
      <point x="129" y="-11" type="curve" smooth="yes"/>
      <point x="191" y="-11"/>
      <point x="220" y="13"/>
      <point x="247" y="50" type="curve"/>
      <point x="251" y="50" type="line"/>
      <point x="260" y="21"/>
      <point x="280" y="-1"/>
      <point x="310" y="-8" type="curve"/>
      <point x="294" y="-27"/>
      <point x="283" y="-50"/>
      <point x="283" y="-85" type="curve" smooth="yes"/>
      <point x="283" y="-146"/>
      <point x="331" y="-164"/>
      <point x="370" y="-164" type="curve" smooth="yes"/>
      <point x="390" y="-164"/>
      <point x="408" y="-160"/>
      <point x="429" y="-152" type="curve"/>
    </contour>
    <contour>
      <point x="243" y="179" type="line" smooth="yes"/>
      <point x="243" y="125"/>
      <point x="224" y="78"/>
      <point x="173" y="78" type="curve" smooth="yes"/>
      <point x="137" y="78"/>
      <point x="121" y="98"/>
      <point x="121" y="130" type="curve" smooth="yes"/>
      <point x="121" y="190"/>
      <point x="181" y="206"/>
      <point x="243" y="206" type="curve"/>
    </contour>
  </outline>
</glyph>
<glyph name="cacute" format="1">
  <advance width="403"/>
  <unicode hex="0107"/>
  <outline>
    <contour>
      <point x="237" y="522" type="line"/>
      <point x="331" y="636" type="line"/>
      <point x="331" y="639" type="line"/>
      <point x="225" y="639" type="line"/>
      <point x="149" y="522" type="line"/>
    </contour>
    <contour>
      <point x="266" y="175" type="line"/>
      <point x="266" y="111"/>
      <point x="250" y="79"/>
      <point x="212" y="79" type="curve" smooth="yes"/>
      <point x="164" y="79"/>
      <point x="147" y="126"/>
      <point x="147" y="216" type="curve" smooth="yes"/>
      <point x="147" y="249" type="line" smooth="yes"/>
      <point x="147" y="339"/>
      <point x="164" y="386"/>
      <point x="209" y="386" type="curve" smooth="yes"/>
      <point x="245" y="386"/>
      <point x="263" y="355"/>
      <point x="263" y="290" type="curve"/>
      <point x="371" y="290" type="line"/>
      <point x="371" y="420"/>
      <point x="308" y="476"/>
      <point x="209" y="476" type="curve" smooth="yes"/>
      <point x="94" y="476"/>
      <point x="36" y="400"/>
      <point x="36" y="232" type="curve" smooth="yes"/>
      <point x="36" y="65"/>
      <point x="91" y="-11"/>
      <point x="212" y="-11" type="curve" smooth="yes"/>
      <point x="309" y="-11"/>
      <point x="371" y="45"/>
      <point x="371" y="175" type="curve"/>
    </contour>
  </outline>
</glyph>
<glyph name="Ccircumflex" format="1">
  <advance width="523"/>
  <unicode hex="0108"/>
  <outline>
    <contour>
      <point x="119" y="617"/>
      <point x="30" y="517"/>
      <point x="30" y="303" type="curve" smooth="yes"/>
      <point x="30" y="89"/>
      <point x="119" y="-11"/>
      <point x="271" y="-11" type="curve" smooth="yes"/>
      <point x="400" y="-11"/>
      <point x="494" y="65"/>
      <point x="494" y="225" type="curve"/>
      <point x="384" y="225" type="line"/>
      <point x="384" y="131"/>
      <point x="340" y="87"/>
      <point x="275" y="87" type="curve" smooth="yes"/>
      <point x="188" y="87"/>
      <point x="147" y="160"/>
      <point x="147" y="281" type="curve" smooth="yes"/>
      <point x="147" y="325" type="line" smooth="yes"/>
      <point x="147" y="446"/>
      <point x="187" y="520"/>
      <point x="271" y="520" type="curve" smooth="yes"/>
      <point x="335" y="520"/>
      <point x="378" y="475"/>
      <point x="378" y="381" type="curve"/>
      <point x="494" y="381" type="line"/>
      <point x="494" y="545"/>
      <point x="398" y="617"/>
      <point x="271" y="617" type="curve" smooth="yes"/>
    </contour>
    <contour>
      <point x="390" y="661" type="line"/>
      <point x="315" y="781" type="line"/>
      <point x="228" y="781" type="line"/>
      <point x="152" y="661" type="line"/>
      <point x="232" y="661" type="line"/>
      <point x="271" y="722" type="line"/>
      <point x="311" y="661" type="line"/>
    </contour>
  </outline>
</glyph>
<glyph name="cdotaccent" format="1">
  <advance width="403"/>
  <unicode hex="010B"/>
  <outline>
    <contour>
      <point x="163" y="639" type="line"/>
      <point x="163" y="537" type="line"/>
      <point x="257" y="537" type="line"/>
      <point x="257" y="639" type="line"/>
    </contour>
    <contour>
      <point x="266" y="175" type="line"/>
      <point x="266" y="111"/>
      <point x="250" y="79"/>
      <point x="212" y="79" type="curve" smooth="yes"/>
      <point x="164" y="79"/>
      <point x="147" y="126"/>
      <point x="147" y="216" type="curve" smooth="yes"/>
      <point x="147" y="249" type="line" smooth="yes"/>
      <point x="147" y="339"/>
      <point x="164" y="386"/>
      <point x="209" y="386" type="curve" smooth="yes"/>
      <point x="245" y="386"/>
      <point x="263" y="355"/>
      <point x="263" y="290" type="curve"/>
      <point x="371" y="290" type="line"/>
      <point x="371" y="420"/>
      <point x="308" y="476"/>
      <point x="209" y="476" type="curve" smooth="yes"/>
      <point x="94" y="476"/>
      <point x="36" y="400"/>
      <point x="36" y="232" type="curve" smooth="yes"/>
      <point x="36" y="65"/>
      <point x="91" y="-11"/>
      <point x="212" y="-11" type="curve" smooth="yes"/>
      <point x="309" y="-11"/>
      <point x="371" y="45"/>
      <point x="371" y="175" type="curve"/>
    </contour>
  </outline>
</glyph>
<glyph name="Emacron" format="1">
  <advance width="484"/>
  <unicode hex="0112"/>
  <outline>
    <contour>
      <point x="129" y="748" type="line"/>
      <point x="129" y="671" type="line"/>
      <point x="354" y="671" type="line"/>
      <point x="354" y="748" type="line"/>
    </contour>
    <contour>
      <point x="439" y="606" type="line"/>
      <point x="53" y="606" type="line"/>
      <point x="53" y="0" type="line"/>
      <point x="445" y="0" type="line"/>
      <point x="445" y="101" type="line"/>
      <point x="166" y="101" type="line"/>
      <point x="166" y="260" type="line"/>
      <point x="400" y="260" type="line"/>
      <point x="400" y="361" type="line"/>
      <point x="166" y="361" type="line"/>
      <point x="166" y="506" type="line"/>
      <point x="439" y="506" type="line"/>
    </contour>
  </outline>
</glyph>
<glyph name="ebreve" format="1">
  <advance width="403"/>
  <unicode hex="0115"/>
  <outline>
    <contour>
      <point x="206" y="476" type="curve" smooth="yes"/>
      <point x="91" y="476"/>
      <point x="27" y="400"/>
      <point x="27" y="232" type="curve" smooth="yes"/>
      <point x="27" y="65"/>
      <point x="90" y="-11"/>
      <point x="210" y="-11" type="curve" smooth="yes"/>
      <point x="304" y="-11"/>
      <point x="374" y="45"/>
      <point x="374" y="164" type="curve"/>
      <point x="269" y="164" type="line"/>
      <point x="269" y="109"/>
      <point x="246" y="76"/>
      <point x="210" y="76" type="curve" smooth="yes"/>
      <point x="157" y="76"/>
      <point x="139" y="123"/>
      <point x="138" y="206" type="curve"/>
      <point x="374" y="206" type="line"/>
      <point x="374" y="232" type="line" smooth="yes"/>
      <point x="374" y="400"/>
      <point x="318" y="476"/>
    </contour>
    <contour>
      <point x="206" y="389" type="curve" smooth="yes"/>
      <point x="245" y="389"/>
      <point x="263" y="350"/>
      <point x="263" y="283" type="curve"/>
      <point x="139" y="283" type="line"/>
      <point x="142" y="350"/>
      <point x="161" y="389"/>
    </contour>
    <contour>
      <point x="255" y="639" type="line"/>
      <point x="253" y="627"/>
      <point x="232" y="610"/>
      <point x="202" y="610" type="curve" smooth="yes"/>
      <point x="172" y="610"/>
      <point x="152" y="627"/>
      <point x="149" y="639" type="curve"/>
      <point x="84" y="639" type="line"/>
      <point x="84" y="595"/>
      <point x="129" y="545"/>
      <point x="202" y="545" type="curve" smooth="yes"/>
      <point x="275" y="545"/>
      <point x="320" y="595"/>
      <point x="320" y="639" type="curve"/>
    </contour>
  </outline>
</glyph>
<glyph name="Edotaccent" format="1">
  <advance width="484"/>
  <unicode hex="0116"/>
  <outline>
    <contour>
      <point x="194" y="781" type="line"/>
      <point x="194" y="679" type="line"/>
      <point x="289" y="679" type="line"/>
      <point x="289" y="781" type="line"/>
    </contour>
    <contour>
      <point x="439" y="606" type="line"/>
      <point x="53" y="606" type="line"/>
      <point x="53" y="0" type="line"/>
      <point x="445" y="0" type="line"/>
      <point x="445" y="101" type="line"/>
      <point x="166" y="101" type="line"/>
      <point x="166" y="260" type="line"/>
      <point x="400" y="260" type="line"/>
      <point x="400" y="361" type="line"/>
      <point x="166" y="361" type="line"/>
      <point x="166" y="506" type="line"/>
      <point x="439" y="506" type="line"/>
    </contour>
  </outline>
</glyph>
<glyph name="Eogonek" format="1">
  <advance width="484"/>
  <unicode hex="0118"/>
  <outline>
    <contour>
      <point x="166" y="361" type="line"/>
      <point x="166" y="506" type="line"/>
      <point x="439" y="506" type="line"/>
      <point x="439" y="606" type="line"/>
      <point x="53" y="606" type="line"/>
      <point x="53" y="0" type="line"/>
      <point x="370" y="0" type="line"/>
      <point x="349" y="-22"/>
      <point x="331" y="-47"/>
      <point x="331" y="-88" type="curve" smooth="yes"/>
      <point x="331" y="-149"/>
      <point x="378" y="-168"/>
      <point x="419" y="-168" type="curve" smooth="yes"/>
      <point x="438" y="-168"/>
      <point x="457" y="-164"/>
      <point x="477" y="-156" type="curve"/>
      <point x="477" y="-107" type="line"/>
      <point x="458" y="-107" type="line" smooth="yes"/>
      <point x="429" y="-107"/>
      <point x="418" y="-85"/>
      <point x="418" y="-62" type="curve" smooth="yes"/>
      <point x="418" y="-37"/>
      <point x="434" y="-12"/>
      <point x="445" y="0" type="curve"/>
      <point x="445" y="101" type="line"/>
      <point x="166" y="101" type="line"/>
      <point x="166" y="260" type="line"/>
      <point x="400" y="260" type="line"/>
      <point x="400" y="361" type="line"/>
    </contour>
  </outline>
</glyph>
<glyph name="eogonek" format="1">
  <advance width="403"/>
  <unicode hex="0119"/>
  <outline>
    <contour>
      <point x="91" y="476"/>
      <point x="27" y="400"/>
      <point x="27" y="232" type="curve" smooth="yes"/>
      <point x="27" y="65"/>
      <point x="90" y="-11"/>
      <point x="210" y="-11" type="curve" smooth="yes"/>
      <point x="217" y="-11"/>
      <point x="225" y="-11"/>
      <point x="232" y="-10" type="curve"/>
      <point x="218" y="11" type="line"/>
      <point x="194" y="-13"/>
      <point x="173" y="-38"/>
      <point x="173" y="-84" type="curve" smooth="yes"/>
      <point x="173" y="-145"/>
      <point x="221" y="-164"/>
      <point x="261" y="-164" type="curve" smooth="yes"/>
      <point x="280" y="-164"/>
      <point x="299" y="-159"/>
      <point x="319" y="-151" type="curve"/>
      <point x="319" y="-103" type="line"/>
      <point x="300" y="-103" type="line" smooth="yes"/>
      <point x="271" y="-103"/>
      <point x="260" y="-80"/>
      <point x="260" y="-57" type="curve" smooth="yes"/>
      <point x="260" y="-33"/>
      <point x="276" y="-8"/>
      <point x="286" y="4" type="curve"/>
      <point x="339" y="28"/>
      <point x="374" y="80"/>
      <point x="374" y="164" type="curve"/>
      <point x="269" y="164" type="line"/>
      <point x="269" y="109"/>
      <point x="246" y="76"/>
      <point x="210" y="76" type="curve" smooth="yes"/>
      <point x="157" y="76"/>
      <point x="139" y="123"/>
      <point x="138" y="206" type="curve"/>
      <point x="374" y="206" type="line"/>
      <point x="374" y="232" type="line" smooth="yes"/>
      <point x="374" y="400"/>
      <point x="318" y="476"/>
      <point x="206" y="476" type="curve" smooth="yes"/>
    </contour>
    <contour>
      <point x="245" y="389"/>
      <point x="263" y="350"/>
      <point x="263" y="283" type="curve"/>
      <point x="139" y="283" type="line"/>
      <point x="142" y="350"/>
      <point x="161" y="389"/>
      <point x="206" y="389" type="curve" smooth="yes"/>
    </contour>
  </outline>
</glyph>
<glyph name="Ecaron" format="1">
  <advance width="484"/>
  <unicode hex="011A"/>
  <outline>
    <contour>
      <point x="123" y="781" type="line"/>
      <point x="199" y="661" type="line"/>
      <point x="286" y="661" type="line"/>
      <point x="361" y="781" type="line"/>
      <point x="281" y="781" type="line"/>
      <point x="242" y="720" type="line"/>
      <point x="202" y="781" type="line"/>
    </contour>
    <contour>
      <point x="439" y="606" type="line"/>
      <point x="53" y="606" type="line"/>
      <point x="53" y="0" type="line"/>
      <point x="445" y="0" type="line"/>
      <point x="445" y="101" type="line"/>
      <point x="166" y="101" type="line"/>
      <point x="166" y="260" type="line"/>
      <point x="400" y="260" type="line"/>
      <point x="400" y="361" type="line"/>
      <point x="166" y="361" type="line"/>
      <point x="166" y="506" type="line"/>
      <point x="439" y="506" type="line"/>
    </contour>
  </outline>
</glyph>
<glyph name="Gbreve" format="1">
  <advance width="564"/>
  <unicode hex="011E"/>
  <outline>
    <contour>
      <point x="335" y="781" type="line"/>
      <point x="333" y="768"/>
      <point x="312" y="751"/>
      <point x="282" y="751" type="curve" smooth="yes"/>
      <point x="253" y="751"/>
      <point x="232" y="768"/>
      <point x="230" y="781" type="curve"/>
      <point x="164" y="781" type="line"/>
      <point x="164" y="736"/>
      <point x="210" y="686"/>
      <point x="282" y="686" type="curve" smooth="yes"/>
      <point x="355" y="686"/>
      <point x="400" y="736"/>
      <point x="400" y="781" type="curve"/>
    </contour>
    <contour>
      <point x="124" y="617"/>
      <point x="30" y="517"/>
      <point x="30" y="303" type="curve" smooth="yes"/>
      <point x="30" y="88"/>
      <point x="116" y="-11"/>
      <point x="264" y="-11" type="curve" smooth="yes"/>
      <point x="328" y="-11"/>
      <point x="387" y="16"/>
      <point x="426" y="67" type="curve"/>
      <point x="446" y="0" type="line"/>
      <point x="519" y="0" type="line"/>
      <point x="519" y="330" type="line"/>
      <point x="267" y="330" type="line"/>
      <point x="267" y="232" type="line"/>
      <point x="451" y="232" type="line"/>
      <point x="403" y="275" type="line"/>
      <point x="403" y="232" type="line" smooth="yes"/>
      <point x="403" y="143"/>
      <point x="354" y="87"/>
      <point x="285" y="87" type="curve" smooth="yes"/>
      <point x="190" y="87"/>
      <point x="147" y="157"/>
      <point x="147" y="281" type="curve" smooth="yes"/>
      <point x="147" y="325" type="line" smooth="yes"/>
      <point x="147" y="446"/>
      <point x="189" y="520"/>
      <point x="284" y="520" type="curve" smooth="yes"/>
      <point x="349" y="520"/>
      <point x="403" y="476"/>
      <point x="403" y="394" type="curve"/>
      <point x="519" y="394" type="line"/>
      <point x="519" y="539"/>
      <point x="409" y="617"/>
      <point x="287" y="617" type="curve" smooth="yes"/>
    </contour>
  </outline>
</glyph>
<glyph name="Gdotaccent" format="1">
  <advance width="564"/>
  <unicode hex="0120"/>
  <outline>
    <contour>
      <point x="330" y="679" type="line"/>
      <point x="330" y="781" type="line"/>
      <point x="235" y="781" type="line"/>
      <point x="235" y="679" type="line"/>
    </contour>
    <contour>
      <point x="267" y="330" type="line"/>
      <point x="267" y="232" type="line"/>
      <point x="403" y="232" type="line"/>
      <point x="403" y="143"/>
      <point x="354" y="87"/>
      <point x="285" y="87" type="curve" smooth="yes"/>
      <point x="190" y="87"/>
      <point x="147" y="157"/>
      <point x="147" y="281" type="curve" smooth="yes"/>
      <point x="147" y="325" type="line" smooth="yes"/>
      <point x="147" y="446"/>
      <point x="189" y="520"/>
      <point x="284" y="520" type="curve" smooth="yes"/>
      <point x="349" y="520"/>
      <point x="403" y="476"/>
      <point x="403" y="394" type="curve"/>
      <point x="519" y="394" type="line"/>
      <point x="519" y="539"/>
      <point x="409" y="617"/>
      <point x="287" y="617" type="curve" smooth="yes"/>
      <point x="124" y="617"/>
      <point x="30" y="517"/>
      <point x="30" y="303" type="curve" smooth="yes"/>
      <point x="30" y="88"/>
      <point x="116" y="-11"/>
      <point x="264" y="-11" type="curve" smooth="yes"/>
      <point x="328" y="-11"/>
      <point x="387" y="16"/>
      <point x="426" y="67" type="curve"/>
      <point x="446" y="0" type="line"/>
      <point x="519" y="0" type="line"/>
      <point x="519" y="330" type="line"/>
    </contour>
  </outline>
</glyph>
<glyph name="gcommaaccent" format="1">
  <advance width="443"/>
  <unicode hex="0123"/>
  <outline>
    <contour>
      <point x="342" y="543" type="line"/>
      <point x="342" y="526"/>
      <point x="332" y="488"/>
      <point x="297" y="462" type="curve"/>
      <point x="275" y="471"/>
      <point x="248" y="476"/>
      <point x="219" y="476" type="curve" smooth="yes"/>
      <point x="108" y="476"/>
      <point x="48" y="413"/>
      <point x="48" y="317" type="curve" smooth="yes"/>
      <point x="48" y="263"/>
      <point x="67" y="219"/>
      <point x="104" y="192" type="curve"/>
      <point x="67" y="179"/>
      <point x="36" y="151"/>
      <point x="36" y="110" type="curve" smooth="yes"/>
      <point x="36" y="79"/>
      <point x="50" y="55"/>
      <point x="73" y="41" type="curve"/>
      <point x="40" y="22"/>
      <point x="14" y="-8"/>
      <point x="14" y="-54" type="curve" smooth="yes"/>
      <point x="14" y="-118"/>
      <point x="60" y="-161"/>
      <point x="117" y="-161" type="curve" smooth="yes"/>
      <point x="287" y="-161" type="line" smooth="yes"/>
      <point x="370" y="-161"/>
      <point x="438" y="-104"/>
      <point x="438" y="-18" type="curve" smooth="yes"/>
      <point x="438" y="57"/>
      <point x="390" y="103"/>
      <point x="331" y="103" type="curve" smooth="yes"/>
      <point x="171" y="103" type="line" smooth="yes"/>
      <point x="155" y="103"/>
      <point x="143" y="115"/>
      <point x="143" y="131" type="curve" smooth="yes"/>
      <point x="143" y="147"/>
      <point x="156" y="159"/>
      <point x="175" y="159" type="curve" smooth="yes"/>
      <point x="219" y="159" type="line" smooth="yes"/>
      <point x="331" y="159"/>
      <point x="392" y="222"/>
      <point x="392" y="317" type="curve" smooth="yes"/>
      <point x="392" y="361"/>
      <point x="378" y="398"/>
      <point x="354" y="424" type="curve"/>
      <point x="401" y="438"/>
      <point x="430" y="476"/>
      <point x="430" y="543" type="curve"/>
    </contour>
    <contour>
      <point x="287" y="5" type="line"/>
      <point x="311" y="5"/>
      <point x="331" y="-11"/>
      <point x="331" y="-37" type="curve" smooth="yes"/>
      <point x="331" y="-64"/>
      <point x="309" y="-80"/>
      <point x="283" y="-80" type="curve" smooth="yes"/>
      <point x="164" y="-80" type="line" smooth="yes"/>
      <point x="140" y="-80"/>
      <point x="121" y="-64"/>
      <point x="121" y="-37" type="curve" smooth="yes"/>
      <point x="121" y="-14"/>
      <point x="140" y="5"/>
      <point x="164" y="5" type="curve" smooth="yes"/>
    </contour>
    <contour>
      <point x="263" y="397"/>
      <point x="286" y="367"/>
      <point x="286" y="317" type="curve" smooth="yes"/>
      <point x="286" y="268"/>
      <point x="263" y="238"/>
      <point x="219" y="238" type="curve" smooth="yes"/>
      <point x="176" y="238"/>
      <point x="154" y="268"/>
      <point x="154" y="317" type="curve" smooth="yes"/>
      <point x="154" y="367"/>
      <point x="176" y="397"/>
      <point x="219" y="397" type="curve" smooth="yes"/>
    </contour>
    <contour>
      <point x="255" y="705" type="line"/>
      <point x="197" y="705" type="line"/>
      <point x="156" y="621" type="line"/>
      <point x="156" y="522" type="line"/>
      <point x="266" y="522" type="line"/>
      <point x="266" y="630" type="line"/>
      <point x="223" y="630" type="line"/>
    </contour>
  </outline>
</glyph>
<glyph name="Hcircumflex" format="1">
  <advance width="523"/>
  <unicode hex="0124"/>
  <outline>
    <contour>
      <point x="470" y="606" type="line"/>
      <point x="357" y="606" type="line"/>
      <point x="357" y="361" type="line"/>
      <point x="166" y="361" type="line"/>
      <point x="166" y="606" type="line"/>
      <point x="53" y="606" type="line"/>
      <point x="53" y="0" type="line"/>
      <point x="166" y="0" type="line"/>
      <point x="166" y="260" type="line"/>
      <point x="357" y="260" type="line"/>
      <point x="357" y="0" type="line"/>
      <point x="470" y="0" type="line"/>
    </contour>
    <contour>
      <point x="306" y="781" type="line"/>
      <point x="219" y="781" type="line"/>
      <point x="143" y="661" type="line"/>
      <point x="222" y="661" type="line"/>
      <point x="262" y="722" type="line"/>
      <point x="301" y="661" type="line"/>
      <point x="381" y="661" type="line"/>
    </contour>
  </outline>
</glyph>
<glyph name="Itilde" format="1">
  <advance width="202"/>
  <unicode hex="0128"/>
  <outline>
    <contour>
      <point x="157" y="0" type="line"/>
      <point x="157" y="606" type="line"/>
      <point x="44" y="606" type="line"/>
      <point x="44" y="0" type="line"/>
    </contour>
    <contour>
      <point x="191" y="781" type="line"/>
      <point x="187" y="756"/>
      <point x="176" y="748"/>
      <point x="157" y="748" type="curve" smooth="yes"/>
      <point x="117" y="748"/>
      <point x="83" y="781"/>
      <point x="39" y="781" type="curve" smooth="yes"/>
      <point x="-23" y="781"/>
      <point x="-48" y="721"/>
      <point x="-48" y="673" type="curve"/>
      <point x="11" y="673" type="line"/>
      <point x="15" y="697"/>
      <point x="27" y="705"/>
      <point x="46" y="705" type="curve" smooth="yes"/>
      <point x="86" y="705"/>
      <point x="120" y="673"/>
      <point x="163" y="673" type="curve" smooth="yes"/>
      <point x="225" y="673"/>
      <point x="250" y="732"/>
      <point x="250" y="781" type="curve"/>
    </contour>
  </outline>
</glyph>
<glyph name="Imacron" format="1">
  <advance width="202"/>
  <unicode hex="012A"/>
  <outline>
    <contour>
      <point x="-12" y="748" type="line"/>
      <point x="-12" y="671" type="line"/>
      <point x="214" y="671" type="line"/>
      <point x="214" y="748" type="line"/>
    </contour>
    <contour>
      <point x="44" y="606" type="line"/>
      <point x="44" y="0" type="line"/>
      <point x="157" y="0" type="line"/>
      <point x="157" y="606" type="line"/>
    </contour>
  </outline>
</glyph>
<glyph name="imacron" format="1">
  <advance width="202"/>
  <unicode hex="012B"/>
  <outline>
    <contour>
      <point x="-12" y="606" type="line"/>
      <point x="-12" y="530" type="line"/>
      <point x="214" y="530" type="line"/>
      <point x="214" y="606" type="line"/>
    </contour>
    <contour>
      <point x="48" y="465" type="line"/>
      <point x="48" y="0" type="line"/>
      <point x="154" y="0" type="line"/>
      <point x="154" y="465" type="line"/>
    </contour>
  </outline>
</glyph>
<glyph name="ibreve" format="1">
  <advance width="202"/>
  <unicode hex="012D"/>
  <outline>
    <contour>
      <point x="154" y="639" type="line"/>
      <point x="152" y="627"/>
      <point x="131" y="610"/>
      <point x="101" y="610" type="curve" smooth="yes"/>
      <point x="72" y="610"/>
      <point x="51" y="627"/>
      <point x="49" y="639" type="curve"/>
      <point x="-18" y="639" type="line"/>
      <point x="-18" y="595"/>
      <point x="28" y="545"/>
      <point x="101" y="545" type="curve" smooth="yes"/>
      <point x="174" y="545"/>
      <point x="219" y="595"/>
      <point x="219" y="639" type="curve"/>
    </contour>
    <contour>
      <point x="48" y="465" type="line"/>
      <point x="48" y="0" type="line"/>
      <point x="154" y="0" type="line"/>
      <point x="154" y="465" type="line"/>
    </contour>
  </outline>
</glyph>
<glyph name="Iogonek" format="1">
  <advance width="202"/>
  <unicode hex="012E"/>
  <outline>
    <contour>
      <point x="157" y="606" type="line"/>
      <point x="44" y="606" type="line"/>
      <point x="44" y="0" type="line"/>
      <point x="83" y="0" type="line"/>
      <point x="62" y="-22"/>
      <point x="44" y="-47"/>
      <point x="44" y="-88" type="curve" smooth="yes"/>
      <point x="44" y="-149"/>
      <point x="92" y="-168"/>
      <point x="132" y="-168" type="curve" smooth="yes"/>
      <point x="151" y="-168"/>
      <point x="170" y="-164"/>
      <point x="190" y="-156" type="curve"/>
      <point x="190" y="-107" type="line"/>
      <point x="171" y="-107" type="line" smooth="yes"/>
      <point x="141" y="-107"/>
      <point x="131" y="-85"/>
      <point x="131" y="-62" type="curve" smooth="yes"/>
      <point x="131" y="-37"/>
      <point x="148" y="-12"/>
      <point x="157" y="0" type="curve"/>
    </contour>
  </outline>
</glyph>
<glyph name="iogonek" format="1">
  <advance width="202"/>
  <unicode hex="012F"/>
  <outline>
    <contour>
      <point x="54" y="537" type="line"/>
      <point x="149" y="537" type="line"/>
      <point x="149" y="639" type="line"/>
      <point x="54" y="639" type="line"/>
    </contour>
    <contour>
      <point x="154" y="465" type="line"/>
      <point x="48" y="465" type="line"/>
      <point x="48" y="0" type="line"/>
      <point x="80" y="0" type="line"/>
      <point x="58" y="-22"/>
      <point x="41" y="-47"/>
      <point x="41" y="-88" type="curve" smooth="yes"/>
      <point x="41" y="-149"/>
      <point x="88" y="-168"/>
      <point x="128" y="-168" type="curve" smooth="yes"/>
      <point x="148" y="-168"/>
      <point x="166" y="-164"/>
      <point x="187" y="-156" type="curve"/>
      <point x="187" y="-107" type="line"/>
      <point x="167" y="-107" type="line" smooth="yes"/>
      <point x="138" y="-107"/>
      <point x="127" y="-85"/>
      <point x="127" y="-62" type="curve" smooth="yes"/>
      <point x="127" y="-37"/>
      <point x="143" y="-12"/>
      <point x="154" y="0" type="curve"/>
    </contour>
  </outline>
</glyph>
<glyph name="dotlessi" format="1">
  <advance width="202"/>
  <unicode hex="0131"/>
  <outline>
    <contour>
      <point x="181" y="9" type="move" name="ogonek"/>
    </contour>
    <contour>
      <point x="101" y="465" type="move" name="top"/>
    </contour>
    <contour>
      <point x="48" y="465" type="line"/>
      <point x="48" y="0" type="line"/>
      <point x="154" y="0" type="line"/>
      <point x="154" y="465" type="line"/>
    </contour>
  </outline>
</glyph>
<glyph name="IJ" format="1">
  <advance width="605"/>
  <unicode hex="0132"/>
  <outline>
    <contour>
      <point x="44" y="0" type="line"/>
      <point x="157" y="0" type="line"/>
      <point x="157" y="606" type="line"/>
      <point x="44" y="606" type="line"/>
    </contour>
    <contour>
      <point x="552" y="606" type="line"/>
      <point x="438" y="606" type="line"/>
      <point x="438" y="153" type="line" smooth="yes"/>
      <point x="438" y="110"/>
      <point x="419" y="87"/>
      <point x="381" y="87" type="curve" smooth="yes"/>
      <point x="342" y="87"/>
      <point x="322" y="110"/>
      <point x="322" y="153" type="curve" smooth="yes"/>
      <point x="322" y="191" type="line"/>
      <point x="210" y="191" type="line"/>
      <point x="210" y="144" type="line" smooth="yes"/>
      <point x="210" y="43"/>
      <point x="271" y="-11"/>
      <point x="381" y="-11" type="curve" smooth="yes"/>
      <point x="491" y="-11"/>
      <point x="552" y="43"/>
      <point x="552" y="144" type="curve" smooth="yes"/>
    </contour>
  </outline>
</glyph>
<glyph name="Kcommaaccent" format="1">
  <advance width="523"/>
  <unicode hex="0136"/>
  <outline>
    <contour>
      <point x="515" y="606" type="line"/>
      <point x="389" y="606" type="line"/>
      <point x="167" y="296" type="line"/>
      <point x="167" y="606" type="line"/>
      <point x="53" y="606" type="line"/>
      <point x="53" y="0" type="line"/>
      <point x="167" y="0" type="line"/>
      <point x="167" y="155" type="line"/>
      <point x="262" y="271" type="line"/>
      <point x="393" y="0" type="line"/>
      <point x="521" y="0" type="line"/>
      <point x="336" y="360" type="line"/>
    </contour>
    <contour>
      <point x="219" y="-232" type="line"/>
      <point x="276" y="-232" type="line"/>
      <point x="316" y="-148" type="line"/>
      <point x="316" y="-49" type="line"/>
      <point x="207" y="-49" type="line"/>
      <point x="207" y="-157" type="line"/>
      <point x="250" y="-157" type="line"/>
    </contour>
  </outline>
</glyph>
<glyph name="kcommaaccent" format="1">
  <advance width="403"/>
  <unicode hex="0137"/>
  <outline>
    <contour>
      <point x="154" y="280" type="line"/>
      <point x="154" y="639" type="line"/>
      <point x="48" y="639" type="line"/>
      <point x="48" y="0" type="line"/>
      <point x="154" y="0" type="line"/>
      <point x="154" y="145" type="line"/>
      <point x="193" y="193" type="line"/>
      <point x="286" y="0" type="line"/>
      <point x="404" y="0" type="line"/>
      <point x="259" y="276" type="line"/>
      <point x="397" y="465" type="line"/>
      <point x="284" y="465" type="line"/>
    </contour>
    <contour>
      <point x="256" y="-148" type="line"/>
      <point x="256" y="-49" type="line"/>
      <point x="148" y="-49" type="line"/>
      <point x="148" y="-157" type="line"/>
      <point x="190" y="-157" type="line"/>
      <point x="159" y="-232" type="line"/>
      <point x="217" y="-232" type="line"/>
    </contour>
  </outline>
</glyph>
<glyph name="Lacute" format="1">
  <advance width="443"/>
  <unicode hex="0139"/>
  <outline>
    <contour>
      <point x="139" y="664" type="line"/>
      <point x="234" y="778" type="line"/>
      <point x="233" y="781" type="line"/>
      <point x="127" y="781" type="line"/>
      <point x="51" y="664" type="line"/>
    </contour>
    <contour>
      <point x="423" y="106" type="line"/>
      <point x="166" y="106" type="line"/>
      <point x="166" y="606" type="line"/>
      <point x="53" y="606" type="line"/>
      <point x="53" y="0" type="line"/>
      <point x="423" y="0" type="line"/>
    </contour>
  </outline>
</glyph>
<glyph name="lacute" format="1">
  <advance width="202"/>
  <unicode hex="013A"/>
  <outline>
    <contour>
      <point x="154" y="0" type="line"/>
      <point x="154" y="639" type="line"/>
      <point x="48" y="639" type="line"/>
      <point x="48" y="0" type="line"/>
    </contour>
    <contour>
      <point x="223" y="778" type="line"/>
      <point x="222" y="781" type="line"/>
      <point x="116" y="781" type="line"/>
      <point x="40" y="664" type="line"/>
      <point x="128" y="664" type="line"/>
    </contour>
  </outline>
</glyph>
<glyph name="Lcommaaccent" format="1">
  <advance width="443"/>
  <unicode hex="013B"/>
  <outline>
    <contour>
      <point x="166" y="106" type="line"/>
      <point x="166" y="606" type="line"/>
      <point x="53" y="606" type="line"/>
      <point x="53" y="0" type="line"/>
      <point x="423" y="0" type="line"/>
      <point x="423" y="106" type="line"/>
    </contour>
    <contour>
      <point x="276" y="-148" type="line"/>
      <point x="276" y="-49" type="line"/>
      <point x="167" y="-49" type="line"/>
      <point x="167" y="-157" type="line"/>
      <point x="210" y="-157" type="line"/>
      <point x="179" y="-232" type="line"/>
      <point x="236" y="-232" type="line"/>
    </contour>
  </outline>
</glyph>
<glyph name="lcommaaccent" format="1">
  <advance width="202"/>
  <unicode hex="013C"/>
  <outline>
    <contour>
      <point x="154" y="0" type="line"/>
      <point x="154" y="639" type="line"/>
      <point x="48" y="639" type="line"/>
      <point x="48" y="0" type="line"/>
    </contour>
    <contour>
      <point x="156" y="-148" type="line"/>
      <point x="156" y="-49" type="line"/>
      <point x="47" y="-49" type="line"/>
      <point x="47" y="-157" type="line"/>
      <point x="90" y="-157" type="line"/>
      <point x="58" y="-232" type="line"/>
      <point x="116" y="-232" type="line"/>
    </contour>
  </outline>
</glyph>
<glyph name="Lcaron" format="1">
  <advance width="443"/>
  <unicode hex="013D"/>
  <outline>
    <contour>
      <point x="423" y="106" type="line"/>
      <point x="166" y="106" type="line"/>
      <point x="166" y="606" type="line"/>
      <point x="53" y="606" type="line"/>
      <point x="53" y="0" type="line"/>
      <point x="423" y="0" type="line"/>
    </contour>
    <contour>
      <point x="364" y="347" type="line"/>
      <point x="423" y="496" type="line"/>
      <point x="423" y="606" type="line"/>
      <point x="301" y="606" type="line"/>
      <point x="301" y="485" type="line"/>
      <point x="349" y="485" type="line"/>
      <point x="301" y="347" type="line"/>
    </contour>
  </outline>
</glyph>
<glyph name="lcaron" format="1">
  <advance width="279"/>
  <unicode hex="013E"/>
  <outline>
    <contour>
      <point x="48" y="639" type="line"/>
      <point x="48" y="0" type="line"/>
      <point x="154" y="0" type="line"/>
      <point x="154" y="639" type="line"/>
    </contour>
    <contour>
      <point x="200" y="347" type="line"/>
      <point x="263" y="347" type="line"/>
      <point x="322" y="496" type="line"/>
      <point x="322" y="606" type="line"/>
      <point x="200" y="606" type="line"/>
      <point x="200" y="485" type="line"/>
      <point x="248" y="485" type="line"/>
    </contour>
  </outline>
</glyph>
<glyph name="Ldot" format="1">
  <advance width="443"/>
  <unicode hex="013F"/>
  <outline>
    <contour>
      <point x="423" y="106" type="line"/>
      <point x="166" y="106" type="line"/>
      <point x="166" y="606" type="line"/>
      <point x="53" y="606" type="line"/>
      <point x="53" y="0" type="line"/>
      <point x="423" y="0" type="line"/>
    </contour>
    <contour>
      <point x="277" y="362" type="line"/>
      <point x="371" y="362" type="line"/>
      <point x="371" y="463" type="line"/>
      <point x="277" y="463" type="line"/>
    </contour>
  </outline>
</glyph>
<glyph name="Lslash" format="1">
  <advance width="443"/>
  <unicode hex="0141"/>
  <outline>
    <contour>
      <point x="166" y="606" type="line"/>
      <point x="53" y="606" type="line"/>
      <point x="53" y="293" type="line"/>
      <point x="0" y="247" type="line"/>
      <point x="0" y="163" type="line"/>
      <point x="53" y="210" type="line"/>
      <point x="53" y="0" type="line"/>
      <point x="423" y="0" type="line"/>
      <point x="423" y="106" type="line"/>
      <point x="166" y="106" type="line"/>
      <point x="166" y="309" type="line"/>
      <point x="269" y="400" type="line"/>
      <point x="269" y="486" type="line"/>
      <point x="166" y="394" type="line"/>
    </contour>
  </outline>
</glyph>
<glyph name="lslash" format="1">
  <advance width="202"/>
  <unicode hex="0142"/>
  <outline>
    <contour>
      <point x="224" y="446" type="line"/>
      <point x="154" y="384" type="line"/>
      <point x="154" y="639" type="line"/>
      <point x="48" y="639" type="line"/>
      <point x="48" y="289" type="line"/>
      <point x="-12" y="236" type="line"/>
      <point x="-12" y="151" type="line"/>
      <point x="48" y="204" type="line"/>
      <point x="48" y="0" type="line"/>
      <point x="154" y="0" type="line"/>
      <point x="154" y="299" type="line"/>
      <point x="224" y="361" type="line"/>
    </contour>
  </outline>
</glyph>
<glyph name="nacute" format="1">
  <advance width="443"/>
  <unicode hex="0144"/>
  <outline>
    <contour>
      <point x="215" y="476"/>
      <point x="177" y="444"/>
      <point x="153" y="408" type="curve"/>
      <point x="148" y="408" type="line"/>
      <point x="137" y="465" type="line"/>
      <point x="49" y="465" type="line"/>
      <point x="49" y="0" type="line"/>
      <point x="155" y="0" type="line"/>
      <point x="155" y="286" type="line" smooth="yes"/>
      <point x="155" y="339"/>
      <point x="186" y="379"/>
      <point x="227" y="379" type="curve" smooth="yes"/>
      <point x="265" y="379"/>
      <point x="288" y="357"/>
      <point x="288" y="297" type="curve" smooth="yes"/>
      <point x="288" y="0" type="line"/>
      <point x="394" y="0" type="line"/>
      <point x="394" y="326" type="line" smooth="yes"/>
      <point x="394" y="436"/>
      <point x="342" y="476"/>
      <point x="271" y="476" type="curve" smooth="yes"/>
    </contour>
    <contour>
      <point x="343" y="639" type="line"/>
      <point x="237" y="639" type="line"/>
      <point x="161" y="522" type="line"/>
      <point x="248" y="522" type="line"/>
      <point x="344" y="636" type="line"/>
    </contour>
  </outline>
</glyph>
<glyph name="Ncommaaccent" format="1">
  <advance width="523"/>
  <unicode hex="0145"/>
  <outline>
    <contour>
      <point x="370" y="0" type="line"/>
      <point x="470" y="0" type="line"/>
      <point x="470" y="606" type="line"/>
      <point x="370" y="606" type="line"/>
      <point x="370" y="218" type="line"/>
      <point x="368" y="216" type="line"/>
      <point x="368" y="216"/>
      <point x="350" y="257"/>
      <point x="340" y="272" type="curve"/>
      <point x="153" y="606" type="line"/>
      <point x="53" y="606" type="line"/>
      <point x="53" y="0" type="line"/>
      <point x="153" y="0" type="line"/>
      <point x="153" y="338" type="line" smooth="yes"/>
      <point x="153" y="354"/>
      <point x="151" y="388"/>
      <point x="151" y="388" type="curve"/>
      <point x="155" y="391" type="line"/>
      <point x="155" y="391"/>
      <point x="175" y="347"/>
      <point x="182" y="334" type="curve" smooth="yes"/>
    </contour>
    <contour>
      <point x="276" y="-232" type="line"/>
      <point x="316" y="-148" type="line"/>
      <point x="316" y="-49" type="line"/>
      <point x="207" y="-49" type="line"/>
      <point x="207" y="-157" type="line"/>
      <point x="250" y="-157" type="line"/>
      <point x="219" y="-232" type="line"/>
    </contour>
  </outline>
</glyph>
<glyph name="ncaron" format="1">
  <advance width="443"/>
  <unicode hex="0148"/>
  <outline>
    <contour>
      <point x="271" y="476" type="curve" smooth="yes"/>
      <point x="215" y="476"/>
      <point x="177" y="444"/>
      <point x="153" y="408" type="curve"/>
      <point x="148" y="408" type="line"/>
      <point x="137" y="465" type="line"/>
      <point x="49" y="465" type="line"/>
      <point x="49" y="0" type="line"/>
      <point x="155" y="0" type="line"/>
      <point x="155" y="286" type="line" smooth="yes"/>
      <point x="155" y="339"/>
      <point x="186" y="379"/>
      <point x="227" y="379" type="curve" smooth="yes"/>
      <point x="265" y="379"/>
      <point x="288" y="357"/>
      <point x="288" y="297" type="curve" smooth="yes"/>
      <point x="288" y="0" type="line"/>
      <point x="394" y="0" type="line"/>
      <point x="394" y="326" type="line" smooth="yes"/>
      <point x="394" y="436"/>
      <point x="342" y="476"/>
    </contour>
    <contour>
      <point x="179" y="520" type="line"/>
      <point x="265" y="520" type="line"/>
      <point x="340" y="639" type="line"/>
      <point x="261" y="639" type="line"/>
      <point x="222" y="578" type="line"/>
      <point x="182" y="639" type="line"/>
      <point x="103" y="639" type="line"/>
    </contour>
  </outline>
</glyph>
<glyph name="napostrophe" format="1">
  <advance width="598"/>
  <unicode hex="0149"/>
  <outline>
    <contour>
      <point x="425" y="476" type="curve" smooth="yes"/>
      <point x="370" y="476"/>
      <point x="331" y="444"/>
      <point x="308" y="408" type="curve"/>
      <point x="302" y="408" type="line"/>
      <point x="292" y="465" type="line"/>
      <point x="203" y="465" type="line"/>
      <point x="203" y="0" type="line"/>
      <point x="309" y="0" type="line"/>
      <point x="309" y="286" type="line" smooth="yes"/>
      <point x="309" y="339"/>
      <point x="340" y="379"/>
      <point x="382" y="379" type="curve" smooth="yes"/>
      <point x="420" y="379"/>
      <point x="443" y="357"/>
      <point x="443" y="297" type="curve" smooth="yes"/>
      <point x="443" y="0" type="line"/>
      <point x="549" y="0" type="line"/>
      <point x="549" y="326" type="line" smooth="yes"/>
      <point x="549" y="436"/>
      <point x="497" y="476"/>
    </contour>
    <contour>
      <point x="169" y="507" type="line"/>
      <point x="169" y="606" type="line"/>
      <point x="59" y="606" type="line"/>
      <point x="59" y="498" type="line"/>
      <point x="103" y="498" type="line"/>
      <point x="72" y="423" type="line"/>
      <point x="129" y="423" type="line"/>
    </contour>
  </outline>
</glyph>
<glyph name="Eng" format="1">
  <advance width="524"/>
  <unicode hex="014A"/>
  <outline>
    <contour>
      <point x="470" y="606" type="line"/>
      <point x="370" y="606" type="line"/>
      <point x="370" y="269" type="line" smooth="yes"/>
      <point x="370" y="259"/>
      <point x="370" y="218"/>
      <point x="370" y="218" type="curve"/>
      <point x="368" y="216" type="line"/>
      <point x="368" y="216"/>
      <point x="350" y="257"/>
      <point x="340" y="272" type="curve" smooth="yes"/>
      <point x="153" y="606" type="line"/>
      <point x="53" y="606" type="line"/>
      <point x="53" y="0" type="line"/>
      <point x="153" y="0" type="line"/>
      <point x="153" y="338" type="line" smooth="yes"/>
      <point x="153" y="354"/>
      <point x="151" y="388"/>
      <point x="151" y="388" type="curve"/>
      <point x="155" y="391" type="line"/>
      <point x="155" y="391"/>
      <point x="175" y="347"/>
      <point x="182" y="334" type="curve" smooth="yes"/>
      <point x="367" y="0" type="line"/>
      <point x="367" y="-29" type="line" smooth="yes"/>
      <point x="367" y="-57"/>
      <point x="353" y="-72"/>
      <point x="325" y="-72" type="curve" smooth="yes"/>
      <point x="286" y="-72" type="line"/>
      <point x="286" y="-150" type="line"/>
      <point x="304" y="-156"/>
      <point x="336" y="-161"/>
      <point x="362" y="-161" type="curve" smooth="yes"/>
      <point x="447" y="-161"/>
      <point x="470" y="-98"/>
      <point x="470" y="-36" type="curve" smooth="yes"/>
    </contour>
  </outline>
</glyph>
<glyph name="eng" format="1">
  <advance width="443"/>
  <unicode hex="014B"/>
  <outline>
    <contour>
      <point x="271" y="476" type="curve" smooth="yes"/>
      <point x="215" y="476"/>
      <point x="177" y="444"/>
      <point x="153" y="408" type="curve"/>
      <point x="148" y="408" type="line"/>
      <point x="137" y="465" type="line"/>
      <point x="49" y="465" type="line"/>
      <point x="49" y="0" type="line"/>
      <point x="155" y="0" type="line"/>
      <point x="155" y="286" type="line" smooth="yes"/>
      <point x="155" y="339"/>
      <point x="186" y="379"/>
      <point x="227" y="379" type="curve" smooth="yes"/>
      <point x="265" y="379"/>
      <point x="288" y="357"/>
      <point x="288" y="297" type="curve" smooth="yes"/>
      <point x="288" y="-29" type="line" smooth="yes"/>
      <point x="288" y="-57"/>
      <point x="274" y="-72"/>
      <point x="247" y="-72" type="curve" smooth="yes"/>
      <point x="208" y="-72" type="line"/>
      <point x="208" y="-150" type="line"/>
      <point x="226" y="-156"/>
      <point x="260" y="-161"/>
      <point x="286" y="-161" type="curve" smooth="yes"/>
      <point x="371" y="-161"/>
      <point x="394" y="-98"/>
      <point x="394" y="-36" type="curve" smooth="yes"/>
      <point x="394" y="326" type="line" smooth="yes"/>
      <point x="394" y="436"/>
      <point x="342" y="476"/>
    </contour>
  </outline>
</glyph>
<glyph name="Obreve" format="1">
  <advance width="564"/>
  <unicode hex="014E"/>
  <outline>
    <contour>
      <point x="126" y="617"/>
      <point x="30" y="517"/>
      <point x="30" y="303" type="curve" smooth="yes"/>
      <point x="30" y="89"/>
      <point x="126" y="-11"/>
      <point x="282" y="-11" type="curve" smooth="yes"/>
      <point x="438" y="-11"/>
      <point x="534" y="89"/>
      <point x="534" y="303" type="curve" smooth="yes"/>
      <point x="534" y="517"/>
      <point x="438" y="617"/>
      <point x="282" y="617" type="curve" smooth="yes"/>
    </contour>
    <contour>
      <point x="372" y="520"/>
      <point x="417" y="446"/>
      <point x="417" y="325" type="curve" smooth="yes"/>
      <point x="417" y="281" type="line" smooth="yes"/>
      <point x="417" y="160"/>
      <point x="372" y="87"/>
      <point x="282" y="87" type="curve" smooth="yes"/>
      <point x="192" y="87"/>
      <point x="147" y="160"/>
      <point x="147" y="281" type="curve" smooth="yes"/>
      <point x="147" y="325" type="line" smooth="yes"/>
      <point x="147" y="446"/>
      <point x="192" y="520"/>
      <point x="282" y="520" type="curve" smooth="yes"/>
    </contour>
    <contour>
      <point x="335" y="781" type="line"/>
      <point x="333" y="768"/>
      <point x="312" y="751"/>
      <point x="282" y="751" type="curve" smooth="yes"/>
      <point x="253" y="751"/>
      <point x="232" y="768"/>
      <point x="230" y="781" type="curve"/>
      <point x="164" y="781" type="line"/>
      <point x="164" y="736"/>
      <point x="210" y="686"/>
      <point x="282" y="686" type="curve" smooth="yes"/>
      <point x="355" y="686"/>
      <point x="400" y="736"/>
      <point x="400" y="781" type="curve"/>
    </contour>
  </outline>
</glyph>
<glyph name="obreve" format="1">
  <advance width="443"/>
  <unicode hex="014F"/>
  <outline>
    <contour>
      <point x="98" y="476"/>
      <point x="36" y="400"/>
      <point x="36" y="232" type="curve" smooth="yes"/>
      <point x="36" y="65"/>
      <point x="98" y="-11"/>
      <point x="222" y="-11" type="curve" smooth="yes"/>
      <point x="346" y="-11"/>
      <point x="408" y="65"/>
      <point x="408" y="232" type="curve" smooth="yes"/>
      <point x="408" y="400"/>
      <point x="346" y="476"/>
      <point x="222" y="476" type="curve" smooth="yes"/>
    </contour>
    <contour>
      <point x="277" y="386"/>
      <point x="297" y="339"/>
      <point x="297" y="249" type="curve" smooth="yes"/>
      <point x="297" y="216" type="line" smooth="yes"/>
      <point x="297" y="126"/>
      <point x="277" y="79"/>
      <point x="222" y="79" type="curve" smooth="yes"/>
      <point x="167" y="79"/>
      <point x="147" y="126"/>
      <point x="147" y="216" type="curve" smooth="yes"/>
      <point x="147" y="249" type="line" smooth="yes"/>
      <point x="147" y="339"/>
      <point x="167" y="386"/>
      <point x="222" y="386" type="curve" smooth="yes"/>
    </contour>
    <contour>
      <point x="274" y="639" type="line"/>
      <point x="272" y="627"/>
      <point x="251" y="610"/>
      <point x="221" y="610" type="curve" smooth="yes"/>
      <point x="192" y="610"/>
      <point x="171" y="627"/>
      <point x="169" y="639" type="curve"/>
      <point x="103" y="639" type="line"/>
      <point x="103" y="595"/>
      <point x="149" y="545"/>
      <point x="221" y="545" type="curve" smooth="yes"/>
      <point x="294" y="545"/>
      <point x="339" y="595"/>
      <point x="339" y="639" type="curve"/>
    </contour>
  </outline>
</glyph>
<glyph name="Ohungarumlaut" format="1">
  <advance width="564"/>
  <unicode hex="0150"/>
  <outline>
    <contour>
      <point x="282" y="617" type="curve" smooth="yes"/>
      <point x="126" y="617"/>
      <point x="30" y="517"/>
      <point x="30" y="303" type="curve" smooth="yes"/>
      <point x="30" y="89"/>
      <point x="126" y="-11"/>
      <point x="282" y="-11" type="curve" smooth="yes"/>
      <point x="438" y="-11"/>
      <point x="534" y="89"/>
      <point x="534" y="303" type="curve" smooth="yes"/>
      <point x="534" y="517"/>
      <point x="438" y="617"/>
    </contour>
    <contour>
      <point x="282" y="520" type="curve" smooth="yes"/>
      <point x="372" y="520"/>
      <point x="417" y="446"/>
      <point x="417" y="325" type="curve" smooth="yes"/>
      <point x="417" y="281" type="line" smooth="yes"/>
      <point x="417" y="160"/>
      <point x="372" y="87"/>
      <point x="282" y="87" type="curve" smooth="yes"/>
      <point x="192" y="87"/>
      <point x="147" y="160"/>
      <point x="147" y="281" type="curve" smooth="yes"/>
      <point x="147" y="325" type="line" smooth="yes"/>
      <point x="147" y="446"/>
      <point x="192" y="520"/>
    </contour>
    <contour>
      <point x="327" y="778" type="line"/>
      <point x="326" y="781" type="line"/>
      <point x="238" y="781" type="line"/>
      <point x="183" y="664" type="line"/>
      <point x="253" y="664" type="line"/>
    </contour>
    <contour>
      <point x="451" y="778" type="line"/>
      <point x="450" y="781" type="line"/>
      <point x="362" y="781" type="line"/>
      <point x="307" y="664" type="line"/>
      <point x="377" y="664" type="line"/>
    </contour>
  </outline>
</glyph>
<glyph name="ohungarumlaut" format="1">
  <advance width="443"/>
  <unicode hex="0151"/>
  <outline>
    <contour>
      <point x="122" y="522" type="line"/>
      <point x="192" y="522" type="line"/>
      <point x="266" y="636" type="line"/>
      <point x="265" y="639" type="line"/>
      <point x="177" y="639" type="line"/>
    </contour>
    <contour>
      <point x="246" y="522" type="line"/>
      <point x="316" y="522" type="line"/>
      <point x="390" y="636" type="line"/>
      <point x="389" y="639" type="line"/>
      <point x="301" y="639" type="line"/>
    </contour>
    <contour>
      <point x="222" y="476" type="curve" smooth="yes"/>
      <point x="98" y="476"/>
      <point x="36" y="400"/>
      <point x="36" y="232" type="curve" smooth="yes"/>
      <point x="36" y="65"/>
      <point x="98" y="-11"/>
      <point x="222" y="-11" type="curve" smooth="yes"/>
      <point x="346" y="-11"/>
      <point x="408" y="65"/>
      <point x="408" y="232" type="curve" smooth="yes"/>
      <point x="408" y="400"/>
      <point x="346" y="476"/>
    </contour>
    <contour>
      <point x="297" y="216" type="line" smooth="yes"/>
      <point x="297" y="126"/>
      <point x="277" y="79"/>
      <point x="222" y="79" type="curve" smooth="yes"/>
      <point x="167" y="79"/>
      <point x="147" y="126"/>
      <point x="147" y="216" type="curve" smooth="yes"/>
      <point x="147" y="249" type="line" smooth="yes"/>
      <point x="147" y="339"/>
      <point x="167" y="386"/>
      <point x="222" y="386" type="curve" smooth="yes"/>
      <point x="277" y="386"/>
      <point x="297" y="339"/>
      <point x="297" y="249" type="curve" smooth="yes"/>
    </contour>
  </outline>
</glyph>
<glyph name="OE" format="1">
  <advance width="725"/>
  <unicode hex="0152"/>
  <outline>
    <contour>
      <point x="103" y="617"/>
      <point x="27" y="517"/>
      <point x="27" y="303" type="curve" smooth="yes"/>
      <point x="27" y="89"/>
      <point x="103" y="-11"/>
      <point x="228" y="-11" type="curve" smooth="yes"/>
      <point x="282" y="-11"/>
      <point x="327" y="10"/>
      <point x="361" y="54" type="curve"/>
      <point x="361" y="0" type="line"/>
      <point x="700" y="0" type="line"/>
      <point x="700" y="101" type="line"/>
      <point x="474" y="101" type="line"/>
      <point x="474" y="260" type="line"/>
      <point x="656" y="260" type="line"/>
      <point x="656" y="361" type="line"/>
      <point x="474" y="361" type="line"/>
      <point x="474" y="506" type="line"/>
      <point x="694" y="506" type="line"/>
      <point x="694" y="606" type="line"/>
      <point x="361" y="606" type="line"/>
      <point x="361" y="552" type="line"/>
      <point x="327" y="596"/>
      <point x="282" y="617"/>
      <point x="228" y="617" type="curve" smooth="yes"/>
    </contour>
    <contour>
      <point x="324" y="520"/>
      <point x="360" y="464"/>
      <point x="360" y="325" type="curve" smooth="yes"/>
      <point x="360" y="281" type="line" smooth="yes"/>
      <point x="360" y="142"/>
      <point x="324" y="87"/>
      <point x="251" y="87" type="curve" smooth="yes"/>
      <point x="179" y="87"/>
      <point x="143" y="142"/>
      <point x="143" y="281" type="curve" smooth="yes"/>
      <point x="143" y="325" type="line" smooth="yes"/>
      <point x="143" y="464"/>
      <point x="179" y="520"/>
      <point x="251" y="520" type="curve" smooth="yes"/>
    </contour>
    <contour>
      <point x="362" y="606" type="move" name="top"/>
    </contour>
  </outline>
</glyph>
<glyph name="oe" format="1">
  <advance width="684"/>
  <unicode hex="0153"/>
  <outline>
    <contour>
      <point x="342" y="465" type="move" name="top"/>
    </contour>
    <contour>
      <point x="539" y="164" type="line"/>
      <point x="539" y="109"/>
      <point x="516" y="76"/>
      <point x="480" y="76" type="curve" smooth="yes"/>
      <point x="428" y="76"/>
      <point x="409" y="123"/>
      <point x="408" y="206" type="curve"/>
      <point x="644" y="206" type="line"/>
      <point x="644" y="232" type="line" smooth="yes"/>
      <point x="644" y="400"/>
      <point x="589" y="476"/>
      <point x="476" y="476" type="curve" smooth="yes"/>
      <point x="423" y="476"/>
      <point x="382" y="457"/>
      <point x="352" y="417" type="curve"/>
      <point x="322" y="457"/>
      <point x="278" y="476"/>
      <point x="222" y="476" type="curve" smooth="yes"/>
      <point x="98" y="476"/>
      <point x="36" y="400"/>
      <point x="36" y="232" type="curve" smooth="yes"/>
      <point x="36" y="65"/>
      <point x="98" y="-11"/>
      <point x="222" y="-11" type="curve" smooth="yes"/>
      <point x="278" y="-11"/>
      <point x="322" y="8"/>
      <point x="353" y="47" type="curve"/>
      <point x="383" y="8"/>
      <point x="425" y="-11"/>
      <point x="480" y="-11" type="curve" smooth="yes"/>
      <point x="575" y="-11"/>
      <point x="644" y="45"/>
      <point x="644" y="164" type="curve"/>
    </contour>
    <contour>
      <point x="409" y="283" type="line"/>
      <point x="413" y="350"/>
      <point x="431" y="389"/>
      <point x="476" y="389" type="curve" smooth="yes"/>
      <point x="515" y="389"/>
      <point x="533" y="350"/>
      <point x="533" y="283" type="curve"/>
    </contour>
    <contour>
      <point x="297" y="216" type="line" smooth="yes"/>
      <point x="297" y="126"/>
      <point x="277" y="79"/>
      <point x="222" y="79" type="curve" smooth="yes"/>
      <point x="167" y="79"/>
      <point x="147" y="126"/>
      <point x="147" y="216" type="curve" smooth="yes"/>
      <point x="147" y="249" type="line" smooth="yes"/>
      <point x="147" y="339"/>
      <point x="167" y="386"/>
      <point x="222" y="386" type="curve" smooth="yes"/>
      <point x="277" y="386"/>
      <point x="297" y="339"/>
      <point x="297" y="249" type="curve" smooth="yes"/>
    </contour>
  </outline>
</glyph>
<glyph name="rcommaaccent" format="1">
  <advance width="282"/>
  <unicode hex="0157"/>
  <outline>
    <contour>
      <point x="188" y="476"/>
      <point x="167" y="436"/>
      <point x="155" y="397" type="curve"/>
      <point x="149" y="397" type="line"/>
      <point x="137" y="465" type="line"/>
      <point x="49" y="465" type="line"/>
      <point x="49" y="0" type="line"/>
      <point x="155" y="0" type="line"/>
      <point x="155" y="259" type="line" smooth="yes"/>
      <point x="155" y="341"/>
      <point x="195" y="366"/>
      <point x="241" y="366" type="curve" smooth="yes"/>
      <point x="279" y="366" type="line"/>
      <point x="279" y="469" type="line"/>
      <point x="279" y="469"/>
      <point x="263" y="476"/>
      <point x="235" y="476" type="curve" smooth="yes"/>
    </contour>
    <contour>
      <point x="162" y="-148" type="line"/>
      <point x="162" y="-49" type="line"/>
      <point x="52" y="-49" type="line"/>
      <point x="52" y="-157" type="line"/>
      <point x="95" y="-157" type="line"/>
      <point x="64" y="-232" type="line"/>
      <point x="121" y="-232" type="line"/>
    </contour>
  </outline>
</glyph>
<glyph name="rcaron" format="1">
  <advance width="282"/>
  <unicode hex="0159"/>
  <outline>
    <contour>
      <point x="188" y="476"/>
      <point x="167" y="436"/>
      <point x="155" y="397" type="curve"/>
      <point x="149" y="397" type="line"/>
      <point x="137" y="465" type="line"/>
      <point x="49" y="465" type="line"/>
      <point x="49" y="0" type="line"/>
      <point x="155" y="0" type="line"/>
      <point x="155" y="259" type="line" smooth="yes"/>
      <point x="155" y="341"/>
      <point x="195" y="366"/>
      <point x="241" y="366" type="curve" smooth="yes"/>
      <point x="279" y="366" type="line"/>
      <point x="279" y="469" type="line"/>
      <point x="279" y="469"/>
      <point x="263" y="476"/>
      <point x="235" y="476" type="curve" smooth="yes"/>
    </contour>
    <contour>
      <point x="142" y="520" type="line"/>
      <point x="217" y="639" type="line"/>
      <point x="138" y="639" type="line"/>
      <point x="99" y="578" type="line"/>
      <point x="59" y="639" type="line"/>
      <point x="-20" y="639" type="line"/>
      <point x="56" y="520" type="line"/>
    </contour>
  </outline>
</glyph>
<glyph name="Sacute" format="1">
  <advance width="484"/>
  <unicode hex="015A"/>
  <outline>
    <contour>
      <point x="269" y="664" type="line"/>
      <point x="364" y="778" type="line"/>
      <point x="363" y="781" type="line"/>
      <point x="257" y="781" type="line"/>
      <point x="181" y="664" type="line"/>
    </contour>
    <contour>
      <point x="145" y="197" type="line"/>
      <point x="27" y="197" type="line"/>
      <point x="27" y="178" type="line" smooth="yes"/>
      <point x="27" y="53"/>
      <point x="125" y="-11"/>
      <point x="236" y="-11" type="curve" smooth="yes"/>
      <point x="362" y="-11"/>
      <point x="450" y="43"/>
      <point x="450" y="182" type="curve" smooth="yes"/>
      <point x="450" y="405"/>
      <point x="156" y="332"/>
      <point x="156" y="455" type="curve" smooth="yes"/>
      <point x="156" y="492"/>
      <point x="186" y="520"/>
      <point x="240" y="520" type="curve" smooth="yes"/>
      <point x="292" y="520"/>
      <point x="323" y="487"/>
      <point x="323" y="436" type="curve" smooth="yes"/>
      <point x="323" y="428" type="line"/>
      <point x="438" y="428" type="line"/>
      <point x="438" y="438" type="line" smooth="yes"/>
      <point x="438" y="563"/>
      <point x="349" y="617"/>
      <point x="241" y="617" type="curve" smooth="yes"/>
      <point x="134" y="617"/>
      <point x="39" y="562"/>
      <point x="39" y="447" type="curve" smooth="yes"/>
      <point x="39" y="217"/>
      <point x="333" y="302"/>
      <point x="333" y="158" type="curve" smooth="yes"/>
      <point x="333" y="123"/>
      <point x="309" y="87"/>
      <point x="241" y="87" type="curve" smooth="yes"/>
      <point x="179" y="87"/>
      <point x="144" y="126"/>
      <point x="144" y="183" type="curve"/>
    </contour>
  </outline>
</glyph>
<glyph name="sacute" format="1">
  <advance width="403"/>
  <unicode hex="015B"/>
  <outline>
    <contour>
      <point x="202" y="476" type="curve" smooth="yes"/>
      <point x="110" y="476"/>
      <point x="36" y="429"/>
      <point x="36" y="334" type="curve" smooth="yes"/>
      <point x="36" y="155"/>
      <point x="263" y="225"/>
      <point x="263" y="126" type="curve" smooth="yes"/>
      <point x="263" y="88"/>
      <point x="230" y="76"/>
      <point x="202" y="76" type="curve" smooth="yes"/>
      <point x="171" y="76"/>
      <point x="139" y="92"/>
      <point x="138" y="141" type="curve" smooth="yes"/>
      <point x="138" y="148" type="line"/>
      <point x="30" y="148" type="line"/>
      <point x="30" y="148"/>
      <point x="29" y="141"/>
      <point x="29" y="137" type="curve" smooth="yes"/>
      <point x="29" y="49"/>
      <point x="91" y="-11"/>
      <point x="198" y="-11" type="curve" smooth="yes"/>
      <point x="297" y="-11"/>
      <point x="371" y="27"/>
      <point x="371" y="140" type="curve" smooth="yes"/>
      <point x="371" y="324"/>
      <point x="144" y="253"/>
      <point x="144" y="343" type="curve" smooth="yes"/>
      <point x="144" y="371"/>
      <point x="166" y="389"/>
      <point x="199" y="389" type="curve" smooth="yes"/>
      <point x="231" y="389"/>
      <point x="250" y="370"/>
      <point x="251" y="331" type="curve" smooth="yes"/>
      <point x="251" y="329" type="line"/>
      <point x="359" y="329" type="line"/>
      <point x="359" y="330"/>
      <point x="360" y="339"/>
      <point x="360" y="349" type="curve" smooth="yes"/>
      <point x="360" y="429"/>
      <point x="291" y="476"/>
    </contour>
    <contour>
      <point x="324" y="636" type="line"/>
      <point x="323" y="639" type="line"/>
      <point x="217" y="639" type="line"/>
      <point x="141" y="522" type="line"/>
      <point x="228" y="522" type="line"/>
    </contour>
  </outline>
</glyph>
<glyph name="scedilla" format="1">
  <advance width="403"/>
  <unicode hex="015F"/>
  <outline>
    <contour>
      <point x="110" y="476"/>
      <point x="36" y="429"/>
      <point x="36" y="334" type="curve" smooth="yes"/>
      <point x="36" y="155"/>
      <point x="263" y="225"/>
      <point x="263" y="126" type="curve" smooth="yes"/>
      <point x="263" y="88"/>
      <point x="230" y="76"/>
      <point x="202" y="76" type="curve" smooth="yes"/>
      <point x="171" y="76"/>
      <point x="139" y="92"/>
      <point x="138" y="141" type="curve" smooth="yes"/>
      <point x="138" y="148" type="line"/>
      <point x="30" y="148" type="line"/>
      <point x="30" y="148"/>
      <point x="29" y="141"/>
      <point x="29" y="137" type="curve" smooth="yes"/>
      <point x="29" y="59"/>
      <point x="76" y="4"/>
      <point x="159" y="-8" type="curve"/>
      <point x="152" y="-68" type="line"/>
      <point x="181" y="-68" type="line" smooth="yes"/>
      <point x="203" y="-68"/>
      <point x="211" y="-75"/>
      <point x="211" y="-89" type="curve" smooth="yes"/>
      <point x="211" y="-106"/>
      <point x="199" y="-111"/>
      <point x="179" y="-111" type="curve" smooth="yes"/>
      <point x="117" y="-111" type="line"/>
      <point x="117" y="-154" type="line"/>
      <point x="138" y="-158"/>
      <point x="165" y="-161"/>
      <point x="191" y="-161" type="curve" smooth="yes"/>
      <point x="229" y="-161"/>
      <point x="287" y="-149"/>
      <point x="287" y="-89" type="curve" smooth="yes"/>
      <point x="287" y="-49"/>
      <point x="255" y="-32"/>
      <point x="217" y="-29" type="curve"/>
      <point x="219" y="-10" type="line"/>
      <point x="307" y="-4"/>
      <point x="371" y="34"/>
      <point x="371" y="140" type="curve" smooth="yes"/>
      <point x="371" y="324"/>
      <point x="144" y="253"/>
      <point x="144" y="343" type="curve" smooth="yes"/>
      <point x="144" y="371"/>
      <point x="166" y="389"/>
      <point x="199" y="389" type="curve" smooth="yes"/>
      <point x="231" y="389"/>
      <point x="250" y="370"/>
      <point x="251" y="331" type="curve" smooth="yes"/>
      <point x="251" y="329" type="line"/>
      <point x="359" y="329" type="line"/>
      <point x="359" y="330"/>
      <point x="360" y="339"/>
      <point x="360" y="349" type="curve" smooth="yes"/>
      <point x="360" y="429"/>
      <point x="291" y="476"/>
      <point x="202" y="476" type="curve" smooth="yes"/>
    </contour>
  </outline>
</glyph>
<glyph name="Tcaron" format="1">
  <advance width="443"/>
  <unicode hex="0164"/>
  <outline>
    <contour>
      <point x="429" y="506" type="line"/>
      <point x="429" y="606" type="line"/>
      <point x="15" y="606" type="line"/>
      <point x="15" y="506" type="line"/>
      <point x="165" y="506" type="line"/>
      <point x="165" y="0" type="line"/>
      <point x="278" y="0" type="line"/>
      <point x="278" y="506" type="line"/>
    </contour>
    <contour>
      <point x="265" y="661" type="line"/>
      <point x="340" y="781" type="line"/>
      <point x="261" y="781" type="line"/>
      <point x="222" y="720" type="line"/>
      <point x="182" y="781" type="line"/>
      <point x="103" y="781" type="line"/>
      <point x="179" y="661" type="line"/>
    </contour>
  </outline>
</glyph>
<glyph name="tcaron" format="1">
  <advance width="347"/>
  <unicode hex="0165"/>
  <outline>
    <contour>
      <point x="228" y="465" type="line"/>
      <point x="161" y="465" type="line"/>
      <point x="161" y="596" type="line"/>
      <point x="71" y="596" type="line"/>
      <point x="55" y="465" type="line"/>
      <point x="8" y="465" type="line"/>
      <point x="8" y="376" type="line"/>
      <point x="55" y="376" type="line"/>
      <point x="55" y="114" type="line" smooth="yes"/>
      <point x="55" y="52"/>
      <point x="80" y="-11"/>
      <point x="164" y="-11" type="curve" smooth="yes"/>
      <point x="185" y="-11"/>
      <point x="213" y="-5"/>
      <point x="228" y="0" type="curve"/>
      <point x="228" y="79" type="line"/>
      <point x="198" y="79" type="line" smooth="yes"/>
      <point x="174" y="79"/>
      <point x="161" y="92"/>
      <point x="161" y="117" type="curve" smooth="yes"/>
      <point x="161" y="376" type="line"/>
      <point x="228" y="376" type="line"/>
    </contour>
    <contour>
      <point x="339" y="376" type="line"/>
      <point x="387" y="496" type="line"/>
      <point x="387" y="606" type="line"/>
      <point x="265" y="606" type="line"/>
      <point x="265" y="485" type="line"/>
      <point x="314" y="485" type="line"/>
      <point x="276" y="376" type="line"/>
    </contour>
  </outline>
</glyph>
<glyph name="Tbar" format="1">
  <advance width="443"/>
  <unicode hex="0166"/>
  <outline>
    <contour>
      <point x="278" y="506" type="line"/>
      <point x="429" y="506" type="line"/>
      <point x="429" y="606" type="line"/>
      <point x="15" y="606" type="line"/>
      <point x="15" y="506" type="line"/>
      <point x="165" y="506" type="line"/>
      <point x="165" y="347" type="line"/>
      <point x="65" y="347" type="line"/>
      <point x="65" y="271" type="line"/>
      <point x="165" y="271" type="line"/>
      <point x="165" y="0" type="line"/>
      <point x="278" y="0" type="line"/>
      <point x="278" y="271" type="line"/>
      <point x="377" y="271" type="line"/>
      <point x="377" y="347" type="line"/>
      <point x="278" y="347" type="line"/>
    </contour>
  </outline>
</glyph>
<glyph name="Utilde" format="1">
  <advance width="523"/>
  <unicode hex="0168"/>
  <outline>
    <contour>
      <point x="352" y="781" type="line"/>
      <point x="348" y="756"/>
      <point x="336" y="748"/>
      <point x="317" y="748" type="curve" smooth="yes"/>
      <point x="278" y="748"/>
      <point x="243" y="781"/>
      <point x="200" y="781" type="curve" smooth="yes"/>
      <point x="138" y="781"/>
      <point x="113" y="721"/>
      <point x="113" y="673" type="curve"/>
      <point x="171" y="673" type="line"/>
      <point x="175" y="697"/>
      <point x="187" y="705"/>
      <point x="206" y="705" type="curve" smooth="yes"/>
      <point x="246" y="705"/>
      <point x="280" y="673"/>
      <point x="323" y="673" type="curve" smooth="yes"/>
      <point x="385" y="673"/>
      <point x="410" y="732"/>
      <point x="410" y="781" type="curve"/>
    </contour>
    <contour>
      <point x="470" y="606" type="line"/>
      <point x="357" y="606" type="line"/>
      <point x="357" y="194" type="line" smooth="yes"/>
      <point x="357" y="124"/>
      <point x="322" y="87"/>
      <point x="262" y="87" type="curve" smooth="yes"/>
      <point x="202" y="87"/>
      <point x="167" y="124"/>
      <point x="167" y="194" type="curve" smooth="yes"/>
      <point x="167" y="606" type="line"/>
      <point x="54" y="606" type="line"/>
      <point x="54" y="190" type="line" smooth="yes"/>
      <point x="54" y="58"/>
      <point x="132" y="-11"/>
      <point x="262" y="-11" type="curve" smooth="yes"/>
      <point x="392" y="-11"/>
      <point x="470" y="58"/>
      <point x="470" y="190" type="curve" smooth="yes"/>
    </contour>
  </outline>
</glyph>
<glyph name="Umacron" format="1">
  <advance width="523"/>
  <unicode hex="016A"/>
  <outline>
    <contour>
      <point x="470" y="606" type="line"/>
      <point x="357" y="606" type="line"/>
      <point x="357" y="194" type="line" smooth="yes"/>
      <point x="357" y="124"/>
      <point x="322" y="87"/>
      <point x="262" y="87" type="curve" smooth="yes"/>
      <point x="202" y="87"/>
      <point x="167" y="124"/>
      <point x="167" y="194" type="curve" smooth="yes"/>
      <point x="167" y="606" type="line"/>
      <point x="54" y="606" type="line"/>
      <point x="54" y="190" type="line" smooth="yes"/>
      <point x="54" y="58"/>
      <point x="132" y="-11"/>
      <point x="262" y="-11" type="curve" smooth="yes"/>
      <point x="392" y="-11"/>
      <point x="470" y="58"/>
      <point x="470" y="190" type="curve" smooth="yes"/>
    </contour>
    <contour>
      <point x="375" y="671" type="line"/>
      <point x="375" y="748" type="line"/>
      <point x="149" y="748" type="line"/>
      <point x="149" y="671" type="line"/>
    </contour>
  </outline>
</glyph>
<glyph name="ubreve" format="1">
  <advance width="443"/>
  <unicode hex="016D"/>
  <outline>
    <contour>
      <point x="306" y="0" type="line"/>
      <point x="394" y="0" type="line"/>
      <point x="394" y="465" type="line"/>
      <point x="288" y="465" type="line"/>
      <point x="288" y="177" type="line" smooth="yes"/>
      <point x="288" y="125"/>
      <point x="257" y="86"/>
      <point x="216" y="86" type="curve" smooth="yes"/>
      <point x="176" y="86"/>
      <point x="155" y="108"/>
      <point x="155" y="168" type="curve" smooth="yes"/>
      <point x="155" y="465" type="line"/>
      <point x="49" y="465" type="line"/>
      <point x="49" y="139" type="line" smooth="yes"/>
      <point x="49" y="29"/>
      <point x="101" y="-11"/>
      <point x="172" y="-11" type="curve" smooth="yes"/>
      <point x="228" y="-11"/>
      <point x="266" y="21"/>
      <point x="290" y="57" type="curve"/>
      <point x="295" y="57" type="line"/>
    </contour>
    <contour>
      <point x="274" y="639" type="line"/>
      <point x="272" y="627"/>
      <point x="251" y="610"/>
      <point x="221" y="610" type="curve" smooth="yes"/>
      <point x="192" y="610"/>
      <point x="171" y="627"/>
      <point x="169" y="639" type="curve"/>
      <point x="103" y="639" type="line"/>
      <point x="103" y="595"/>
      <point x="149" y="545"/>
      <point x="221" y="545" type="curve" smooth="yes"/>
      <point x="294" y="545"/>
      <point x="339" y="595"/>
      <point x="339" y="639" type="curve"/>
    </contour>
  </outline>
</glyph>
<glyph name="Uring" format="1">
  <advance width="523"/>
  <unicode hex="016E"/>
  <outline>
    <contour>
      <point x="470" y="606" type="line"/>
      <point x="357" y="606" type="line"/>
      <point x="357" y="194" type="line" smooth="yes"/>
      <point x="357" y="124"/>
      <point x="322" y="87"/>
      <point x="262" y="87" type="curve" smooth="yes"/>
      <point x="202" y="87"/>
      <point x="167" y="124"/>
      <point x="167" y="194" type="curve" smooth="yes"/>
      <point x="167" y="606" type="line"/>
      <point x="54" y="606" type="line"/>
      <point x="54" y="190" type="line" smooth="yes"/>
      <point x="54" y="58"/>
      <point x="132" y="-11"/>
      <point x="262" y="-11" type="curve" smooth="yes"/>
      <point x="392" y="-11"/>
      <point x="470" y="58"/>
      <point x="470" y="190" type="curve" smooth="yes"/>
    </contour>
    <contour>
      <point x="262" y="807" type="curve" smooth="yes"/>
      <point x="215" y="807"/>
      <point x="177" y="769"/>
      <point x="177" y="722" type="curve" smooth="yes"/>
      <point x="177" y="674"/>
      <point x="216" y="637"/>
      <point x="262" y="637" type="curve" smooth="yes"/>
      <point x="309" y="637"/>
      <point x="347" y="675"/>
      <point x="347" y="722" type="curve" smooth="yes"/>
      <point x="347" y="768"/>
      <point x="309" y="807"/>
    </contour>
    <contour>
      <point x="262" y="763" type="curve" smooth="yes"/>
      <point x="284" y="763"/>
      <point x="302" y="745"/>
      <point x="302" y="722" type="curve" smooth="yes"/>
      <point x="302" y="699"/>
      <point x="284" y="682"/>
      <point x="262" y="682" type="curve" smooth="yes"/>
      <point x="239" y="682"/>
      <point x="221" y="699"/>
      <point x="221" y="722" type="curve" smooth="yes"/>
      <point x="221" y="745"/>
      <point x="239" y="763"/>
    </contour>
  </outline>
</glyph>
<glyph name="uhungarumlaut" format="1">
  <advance width="443"/>
  <unicode hex="0171"/>
  <outline>
    <contour>
      <point x="394" y="0" type="line"/>
      <point x="394" y="465" type="line"/>
      <point x="288" y="465" type="line"/>
      <point x="288" y="177" type="line" smooth="yes"/>
      <point x="288" y="125"/>
      <point x="257" y="86"/>
      <point x="216" y="86" type="curve" smooth="yes"/>
      <point x="176" y="86"/>
      <point x="155" y="108"/>
      <point x="155" y="168" type="curve" smooth="yes"/>
      <point x="155" y="465" type="line"/>
      <point x="49" y="465" type="line"/>
      <point x="49" y="139" type="line" smooth="yes"/>
      <point x="49" y="29"/>
      <point x="101" y="-11"/>
      <point x="172" y="-11" type="curve" smooth="yes"/>
      <point x="228" y="-11"/>
      <point x="266" y="21"/>
      <point x="290" y="57" type="curve"/>
      <point x="295" y="57" type="line"/>
      <point x="306" y="0" type="line"/>
    </contour>
    <contour>
      <point x="266" y="636" type="line"/>
      <point x="265" y="639" type="line"/>
      <point x="177" y="639" type="line"/>
      <point x="122" y="522" type="line"/>
      <point x="192" y="522" type="line"/>
    </contour>
    <contour>
      <point x="390" y="636" type="line"/>
      <point x="389" y="639" type="line"/>
      <point x="301" y="639" type="line"/>
      <point x="246" y="522" type="line"/>
      <point x="316" y="522" type="line"/>
    </contour>
  </outline>
</glyph>
<glyph name="uogonek" format="1">
  <advance width="443"/>
  <unicode hex="0173"/>
  <outline>
    <contour>
      <point x="427" y="-107" type="line"/>
      <point x="408" y="-107" type="line" smooth="yes"/>
      <point x="378" y="-107"/>
      <point x="368" y="-85"/>
      <point x="368" y="-62" type="curve" smooth="yes"/>
      <point x="368" y="-37"/>
      <point x="384" y="-12"/>
      <point x="394" y="0" type="curve"/>
      <point x="394" y="465" type="line"/>
      <point x="288" y="465" type="line"/>
      <point x="288" y="177" type="line" smooth="yes"/>
      <point x="288" y="125"/>
      <point x="257" y="86"/>
      <point x="216" y="86" type="curve" smooth="yes"/>
      <point x="176" y="86"/>
      <point x="155" y="108"/>
      <point x="155" y="168" type="curve" smooth="yes"/>
      <point x="155" y="465" type="line"/>
      <point x="49" y="465" type="line"/>
      <point x="49" y="139" type="line" smooth="yes"/>
      <point x="49" y="29"/>
      <point x="101" y="-11"/>
      <point x="172" y="-11" type="curve" smooth="yes"/>
      <point x="228" y="-11"/>
      <point x="266" y="21"/>
      <point x="290" y="57" type="curve"/>
      <point x="295" y="57" type="line"/>
      <point x="306" y="0" type="line"/>
      <point x="320" y="0" type="line"/>
      <point x="299" y="-22"/>
      <point x="281" y="-47"/>
      <point x="281" y="-88" type="curve" smooth="yes"/>
      <point x="281" y="-149"/>
      <point x="328" y="-168"/>
      <point x="369" y="-168" type="curve" smooth="yes"/>
      <point x="388" y="-168"/>
      <point x="407" y="-164"/>
      <point x="427" y="-156" type="curve"/>
    </contour>
  </outline>
</glyph>
<glyph name="Zacute" format="1">
  <advance width="443"/>
  <unicode hex="0179"/>
  <outline>
    <contour>
      <point x="248" y="664" type="line"/>
      <point x="344" y="778" type="line"/>
      <point x="343" y="781" type="line"/>
      <point x="237" y="781" type="line"/>
      <point x="161" y="664" type="line"/>
    </contour>
    <contour>
      <point x="169" y="101" type="line"/>
      <point x="418" y="562" type="line"/>
      <point x="418" y="606" type="line"/>
      <point x="33" y="606" type="line"/>
      <point x="33" y="506" type="line"/>
      <point x="263" y="506" type="line"/>
      <point x="14" y="43" type="line"/>
      <point x="14" y="0" type="line"/>
      <point x="424" y="0" type="line"/>
      <point x="424" y="101" type="line"/>
    </contour>
  </outline>
</glyph>
<glyph name="Zdotaccent" format="1">
  <advance width="443"/>
  <unicode hex="017B"/>
  <outline>
    <contour>
      <point x="174" y="679" type="line"/>
      <point x="269" y="679" type="line"/>
      <point x="269" y="781" type="line"/>
      <point x="174" y="781" type="line"/>
    </contour>
    <contour>
      <point x="169" y="101" type="line"/>
      <point x="418" y="562" type="line"/>
      <point x="418" y="606" type="line"/>
      <point x="33" y="606" type="line"/>
      <point x="33" y="506" type="line"/>
      <point x="263" y="506" type="line"/>
      <point x="14" y="43" type="line"/>
      <point x="14" y="0" type="line"/>
      <point x="424" y="0" type="line"/>
      <point x="424" y="101" type="line"/>
    </contour>
  </outline>
</glyph>
<glyph name="Zcaron" format="1">
  <advance width="443"/>
  <unicode hex="017D"/>
  <outline>
    <contour>
      <point x="179" y="661" type="line"/>
      <point x="265" y="661" type="line"/>
      <point x="340" y="781" type="line"/>
      <point x="261" y="781" type="line"/>
      <point x="222" y="720" type="line"/>
      <point x="182" y="781" type="line"/>
      <point x="103" y="781" type="line"/>
    </contour>
    <contour>
      <point x="169" y="101" type="line"/>
      <point x="418" y="562" type="line"/>
      <point x="418" y="606" type="line"/>
      <point x="33" y="606" type="line"/>
      <point x="33" y="506" type="line"/>
      <point x="263" y="506" type="line"/>
      <point x="14" y="43" type="line"/>
      <point x="14" y="0" type="line"/>
      <point x="424" y="0" type="line"/>
      <point x="424" y="101" type="line"/>
    </contour>
  </outline>
</glyph>
<glyph name="zcaron" format="1">
  <advance width="362"/>
  <unicode hex="017E"/>
  <outline>
    <contour>
      <point x="340" y="421" type="line"/>
      <point x="340" y="465" type="line"/>
      <point x="27" y="465" type="line"/>
      <point x="27" y="376" type="line"/>
      <point x="196" y="376" type="line"/>
      <point x="16" y="45" type="line"/>
      <point x="16" y="0" type="line"/>
      <point x="347" y="0" type="line"/>
      <point x="347" y="89" type="line"/>
      <point x="159" y="89" type="line"/>
    </contour>
    <contour>
      <point x="225" y="520" type="line"/>
      <point x="301" y="639" type="line"/>
      <point x="221" y="639" type="line"/>
      <point x="182" y="578" type="line"/>
      <point x="142" y="639" type="line"/>
      <point x="63" y="639" type="line"/>
      <point x="139" y="520" type="line"/>
    </contour>
  </outline>
</glyph>
<glyph name="Aringacute" format="1">
  <advance width="523"/>
  <unicode hex="01FA"/>
  <outline>
    <contour>
      <point x="224" y="750" type="line"/>
      <point x="311" y="750" type="line"/>
      <point x="392" y="843" type="line"/>
      <point x="392" y="846" type="line"/>
      <point x="286" y="846" type="line"/>
    </contour>
    <contour>
      <point x="0" y="0" type="line"/>
      <point x="110" y="0" type="line"/>
      <point x="146" y="119" type="line"/>
      <point x="370" y="119" type="line"/>
      <point x="407" y="0" type="line"/>
      <point x="522" y="0" type="line"/>
      <point x="331" y="595" type="line"/>
      <point x="340" y="609"/>
      <point x="347" y="626"/>
      <point x="347" y="644" type="curve" smooth="yes"/>
      <point x="347" y="688"/>
      <point x="309" y="726"/>
      <point x="262" y="726" type="curve" smooth="yes"/>
      <point x="215" y="726"/>
      <point x="177" y="689"/>
      <point x="177" y="644" type="curve" smooth="yes"/>
      <point x="177" y="626"/>
      <point x="182" y="609"/>
      <point x="192" y="596" type="curve"/>
    </contour>
    <contour>
      <point x="262" y="682" type="curve" smooth="yes"/>
      <point x="284" y="682"/>
      <point x="302" y="666"/>
      <point x="302" y="644" type="curve" smooth="yes"/>
      <point x="302" y="621"/>
      <point x="284" y="604"/>
      <point x="262" y="604" type="curve" smooth="yes"/>
      <point x="239" y="604"/>
      <point x="221" y="621"/>
      <point x="221" y="644" type="curve" smooth="yes"/>
      <point x="221" y="666"/>
      <point x="239" y="682"/>
    </contour>
    <contour>
      <point x="260" y="505" type="line"/>
      <point x="260" y="505"/>
      <point x="268" y="454"/>
      <point x="278" y="423" type="curve" smooth="yes"/>
      <point x="339" y="220" type="line"/>
      <point x="177" y="220" type="line"/>
      <point x="239" y="423" type="line" smooth="yes"/>
      <point x="248" y="451"/>
      <point x="256" y="505"/>
      <point x="256" y="505" type="curve"/>
    </contour>
  </outline>
</glyph>
<glyph name="aringacute" format="1">
  <advance width="442"/>
  <unicode hex="01FB"/>
  <outline>
    <contour>
      <point x="192" y="476" type="curve" smooth="yes"/>
      <point x="96" y="476"/>
      <point x="34" y="424"/>
      <point x="34" y="347" type="curve" smooth="yes"/>
      <point x="34" y="339"/>
      <point x="34" y="332"/>
      <point x="35" y="327" type="curve"/>
      <point x="139" y="327" type="line"/>
      <point x="139" y="340" type="line" smooth="yes"/>
      <point x="139" y="362"/>
      <point x="151" y="389"/>
      <point x="194" y="389" type="curve" smooth="yes"/>
      <point x="235" y="389"/>
      <point x="243" y="363"/>
      <point x="243" y="331" type="curve" smooth="yes"/>
      <point x="243" y="283" type="line"/>
      <point x="108" y="283"/>
      <point x="12" y="246"/>
      <point x="12" y="120" type="curve" smooth="yes"/>
      <point x="12" y="12"/>
      <point x="86" y="-11"/>
      <point x="129" y="-11" type="curve" smooth="yes"/>
      <point x="191" y="-11"/>
      <point x="220" y="13"/>
      <point x="247" y="50" type="curve"/>
      <point x="251" y="50" type="line"/>
      <point x="262" y="14"/>
      <point x="291" y="-11"/>
      <point x="333" y="-11" type="curve" smooth="yes"/>
      <point x="365" y="-11"/>
      <point x="385" y="-3"/>
      <point x="396" y="4" type="curve"/>
      <point x="396" y="79" type="line"/>
      <point x="375" y="79" type="line" smooth="yes"/>
      <point x="362" y="79"/>
      <point x="350" y="88"/>
      <point x="350" y="110" type="curve" smooth="yes"/>
      <point x="350" y="339" type="line" smooth="yes"/>
      <point x="350" y="425"/>
      <point x="300" y="476"/>
    </contour>
    <contour>
      <point x="243" y="179" type="line"/>
      <point x="243" y="125"/>
      <point x="224" y="78"/>
      <point x="173" y="78" type="curve" smooth="yes"/>
      <point x="137" y="78"/>
      <point x="121" y="98"/>
      <point x="121" y="130" type="curve" smooth="yes"/>
      <point x="121" y="190"/>
      <point x="181" y="206"/>
      <point x="243" y="206" type="curve"/>
    </contour>
    <contour>
      <point x="192" y="617" type="curve" smooth="yes"/>
      <point x="214" y="617"/>
      <point x="232" y="600"/>
      <point x="232" y="578" type="curve" smooth="yes"/>
      <point x="232" y="555"/>
      <point x="214" y="538"/>
      <point x="192" y="538" type="curve" smooth="yes"/>
      <point x="169" y="538"/>
      <point x="151" y="555"/>
      <point x="151" y="578" type="curve" smooth="yes"/>
      <point x="151" y="600"/>
      <point x="169" y="617"/>
    </contour>
    <contour>
      <point x="192" y="660" type="curve" smooth="yes"/>
      <point x="145" y="660"/>
      <point x="107" y="623"/>
      <point x="107" y="578" type="curve" smooth="yes"/>
      <point x="107" y="532"/>
      <point x="146" y="496"/>
      <point x="192" y="496" type="curve" smooth="yes"/>
      <point x="239" y="496"/>
      <point x="277" y="533"/>
      <point x="277" y="578" type="curve" smooth="yes"/>
      <point x="277" y="622"/>
      <point x="240" y="660"/>
    </contour>
    <contour>
      <point x="327" y="778" type="line"/>
      <point x="326" y="781" type="line"/>
      <point x="220" y="781" type="line"/>
      <point x="154" y="679" type="line"/>
      <point x="241" y="679" type="line"/>
    </contour>
  </outline>
</glyph>
<glyph name="AEacute" format="1">
  <advance width="725"/>
  <unicode hex="01FC"/>
  <outline>
    <contour>
      <point x="389" y="664" type="line"/>
      <point x="484" y="778" type="line"/>
      <point x="484" y="781" type="line"/>
      <point x="377" y="781" type="line"/>
      <point x="301" y="664" type="line"/>
    </contour>
    <contour>
      <point x="387" y="506" type="line"/>
      <point x="682" y="506" type="line"/>
      <point x="682" y="606" type="line"/>
      <point x="225" y="606" type="line"/>
      <point x="-7" y="0" type="line"/>
      <point x="98" y="0" type="line"/>
      <point x="142" y="119" type="line"/>
      <point x="366" y="119" type="line"/>
      <point x="395" y="0" type="line"/>
      <point x="687" y="0" type="line"/>
      <point x="687" y="101" type="line"/>
      <point x="486" y="101" type="line"/>
      <point x="447" y="260" type="line"/>
      <point x="643" y="260" type="line"/>
      <point x="643" y="361" type="line"/>
      <point x="423" y="361" type="line"/>
    </contour>
    <contour>
      <point x="280" y="483" type="line"/>
      <point x="284" y="469"/>
      <point x="286" y="455"/>
      <point x="290" y="442" type="curve"/>
      <point x="342" y="220" type="line"/>
      <point x="179" y="220" type="line"/>
      <point x="261" y="439" type="line" smooth="yes"/>
      <point x="266" y="453"/>
      <point x="271" y="469"/>
      <point x="277" y="483" type="curve"/>
    </contour>
  </outline>
</glyph>
<glyph name="uni021A" format="1">
  <advance width="443"/>
  <unicode hex="021A"/>
  <outline>
    <contour>
      <point x="429" y="606" type="line"/>
      <point x="15" y="606" type="line"/>
      <point x="15" y="506" type="line"/>
      <point x="165" y="506" type="line"/>
      <point x="165" y="0" type="line"/>
      <point x="278" y="0" type="line"/>
      <point x="278" y="506" type="line"/>
      <point x="429" y="506" type="line"/>
    </contour>
    <contour>
      <point x="276" y="-49" type="line"/>
      <point x="167" y="-49" type="line"/>
      <point x="167" y="-157" type="line"/>
      <point x="210" y="-157" type="line"/>
      <point x="179" y="-232" type="line"/>
      <point x="236" y="-232" type="line"/>
      <point x="276" y="-148" type="line"/>
    </contour>
  </outline>
</glyph>
<glyph name="uni021A" format="1">
  <advance width="443"/>
  <unicode hex="021A"/>
  <outline>
    <contour>
      <point x="278" y="506" type="line"/>
      <point x="429" y="506" type="line"/>
      <point x="429" y="606" type="line"/>
      <point x="15" y="606" type="line"/>
      <point x="15" y="506" type="line"/>
      <point x="165" y="506" type="line"/>
      <point x="165" y="0" type="line"/>
      <point x="278" y="0" type="line"/>
    </contour>
    <contour>
      <point x="236" y="-232" type="line"/>
      <point x="276" y="-148" type="line"/>
      <point x="276" y="-49" type="line"/>
      <point x="167" y="-49" type="line"/>
      <point x="167" y="-157" type="line"/>
      <point x="210" y="-157" type="line"/>
      <point x="179" y="-232" type="line"/>
    </contour>
  </outline>
</glyph>
